<svg xmlns="http://www.w3.org/2000/svg" viewBox="0 0 484.69 150"><title>benjamin</title><path d="M505.74,403.31a3.65,3.65,0,0,1,1,.12l3.1.59a3,3,0,0,1,1.59.29l.23.23a1.06,1.06,0,0,0,.59.59c.23.08.43.16.58.23a2.42,2.42,0,0,0,.85.35,1.47,1.47,0,0,1,.73.36.45.45,0,0,1,.12.35v.64q0,.12.06.12s.06,0,.06.12c0,.31-.2.47-.59.47h-.52a1.13,1.13,0,0,0-.65-.3,2.83,2.83,0,0,1-.88-.29,1.31,1.31,0,0,1-.41-.06.93.93,0,0,0-.29-.06h-.53a7.3,7.3,0,0,1-1.29-.11l-1.35-.3c-.89.08-1.66.13-2.28.15s-1.35,0-2.17,0a1,1,0,0,1-.47.12h-.35a1.75,1.75,0,0,1-.88.17,2,2,0,0,0-.94.18.45.45,0,0,0-.35-.12.48.48,0,0,0-.35.12,1.25,1.25,0,0,1-.58.11,2,2,0,0,1-.82-.11.46.46,0,0,0,.29-.06.24.24,0,0,1,.17-.06.11.11,0,0,0,.12-.12l-1.46.24c-.39.08-.85.15-1.38.23a13.66,13.66,0,0,0-1.61.35c-1.37.32-2.85.63-4.46.94l-1.4.23a5.89,5.89,0,0,1-1.35.3h-.58a.53.53,0,0,0-.36.11l-1.58.36a.33.33,0,0,1-.23-.12,1,1,0,0,1-.85.53,11.55,11.55,0,0,0-1.2.17,3.6,3.6,0,0,0-1.32.24,3.49,3.49,0,0,1-1.2.23,1.29,1.29,0,0,1-.59.12l-.82.23q-.58,0-1.26.06a4.64,4.64,0,0,0-1.26.29.75.75,0,0,1-.32-.05.62.62,0,0,0-.32-.06,4.86,4.86,0,0,0-1.06.11,5.75,5.75,0,0,0-1.05.41h-.65a2.57,2.57,0,0,0-.82.12,1.87,1.87,0,0,1-.58.12,2.39,2.39,0,0,1-1.23.35,1.22,1.22,0,0,1-.41-.06,1.31,1.31,0,0,0-.41-.06,7.89,7.89,0,0,1-1,.18,1.17,1.17,0,0,0-.73.29l-.47.24a7.27,7.27,0,0,1-1.47.11H466a.64.64,0,0,1-.47-.23.79.79,0,0,0-.59-.24l-.12-.11a6,6,0,0,0-1-1.82.72.72,0,0,1-.18-.35.63.63,0,0,1,.3-.47,6.05,6.05,0,0,1,.93-1.23,1.28,1.28,0,0,1,.53-.47c.2-.08.45-.19.76-.35a22.91,22.91,0,0,1,2.41-.35c.82-.08,1.66-.12,2.51-.12a8.3,8.3,0,0,0,.8-.23,1.61,1.61,0,0,1,.55-.12,4.13,4.13,0,0,1,2.08-.41,5.57,5.57,0,0,0,2-.23q.71-.12,1.5-.18a4.94,4.94,0,0,0,1.38-.29,11.93,11.93,0,0,1,1.49-.41c.53-.12,1.06-.22,1.61-.3l3.14-.47c1-.15,2.11-.27,3.25-.35.08-.08.27-.11.58-.11h.82c-.15-.08,0-.17.5-.27s1.11-.2,1.88-.32,1.62-.22,2.57-.29,1.79-.12,2.49-.12a3.84,3.84,0,0,1,2.17.35.24.24,0,0,0,.18-.06.46.46,0,0,1,.29-.06.53.53,0,0,1,.24.06.76.76,0,0,0,.35.06,5.41,5.41,0,0,0,1.7-.35,6,6,0,0,0,.79-.06,7.57,7.57,0,0,1,1-.06Zm10-99.49v.76a1.19,1.19,0,0,0-.29.65,2.06,2.06,0,0,1-.18.64,3.59,3.59,0,0,1-.23,1.32c-.16.41-.31.81-.47,1.2a7.73,7.73,0,0,0-.47,1.47l-.41.58a12,12,0,0,1-.58,1.44,5.25,5.25,0,0,0-.47,1.67,1,1,0,0,1-.35.58l-1.35,3.64c-.16.39-.29.7-.41.93s-.26.53-.41.88a2.42,2.42,0,0,0-.35.82,2.78,2.78,0,0,1-.35.82,12.81,12.81,0,0,1-.88,2.29,11.56,11.56,0,0,1-.59,2.4c-.39,1-.72,1.94-1,2.9a19.49,19.49,0,0,1-1.05,2.84,2.72,2.72,0,0,1-.29,1.26,11.79,11.79,0,0,0-.53,1.14,1.71,1.71,0,0,1-.12.65,2.15,2.15,0,0,1-.12.7,3.47,3.47,0,0,1-.23.59c-.16.39-.31.79-.47,1.2a3.49,3.49,0,0,0-.23,1.2c.08,0,0,.12-.3.35a14.29,14.29,0,0,0-.82,2.11c-.23.78-.43,1.49-.58,2.11a3.78,3.78,0,0,0-.29,1,1.86,1.86,0,0,1-.3.79c-.08.31-.22.87-.44,1.67s-.46,1.62-.73,2.46-.51,1.56-.7,2.17-.33.9-.41.9l-.47,1.64a2.77,2.77,0,0,0-.18.88V355a1.93,1.93,0,0,1-.11.65c-.08.19-.16.41-.24.64-.16.63-.31,1.2-.47,1.73s-.31,1.12-.47,1.79a6.33,6.33,0,0,0-.52,1.05,4.48,4.48,0,0,1-.41.82,2.19,2.19,0,0,0-.12.88,3.65,3.65,0,0,1-.27.76l-.38.76c.08-.07,0,.35-.23,1.26s-.53,2-.88,3.14-.69,2.26-1,3.25-.54,1.57-.62,1.73a.26.26,0,0,0-.29.18.79.79,0,0,1-.18.29.56.56,0,0,0-.12.41.65.65,0,0,1,.24.47,1.15,1.15,0,0,1-.35.82c-.08,0-.12,0-.12.11a2.37,2.37,0,0,1-.12.94,1.63,1.63,0,0,1-.29.56,1.76,1.76,0,0,0-.29.44l-.3,1.05v.47c0,.24,0,.37-.11.41a2,2,0,0,0-.36,1.41,4.13,4.13,0,0,1-.23,1.11,2.72,2.72,0,0,0-.47,1.52v.24a.24.24,0,0,0,.06.18.21.21,0,0,1,.06.17,1.8,1.8,0,0,1-.47,1.23,1.71,1.71,0,0,1-.12.65,4.25,4.25,0,0,1-.23.52.57.57,0,0,1-.35.53q-.24,0-.3.12a.65.65,0,0,0,.3.47v.35a3.69,3.69,0,0,1-.18,1.35.48.48,0,0,1-.12.35,2,2,0,0,0-.35.93,1.84,1.84,0,0,0,.06.47,2,2,0,0,1,.06.47l-1,5a10.6,10.6,0,0,1-.06,1.14,2.87,2.87,0,0,1-.3,1,1.45,1.45,0,0,0-.05.73,1.25,1.25,0,0,1-.18.85v2.05a.68.68,0,0,0-.12.47,7.15,7.15,0,0,0,.24,1.47l-.24.23q-.12,0-.12-.06s0-.06-.11-.06a.65.65,0,0,1-.3-.11h-.23c-.08-.16-.16-.22-.23-.18s-.2,0-.36-.12h-.35a1,1,0,0,1-1.05-.82,1.71,1.71,0,0,1-.53-1.05v-.35a.74.74,0,0,1,.06-.27,1,1,0,0,0,.06-.38,2,2,0,0,0-.24-.58.53.53,0,0,1-.11-.36,1,1,0,0,1,.17-.52,1.12,1.12,0,0,0,.18-.59q0-.12-.06-.12s-.06,0-.06-.11a.59.59,0,0,1-.18-.53.55.55,0,0,0-.17-.53,1.57,1.57,0,0,1-.12-.7,2.76,2.76,0,0,0,.35-1.23v-.47a3.79,3.79,0,0,1,.24-1.17,1.05,1.05,0,0,0,.12-.3c0,.08-.08,0-.24-.35a.49.49,0,0,0-.06-.23.53.53,0,0,1-.06-.24c0-.07.12-.19.36-.35s.25-.23.29-.23q-.12-.24-.18-.24a.64.64,0,0,1-.11-.46,1,1,0,0,1,.11-.53.91.91,0,0,0,.18-.47.39.39,0,0,0-.18-.35,3.09,3.09,0,0,1,.3-1.17,7.13,7.13,0,0,0,.23-1.59v-.35a.68.68,0,0,1,.12-.47,6,6,0,0,0,.23-1.61,4,4,0,0,1,.24-1.43,1.34,1.34,0,0,0,.05-.65.59.59,0,0,1,.18-.53l.12-.11q0-.12.06-.12s.05,0,.05-.12a2.37,2.37,0,0,1,.3-1.14,2.72,2.72,0,0,0,.29-1.26c.08-.39.16-.73.23-1a5.92,5.92,0,0,1,.41-1,.48.48,0,0,0,.12-.35v-.59c.08-.15.16-.32.24-.5a1.32,1.32,0,0,0,.11-.49v-.24a2.69,2.69,0,0,1,.59-1.52,2.93,2.93,0,0,1,.23-.65c0-.07,0-.11.06-.11s.06,0,.06-.12l-.23-.23a1,1,0,0,1,.11-.59l.47-.7c.08-.24.23-.75.44-1.53s.44-1.59.68-2.43.46-1.59.7-2.25.47-1,.7-1.12v-.23a.92.92,0,0,0-.23-.53.75.75,0,0,1,.11-.47,9.44,9.44,0,0,0,.77-2.52,1.15,1.15,0,0,1,.11-.47,1,1,0,0,0,.12-.47,2.09,2.09,0,0,1,.24-.58,4.24,4.24,0,0,1,.17-1.2c.12-.41.26-.81.41-1.2s.18-.66.29-1,.26-.75.41-1.14a1.45,1.45,0,0,1,.12-.68,1.07,1.07,0,0,0,.12-.55v-.24c0-.07,0-.11.12-.11a4.33,4.33,0,0,0,.32-.88,4.48,4.48,0,0,0,.09-.94c0,.08,0-.1.17-.53s.26-.94.41-1.55.31-1.23.47-1.88a6.68,6.68,0,0,0,.24-1.31V346l.35-.59a3.83,3.83,0,0,0,.47-1.93,3.42,3.42,0,0,1,.14-1.05,10.57,10.57,0,0,1,.38-1c.16-.39.3-.72.41-1a5.34,5.34,0,0,0,.3-.88.1.1,0,0,1,.11-.11,7.83,7.83,0,0,0,.35-1.61,3.37,3.37,0,0,1,.59-1.56c.16-.54.32-1.06.5-1.55l.5-1.44.35-.7a1,1,0,0,0,.23-.7,3.33,3.33,0,0,1,.12-1l.23-.73a2.57,2.57,0,0,0,.47-1.82,4.2,4.2,0,0,1,.76-1.4,14.51,14.51,0,0,0,.59-1.62c.16-.52.31-1,.47-1.43s.14-.74.18-1.06a2.78,2.78,0,0,1,.29-.93,1.6,1.6,0,0,0,.35-.74,8.92,8.92,0,0,1,.35-1.08,8.09,8.09,0,0,1,.62-1.55c.25-.49.53-1,.85-1.55a1.33,1.33,0,0,1,.11-.5,1.22,1.22,0,0,0,.12-.5,2.8,2.8,0,0,1,.59-1.64,8.83,8.83,0,0,1,.67-1.67,7.82,7.82,0,0,0,.67-1.85c0-.15,0-.23.12-.23a2.17,2.17,0,0,0,.35-1.35c.39-.9.74-1.76,1-2.58s.56-1.64.79-2.46v-.35c0-.08-.08-.2-.23-.35s-.12,0-.12-.06,0-.06-.12-.06l-.23.12c-.63.23-1.25.44-1.88.61a6.71,6.71,0,0,1-1.87.27h-.47a.37.37,0,0,0-.24.11,1.32,1.32,0,0,1-1,.53,5.9,5.9,0,0,0-1.38.3,4.55,4.55,0,0,1-1.14.29,4.55,4.55,0,0,0-1.14.29q0,.12-.24.12l-1.55.41a9.31,9.31,0,0,0-1.44.47l-1.43.47c-.49.15-1,.31-1.61.46l-.82.24c-.63.23-1.26.45-1.91.64a9.83,9.83,0,0,0-1.9.82,12.59,12.59,0,0,1-1.5.41,8.35,8.35,0,0,0-1.55.53l-3,.82a1.65,1.65,0,0,1-.76.29.87.87,0,0,0-.64.59,1.84,1.84,0,0,1-.8.29,3.07,3.07,0,0,0-.9.3,3.4,3.4,0,0,0-.79.11l-.91.24c-.39.15-.76.29-1.12.41a2.68,2.68,0,0,0-.93.53,5.63,5.63,0,0,0-1.88.76c-.7.39-1.42.78-2.17,1.17a21,21,0,0,0-2.05,1.23,9.34,9.34,0,0,0-.91.53c-.29.19-.59.41-.9.64q-.24.24-.36.24c-.07,0-.19.07-.35.23l-.7.53a.75.75,0,0,1-.53.23.48.48,0,0,1-.35-.12,2.09,2.09,0,0,1-1.17-1.23,2.25,2.25,0,0,1-.47-1.17.88.88,0,0,0-.12-.44l-.23-.44v-.35a3,3,0,0,1,.64-1c.28-.28.53-.55.77-.82a1.52,1.52,0,0,1,.52-.36,4.56,4.56,0,0,0,.71-.35l1.17-.93,5.39-2.64c.39-.16.79-.3,1.2-.44a4.25,4.25,0,0,0,1-.44,1.83,1.83,0,0,1,.82-.24,5,5,0,0,0,1-.29l1-.41a10.13,10.13,0,0,1,2.52-.94,5.76,5.76,0,0,1,1.14-.32,1.39,1.39,0,0,0,.91-.55,6.72,6.72,0,0,0,2.28-.59,12.5,12.5,0,0,1,2.26-.76,12.44,12.44,0,0,0,2.31-.82,24.29,24.29,0,0,1,3.14-.94,21.66,21.66,0,0,0,3.07-.94,5.75,5.75,0,0,0,1.67-.44,10.09,10.09,0,0,1,1.73-.55c.63-.16,1.2-.3,1.73-.41l1.73-.41c.55-.16,1.06-.3,1.55-.41s1-.22,1.55-.3a1.87,1.87,0,0,1,.77-.11h.35q.12,0,.12-.06s0-.06.11-.06a4.05,4.05,0,0,1,1.26-.5,5.83,5.83,0,0,1,1.26-.15,1.29,1.29,0,0,1,.53-.11.74.74,0,0,0,.53-.24,17.71,17.71,0,0,1,1.93-.47,5.49,5.49,0,0,0,.7,0l.88-.18a.68.68,0,0,1,.47-.12,1.89,1.89,0,0,1,.47.06,1.89,1.89,0,0,0,.47.06h.91a3.74,3.74,0,0,0,.91-.12l5.62-1.11a7.41,7.41,0,0,0,1.7-.24h-.23l.76-.11c.5-.08,1.1-.16,1.78-.24l2.17-.23a18.51,18.51,0,0,1,1.85-.12,1.94,1.94,0,0,1,.88.12c.78-.08,1.75-.16,2.93-.24s2.3-.11,3.39-.11a9.52,9.52,0,0,1,3.52.47c.16.15.27.21.35.17a.4.4,0,0,1,.35.06c.39.08.76.14,1.09.18a4.16,4.16,0,0,1,1.08.29,1.61,1.61,0,0,1,1.29.53l1.7.58a3.08,3.08,0,0,1,.47.3,3.31,3.31,0,0,0,.47.29,1.18,1.18,0,0,1,.23.82V299a.57.57,0,0,0,.18.41l.11.23a.71.71,0,0,1-.52.47.53.53,0,0,1-.24-.06A.49.49,0,0,0,548,300l-.59-.35-.47-.23a1,1,0,0,0-.47-.12,7.11,7.11,0,0,1-1.14-.09l-1.14-.2a1.61,1.61,0,0,1-1-.24.24.24,0,0,1-.17-.06.24.24,0,0,0-.18-.06l-.23.12h-.24a2,2,0,0,1-.82-.12l-3-.46-.77.11c-.5.08-1.08.14-1.72.18a14.12,14.12,0,0,0-1.82.23,2.39,2.39,0,0,0-1.08.41v.18a.75.75,0,0,1-.47-.18,14.86,14.86,0,0,0-1.85.15c-.76.1-1.54.2-2.34.32s-1.5.22-2.08.29l-.82.12-.53.24a2.31,2.31,0,0,1-.76.11,4.42,4.42,0,0,0-1,.24,4.05,4.05,0,0,1-.94.23.46.46,0,0,1-.29-.06.46.46,0,0,0-.29-.06h-.35c-.55,0-.84,0-.88.12a1.58,1.58,0,0,1-1.06.24c-.39.16-.81.34-1.26.55a3.07,3.07,0,0,1-1.37.33,2.09,2.09,0,0,0-.77.11,1,1,0,0,0-.35.71,1,1,0,0,0-.11.46C515.59,303.55,515.62,303.74,515.7,303.82Z" transform="translate(-463.61 -295.21)" style="fill:#333"/><path d="M514.94,330.54a1.3,1.3,0,0,1-.64-.06l-.24.12-.11-.12-.3-.23a.33.33,0,0,0-.23-.12,1.14,1.14,0,0,0-.35-.82c-.24-.39-.39-.65-.47-.76a1,1,0,0,0-.35-.71c.15-.15,0-.65-.5-1.49l-1.32-2.26q-.58-1.05,0-1,0-.59-.06-1.5a7.72,7.72,0,0,0-.41-2c.16,0,.22-.11.18-.32s0-.32.06-.32a5.2,5.2,0,0,1,.79.11c.37.08,1.14.22,2.31.41.39,0,.8.32,1.23.94l.12.12a.92.92,0,0,1,.12.76,1,1,0,0,0,.11.82l.12.12a1.62,1.62,0,0,0,.23.35l.24.23.23.24a.52.52,0,0,1,.06.41.26.26,0,0,0,.06.29c-.16.24-.08.61.23,1.12.08.15-.07.46-.46.93s-.63.75-.71.82l.94.18c-.08.08-.08.21,0,.41a1.39,1.39,0,0,1,.12.53c0,.23-.08.31-.24.23-.23.24-.27.68-.11,1.35l-.24,1.05A2.71,2.71,0,0,1,514.94,330.54Z" transform="translate(-463.61 -295.21)" style="fill:#333"/><path d="M531.29,362.77a.58.58,0,0,0,.41-.47l.23-.47a6.25,6.25,0,0,0,.82-1.32c.24-.49.47-.95.71-1.38a1.71,1.71,0,0,1,1.46-.93,1.48,1.48,0,0,1,1.06.46v.24l-.24.12-.12.29a.68.68,0,0,0,.47.12,1.36,1.36,0,0,1,.74.52,4.34,4.34,0,0,1,.26.88,1.89,1.89,0,0,0,.06.47,2.15,2.15,0,0,1,.06.53,3.31,3.31,0,0,1-.47,1.64q-.59,1.17-1.14,2.4a12.77,12.77,0,0,1-1.26,2.17,3.71,3.71,0,0,1-.62,1,1.56,1.56,0,0,0-.38,1c0,.08-.08.2-.23.35-.24.55-.45,1.09-.65,1.61a10.15,10.15,0,0,1-.76,1.61,18.31,18.31,0,0,0-1.14,2.82,28.55,28.55,0,0,1-1.15,3l-.11.12h.23a1.54,1.54,0,0,0,.82-.53,12.6,12.6,0,0,1,1.2-2c.65-.92,1.09-1.53,1.32-1.84l.82-1.59c.16-.15.28-.27.38-.35a3.51,3.51,0,0,0,.38-.35l2.52-3.22a5.1,5.1,0,0,0,.76-1.26,3.5,3.5,0,0,1,1-1.26l.53-.65.88-1.11a12.75,12.75,0,0,0,.76-1.11c.62-.71,1.26-1.47,1.9-2.29s1.3-1.62,2-2.4l1.75-1.93c.24-.32.46-.6.68-.85A11.4,11.4,0,0,1,548,356l2.28-1.82a1.66,1.66,0,0,1,1.18-.35c.31,0,.48.12.52.35a1.5,1.5,0,0,0,.59.79,3.14,3.14,0,0,1,.58.44l.24.24a2.32,2.32,0,0,1,1,.52,3,3,0,0,1,.49.94v1.06a1.69,1.69,0,0,1,.06.79,1.49,1.49,0,0,0,.18.9,4.17,4.17,0,0,1,.23.94.73.73,0,0,1-.11.47.53.53,0,0,1-.06.24.94.94,0,0,0-.06.41,5.94,5.94,0,0,0,.06.87,5.4,5.4,0,0,1,.06.77,2.05,2.05,0,0,1-.12.76v.47a7.76,7.76,0,0,1-.12,1.37c-.08.45-.16.91-.23,1.38a2,2,0,0,0-.06.82.93.93,0,0,1-.18.7l-.41,2.29a1,1,0,0,1-.06.38,1,1,0,0,0-.06.38c0,.16,0,.26.06.29a.47.47,0,0,1,.06.3,4.58,4.58,0,0,1-.12,1.08,6.39,6.39,0,0,1-.35,1.08,3.56,3.56,0,0,1-.06.59,4.84,4.84,0,0,0,0,.59,1.2,1.2,0,0,0,.35.76,1.64,1.64,0,0,0-.24.94,2,2,0,0,0,.12.82c.08.31.2.46.35.46a.81.81,0,0,0,.41-.23c.24-.16.49-.31.76-.47a1.84,1.84,0,0,0,.65-.58l1-1a1.84,1.84,0,0,0,.49-1,1.08,1.08,0,0,1,.71-.7c.54-.63,1.08-1.2,1.61-1.73a8.67,8.67,0,0,0,1.37-1.79,3.27,3.27,0,0,1,.5-.58,1.54,1.54,0,0,0,.38-.47l.82-.59a25.65,25.65,0,0,1,3.34-3.4,3,3,0,0,1,1.15-.76,5.2,5.2,0,0,0,1.14-.52.94.94,0,0,1,.7-.24,2,2,0,0,1,.76.12.35.35,0,0,0,.24.12c.08,0,.12.07.12.23a8.27,8.27,0,0,0,.7.64,3,3,0,0,0,1,.53c.08,0,.2.1.36.29a13.1,13.1,0,0,1,1.17,1.29c.15.24.45.8.88,1.7a.47.47,0,0,0,.06.3.54.54,0,0,1,0,.29l.47,1.93v1.94a6.21,6.21,0,0,0,.24,1.4,2,2,0,0,1,.11.82,1.71,1.71,0,0,1-.11.65l-.12.23.23.24v1.58a1.69,1.69,0,0,0,.53,1.23,1.76,1.76,0,0,0,1.29.53h.24a12,12,0,0,1,1.61-.36,7.9,7.9,0,0,0,1.49-.35,3.78,3.78,0,0,0,1-.35,10,10,0,0,1,1-.47l.94-.41H584c.16,0,.26.1.3.29v.12a1.78,1.78,0,0,0-.38.53,2.45,2.45,0,0,1-.38.53,1.13,1.13,0,0,0-.71.93l-.23.65q0,.12.06.12s.06,0,.06.11-.16.2-.47.35a2.45,2.45,0,0,0-1.12.82.68.68,0,0,1-.58.36h-.35a2.62,2.62,0,0,0-1.35.64,3,3,0,0,1-.94.35,3.49,3.49,0,0,1-1.2-.23,12.85,12.85,0,0,1-1.2-.53,2.26,2.26,0,0,1-1.35-.94,6,6,0,0,1-.94-1.2,5.56,5.56,0,0,0-.93-1.2l-.5-1a4.41,4.41,0,0,1-.38-1.18,2.91,2.91,0,0,0-.12-.93v-1.7a.49.49,0,0,0-.12-.36l-.35-5.27a1.66,1.66,0,0,1-.17-.47,1.09,1.09,0,0,0-.3-.47.35.35,0,0,0-.23-.11.37.37,0,0,0-.24.11,2.52,2.52,0,0,0-1.7,1.06l-1.81,1.7a1.19,1.19,0,0,0-.29.35.59.59,0,0,1-.3.23,1.84,1.84,0,0,1-.7.59,4.3,4.3,0,0,0-.41.47,2.27,2.27,0,0,1-.41.41l-.41.58a9.84,9.84,0,0,1-1,1.79,5.39,5.39,0,0,1-1.4,1.32,4,4,0,0,0-1.18,1.7c0,.16-.15.39-.46.7-.16.16-.35.35-.56.59a1,1,0,0,0-.32.7,2.76,2.76,0,0,0-.24.53c-.15.31-.29.6-.41.88a1.28,1.28,0,0,1-.64.64l-.35.35a3.11,3.11,0,0,1-.56.44,3.76,3.76,0,0,0-.56.44,1,1,0,0,1-.64.59l-.88.23a2.14,2.14,0,0,1-.67-.11l-.68-.24L552,384.39v-.18c-.39-.31-.75-.62-1.08-.94a6.21,6.21,0,0,1-1-2.4c-.08-.39-.13-.77-.17-1.14a4.19,4.19,0,0,0-.3-1.14,1.29,1.29,0,0,1,.12-.59v-.47a5.57,5.57,0,0,0-.06-.85,5.48,5.48,0,0,1-.06-.85v-.94l.24-1.2a6.23,6.23,0,0,0,.11-1.2v-.35a9.56,9.56,0,0,1,.12-1.55A10,10,0,0,0,550,369v-.47q0-.24.12-.24a6,6,0,0,0,.23-1.61,6.08,6.08,0,0,1,.23-1.61l.24-2.28a3.81,3.81,0,0,0,.12-1.12,3,3,0,0,0-.12-.94v-.11c0-.24-.16-.43-.47-.59h-.23a6.87,6.87,0,0,1-.91.94,3.18,3.18,0,0,0-.79,1,11.94,11.94,0,0,0-.88,1.23,4.33,4.33,0,0,1-1.17,1.17c-.16,0-.28.11-.36.35a2.65,2.65,0,0,1-.82,1.29,8.75,8.75,0,0,0-1.46,1.7,3.51,3.51,0,0,1-.65.88,3.15,3.15,0,0,0-.64.93,3,3,0,0,0-.91.82c-.21.32-.44.67-.67,1.06l-2.64,3.28a20.58,20.58,0,0,1-1.7,2.4c-.23.16-.35.32-.35.47a.7.7,0,0,1-.23.47l-.59.7a5.42,5.42,0,0,0-.76,1.26,7.24,7.24,0,0,1-.82,1.38,1.6,1.6,0,0,1-.47,1,6.91,6.91,0,0,0-.82,1.31c-.23.49-.43.93-.59,1.32a1.33,1.33,0,0,0-.23.71c0,.23-.18.43-.53.58a1.09,1.09,0,0,0-.35.76,10.5,10.5,0,0,1-.82,1.56,4.56,4.56,0,0,1-1.11,1.2L527.6,391a1.67,1.67,0,0,1-1.23.47,3,3,0,0,1-1.29-.35l-.24-.12h-.35l.24-.24v-.58l-.35-.47c-.32-.39-.57-.68-.77-.88a.7.7,0,0,1-.23-.47,2.14,2.14,0,0,1,.23-.58v-1.12a4.46,4.46,0,0,1-.11-1.17,9.93,9.93,0,0,1,0-1c0-.3.1-.64.18-1v-.82l.12-.12.11-1h.12v-.12l.3-.23v-.24l.23-.12v-.35l.12-.11v-.24h.11v-.7l.12-.18V378l.12-.12.12-.58h.11l.12-.76.23-.24v-.12l.12-.35v-.58h.12v-.36l.12-.11v-.35h.11v-.53l.12-.12.35-1.17.18-.12.58-1.7.12-.11.94-2.29h.12v-.12l.11-.11v-.71h.12V367h.12v-.29l.11-.12,1.12-2v.12l.11-.24-.11.12a1,1,0,0,1,.23-.41v.18l.47-.53h-.23Zm-.7,1.17-.12.11C530.47,364,530.51,363.94,530.59,363.94Z" transform="translate(-463.61 -295.21)" style="fill:#333"/><path d="M657.56,359.43a.37.37,0,0,1-.24.11,1.42,1.42,0,0,0-.64-.11,4.16,4.16,0,0,0-.64.05,5,5,0,0,0-.65.18h-.23a3.49,3.49,0,0,0-1.2.23,7.8,7.8,0,0,1-1.21.36l-1.11.35a6.91,6.91,0,0,1-1.23.58c-.43.16-.9.32-1.41.47a.37.37,0,0,0-.23.09.4.4,0,0,1-.23.09,2,2,0,0,1-.65.29.56.56,0,0,0-.41.29.57.57,0,0,1-.41.12,2.55,2.55,0,0,0-1.41.47,4.3,4.3,0,0,0-.9.35l-.91.47a1.65,1.65,0,0,0-.94.64c-.16,0-.25,0-.29.12a.19.19,0,0,1-.18.12,7.16,7.16,0,0,0-1.67.64l-1.49.88a.24.24,0,0,0-.18.06.24.24,0,0,1-.17.06.68.68,0,0,1-.47-.23,2,2,0,0,0-.82-.36,1.71,1.71,0,0,0-.65.12.46.46,0,0,1-.35.12,3.81,3.81,0,0,0-1.11-.29q-.53-.06-1.17-.18a.32.32,0,0,1-.36-.35.65.65,0,0,0-.46-.24h-.36v-1c0-.47-.27-.71-.82-.71h-.29c-.08,0-.12-.07-.12-.23v-.23a.35.35,0,0,0,.12-.24v-.12a1.83,1.83,0,0,1-.23-.58.59.59,0,0,1,.11-.29,6.39,6.39,0,0,1,1.35-1.18l.47-.47.47-.46.76-.53a3.62,3.62,0,0,0,1-.59c.27-.23.56-.51.88-.82l1.23-1a1,1,0,0,0,.35-.3.4.4,0,0,1,.35-.17c.15,0,.23,0,.23-.06s0-.06.12-.06a5.68,5.68,0,0,1,1.38-1.2,8,8,0,0,0,1.37-1.09c.16-.15.26-.23.3-.23a1.18,1.18,0,0,0,.82-.23,1.94,1.94,0,0,1,.58-.59l1.26-1a10.87,10.87,0,0,0,1.26-1.08l1.94-1.47h.23a11.19,11.19,0,0,1,1.82-1.4,2.61,2.61,0,0,1,.52-.41,2.78,2.78,0,0,0,.65-.59l1.82-1.4a6.18,6.18,0,0,1,1.08-.65,2.15,2.15,0,0,0,1-.94,1.81,1.81,0,0,1,.93-.82c.24-.15.45-.31.65-.46a4.48,4.48,0,0,1,.7-.47,9.74,9.74,0,0,0,.88-1,3.06,3.06,0,0,1,1.11-.91,1.53,1.53,0,0,0,.68-.5,5.13,5.13,0,0,1,.79-.73l.41-.41a3.53,3.53,0,0,1,.53-.41l1-1.05a3.85,3.85,0,0,0,.65-.56c.19-.22.37-.4.52-.56l.47-.35a1.9,1.9,0,0,1,.74-.91,3,3,0,0,0,.84-.79l.53-.52c.2-.2.39-.41.59-.65a6.87,6.87,0,0,1,.76-.85,2.88,2.88,0,0,0,.64-.85,2.81,2.81,0,0,0,1-.94,2.38,2.38,0,0,1,1-.87l.35-.24a8.28,8.28,0,0,1,1.58-2l.35-.65a9.36,9.36,0,0,1,1.29-2.16l2.29-3.81c.15-.32.34-.66.55-1a8.59,8.59,0,0,0,.56-1.14,1.74,1.74,0,0,0,.29-.7,1.38,1.38,0,0,1,.3-.65,6.37,6.37,0,0,0,.82-2c.15-.72.31-1.43.47-2.14a5.88,5.88,0,0,0,.23-1.55v-2a3.07,3.07,0,0,0-.12-.88,3.17,3.17,0,0,1-.11-.88l-.12-.24a4.9,4.9,0,0,1-.76-1.37,5.84,5.84,0,0,0-.77-1.44c-.39-.31-.81-.62-1.25-.94s-.88-.58-1.26-.82a4.1,4.1,0,0,1-1.09-.35,2.58,2.58,0,0,0-1.08-.23l-.47-.29a2.82,2.82,0,0,1-.85-.12,2.42,2.42,0,0,0-.73-.12,3.07,3.07,0,0,1-.88-.12,4.42,4.42,0,0,0-1.06-.11.33.33,0,0,0-.23-.12l-.24.12h-.93a4.47,4.47,0,0,1-1-.12,2.15,2.15,0,0,0-.7-.12,2.57,2.57,0,0,1-.82.12,2.43,2.43,0,0,0-.88.12h-1.76a2,2,0,0,1-1,.41,9,9,0,0,1-1.08.06c-.39.07-.79.16-1.2.26a9.84,9.84,0,0,0-1.2.38,19.17,19.17,0,0,1-2.49.7,10.47,10.47,0,0,0-2.2.71,2.44,2.44,0,0,0-1.08.23,2.25,2.25,0,0,1-1,.23,8.31,8.31,0,0,1-1.91.91,9.41,9.41,0,0,0-1.9.91,4.93,4.93,0,0,0-1.26.62,2,2,0,0,1-1.14.38c-.31,0-.49.08-.53.23a4.59,4.59,0,0,1-1.41.82L640.62,309l-1.34.88a.72.72,0,0,1-.47.23l-.94.47a2.7,2.7,0,0,1-1.23.58,5.59,5.59,0,0,1-.76.44,6.65,6.65,0,0,0-.88.56,4.25,4.25,0,0,1-.76.47,10.41,10.41,0,0,0-3.11,1.93,1.47,1.47,0,0,1-.47.35l-.46.24a1.25,1.25,0,0,0-1,.35c0,.16-.16.31-.47.47l-.41.23a3.72,3.72,0,0,1-.41.24,3.77,3.77,0,0,1-1,.55,1.63,1.63,0,0,0-.79.56,3.1,3.1,0,0,1-.88.82l-1.05.59-3.11,2.28c-.46.32-.94.66-1.43,1a9.75,9.75,0,0,1-1.44.91l-1.7,1.58-.87.64a6,6,0,0,0-.77.65,2.79,2.79,0,0,0-.76.58,5.22,5.22,0,0,1-.82.88,13.36,13.36,0,0,0-1.38,1.06c-.44.39-.9.84-1.37,1.34l-1.38,1.18a14.66,14.66,0,0,0-1.26,1.23,2.4,2.4,0,0,0-.61.58,6.56,6.56,0,0,1-.62.71l-1.41,1.7a.6.6,0,0,1-.23.29,2.75,2.75,0,0,0-.41.29,8.57,8.57,0,0,0-.64.73,3.84,3.84,0,0,0-.53,1l-.47.59a3.73,3.73,0,0,0-.62.79c-.17.29-.34.59-.49.91s-.47.64-.71,1a6.5,6.5,0,0,0-.58,1.06l-.35.47a2.46,2.46,0,0,0-.36.82,2.91,2.91,0,0,1-.41.93,1.29,1.29,0,0,0-.11.53.36.36,0,0,0,.23.35,3,3,0,0,1,.32.18.37.37,0,0,0,.21.06,1.74,1.74,0,0,1,1.11.41,1.87,1.87,0,0,0,1.17.41,3.4,3.4,0,0,1,1.88,1,.8.8,0,0,1,.35.71,1.15,1.15,0,0,1-.35.82c0,.07-.06.13-.18.17a.58.58,0,0,0-.29.29c-.08.32-.39.49-.94.53-.31,0-.47,0-.47.12a1.75,1.75,0,0,1-.76.12c-.31,0-.51,0-.58-.12a.24.24,0,0,1-.18-.06.24.24,0,0,0-.18-.06.53.53,0,0,0-.23.06.53.53,0,0,1-.23.06.68.68,0,0,1-.47.12,1.24,1.24,0,0,1-.65-.12h-.7a.46.46,0,0,1-.35-.12l-1.12-.64a2.18,2.18,0,0,1-.82-.41c-.23-.2-.43-.37-.58-.53a1,1,0,0,1-.35-.7v-.24a1.2,1.2,0,0,0-.36-.76,1.46,1.46,0,0,1-.32-.47,3,3,0,0,0-.32-.58.66.66,0,0,1,.12-.47l.88-2.4a2.44,2.44,0,0,1,.41-.36.3.3,0,0,0,.17-.23v-.65a1.25,1.25,0,0,1,.12-.58l.47-1.35c.15-.31.31-.6.47-.88s.33-.6.52-1a5.39,5.39,0,0,1,1.06-1.47,5.61,5.61,0,0,0,.94-1.41,3.08,3.08,0,0,1,.55-.79l.68-.67q.59-.58,1.26-1.2a8.91,8.91,0,0,0,1.26-1.44,17.9,17.9,0,0,1,2.16-2.05l.94-.82a11.24,11.24,0,0,1,1.55-1.67c.57-.49,1.17-1,1.79-1.43l1.11-.88a4.92,4.92,0,0,0,.47-.53.87.87,0,0,1,.71-.29c-.08,0,.06-.16.41-.47l1.64-1.47a2.27,2.27,0,0,0,.53-.46,1,1,0,0,1,.46-.36l.47-.23.88-.67a4.52,4.52,0,0,1,.88-.56l.5-.24a1.24,1.24,0,0,0,.5-.58c0-.16.07-.24.23-.24a.54.54,0,0,0,.41-.17,1.33,1.33,0,0,1,.41-.29c.39-.4.77-.76,1.14-1.09a5.92,5.92,0,0,1,1.26-.85l1.35-.58a9.94,9.94,0,0,1,.76-.68c.28-.21.53-.4.76-.55a7.19,7.19,0,0,0,.74-.3c.25-.11.53-.25.85-.41a.21.21,0,0,0,.23-.23,11.76,11.76,0,0,1,1.32-1.2,6.27,6.27,0,0,1,1.43-.62c.08-.15.14-.23.18-.23s.1,0,.18-.12l.32-.18.32-.17h.24a3.71,3.71,0,0,1,1.4-1l1.58-.94c.24-.15.45-.31.65-.46a1.47,1.47,0,0,1,.94-.24L635,307a1.18,1.18,0,0,1,.64-.61,3.94,3.94,0,0,0,.77-.38,5.44,5.44,0,0,1,1.46-.7l.82-.59a6.8,6.8,0,0,0,.85-.5,1.71,1.71,0,0,1,1-.26l.94-.59c.39-.15.77-.29,1.14-.41a2.54,2.54,0,0,0,1-.64q0-.12.24-.12a1.29,1.29,0,0,0,.73-.18l.73-.46a.79.79,0,0,1,.59-.24,1.29,1.29,0,0,0,.7-.23,3.63,3.63,0,0,1,1.14-.47,3.83,3.83,0,0,0,1.15-.47,1.75,1.75,0,0,1,1.11-.35,2.31,2.31,0,0,0,1.17-.65,1.84,1.84,0,0,0,.47-.06,3.56,3.56,0,0,1,.65-.05,1,1,0,0,1,.35.05.76.76,0,0,0,.35.06c.15-.08.23-.17.23-.29s.08-.18.24-.18l.85-.23a2.77,2.77,0,0,1,.85-.12l.46-.23a3.79,3.79,0,0,1,1.18-.24H657a1.25,1.25,0,0,0,.38,0,.74.74,0,0,1,.27-.06,3.24,3.24,0,0,0,.64-.06,4.85,4.85,0,0,0,.64-.18,2.07,2.07,0,0,1,1.24-.35,1.31,1.31,0,0,0,.41-.06A1.22,1.22,0,0,1,661,297h1.23c0,.08,0,.12.11.12a.11.11,0,0,0,.12-.12,1,1,0,0,1,.59-.11h1.81a4.78,4.78,0,0,0,1.17-.12,2.41,2.41,0,0,0,.94.12h1.12a1,1,0,0,0,.58.11,1.44,1.44,0,0,0,.59-.11,7.4,7.4,0,0,1,1.7.23,2.07,2.07,0,0,0,1,.24,1.54,1.54,0,0,1,1,.35,5.33,5.33,0,0,1,1.79.29c.56.19,1.12.37,1.67.53a.73.73,0,0,0,.47.11,2.19,2.19,0,0,0,1,.47l.71.88,1.05.59.41.35a.78.78,0,0,1,.23.59v.29a.53.53,0,0,0,.18.47,1.83,1.83,0,0,1,.29.23,3.42,3.42,0,0,1,.76.76,2,2,0,0,0,.83.65c.15,0,.23.17.23.52a.39.39,0,0,0,.23.36.68.68,0,0,1,.36.58.54.54,0,0,0,.35.59c.08.39.16.77.23,1.14a6,6,0,0,1,.12,1.26v1.35a.68.68,0,0,0,.12.47.74.74,0,0,1,.46.7,6.75,6.75,0,0,1,0,.91,1.38,1.38,0,0,1-.41.79,1.78,1.78,0,0,0-.24.7.24.24,0,0,0,.06.18.24.24,0,0,1,.06.17.84.84,0,0,0,.06.36.94.94,0,0,1,.06.41,2.18,2.18,0,0,1,.11.82,1.44,1.44,0,0,1-.58,1.17,2.88,2.88,0,0,0-.71,1.81,10.2,10.2,0,0,1-.67,1.73c-.29.61-.56,1.18-.79,1.73l-1.41,2.52a1.36,1.36,0,0,0-.32.67,1.35,1.35,0,0,1-.32.68,8.3,8.3,0,0,0-.82,1.46,6.91,6.91,0,0,0-.82,1,10.09,10.09,0,0,0-.65,1.11c-.31.47-.54.73-.7.76a1.3,1.3,0,0,0-.59.94l-.23.24c-.16,0-.23-.08-.23-.24q-.36,0-.36.24v.11c0,.16-.09.24-.29.24h-.35c-.24,0-.35.17-.35.53v.11l.11.12a.31.31,0,0,1-.23.12.46.46,0,0,1-.06.29.24.24,0,0,0-.06.18.76.76,0,0,1-.23.58c-.24.16-.45.31-.65.47a3.26,3.26,0,0,0-.52.53.86.86,0,0,0-.38.35,3.13,3.13,0,0,1-.38.47l-.12.12-.12.11a2.21,2.21,0,0,0-.59.59,2,2,0,0,1-.58.58,1.73,1.73,0,0,1-.76.53H669a.33.33,0,0,1-.23-.12l-.24-.11a.35.35,0,0,0-.11.23l-.12.24c.16.31.23.43.23.35,0,.31,0,.51-.11.58h-.24a.31.31,0,0,0-.35.35.28.28,0,0,1-.23.3,1,1,0,0,0-.47.29,3.53,3.53,0,0,1-.65.76.62.62,0,0,1-.41.24.69.69,0,0,0-.41.23.33.33,0,0,0-.23.12.48.48,0,0,1-.35.12l-.44.41a3,3,0,0,1-.44.29v.12a.28.28,0,0,0,.23.29.41.41,0,0,0,.3.12,1.26,1.26,0,0,1-.3.11.33.33,0,0,1-.23.12.7.7,0,0,1-.47-.23.51.51,0,0,0-.35.11,3,3,0,0,1-.24.41.81.81,0,0,0-.11.41.58.58,0,0,1-.12.3.53.53,0,0,0-.12.29l-.58.7h-.18c-.16,0-.23-.11-.23-.35v-.35h-.12l-.24.23a.11.11,0,0,0,.12.12V344c0,.15-.12.29-.35.41a2.26,2.26,0,0,0-.76.58,2.38,2.38,0,0,1-.76.59,1.24,1.24,0,0,0-.65.7l-.12.12c-.07,0-.11,0-.11-.12a1.06,1.06,0,0,0-.47-.29.52.52,0,0,1-.35-.3h-.24c-.15.08-.23.16-.23.24s-.08.16-.24.23a.62.62,0,0,0-.29.47h.76a.92.92,0,0,1,.35.27.46.46,0,0,0,.36.14v.12l-.47.7a1.06,1.06,0,0,1-.47.12.94.94,0,0,1-.53-.12c-.08-.15-.31-.23-.7-.23h-.12v.23a.65.65,0,0,0,.24.3c.07,0,.11.13.11.29v.12h-.7a.66.66,0,0,0-.47.23c-.16.08-.23.29-.23.64v.24q0,.12-.36.12c-.62,0-1,.23-1.11.7a.11.11,0,0,1-.12.12h-.35a1.29,1.29,0,0,0-1.05.7c-.16.16-.26.23-.29.23s.09.22.29.41h-.29a.52.52,0,0,0-.42.24,1.06,1.06,0,0,1-.41.35c-.39.16-.7.27-.93.35a1.89,1.89,0,0,0-.76.59,2.89,2.89,0,0,1-.82.7l-1.29.88a1,1,0,0,0-.3.47V356c0,.15,0,.23-.11.23l-.47.24a.76.76,0,0,1-.35-.06.53.53,0,0,0-.24-.06,3.87,3.87,0,0,1-.53.44c-.19.14-.43.28-.7.44v.12a2.47,2.47,0,0,0,.88-.12,4.34,4.34,0,0,1,.88-.35,9.42,9.42,0,0,0,1.05-.41c1.06-.32,2-.57,3-.77s1.9-.37,2.87-.52a.76.76,0,0,0,.35-.06.53.53,0,0,1,.24-.06.21.21,0,0,1,.17.06.5.5,0,0,0,.3.06c.08,0,.11,0,.11.06s0,.05.12.05a2.44,2.44,0,0,0,.65-.23c0-.16.19-.23.58-.23h6a4.13,4.13,0,0,1,1.11.11c0,.08.16.12.47.12a10.53,10.53,0,0,1,2.14.23l2.08.47a10.75,10.75,0,0,0,1.76.59,6.94,6.94,0,0,1,2.05.64.68.68,0,0,1,.47.12l.23.24c.39,0,.65.11.76.35l.12.11c.78.39,1.38.71,1.79.94a9.88,9.88,0,0,1,1.55,1.23,5,5,0,0,1,1,.82c.31.16.46.31.46.47a1.26,1.26,0,0,0,.12.65l1.53,1.4a.75.75,0,0,0,.52.12q.24,0,.24-.12l1.4-.35h.24a2.34,2.34,0,0,1,1.2-.35,6,6,0,0,0,1.2-.12,2.91,2.91,0,0,1,.53-.35H685a.46.46,0,0,0,.35-.12c0-.15.16-.23.47-.23l.82-.41a1,1,0,0,1,.64-.12.11.11,0,0,1,.12-.12q.12,0,.12.06s0,.06.12.06a1,1,0,0,0,.7-.23.11.11,0,0,1,.12-.12h.23a.93.93,0,0,0,.7-.24l.3-.11a3.74,3.74,0,0,0,1.87-.47c.08-.08.29-.12.65-.12h.58a4.39,4.39,0,0,1,2.17-.47,1.15,1.15,0,0,0,.47-.11.33.33,0,0,0,.23-.12q.12,0,.12-.09t.12-.09a10.06,10.06,0,0,0,1.43-.11,8.93,8.93,0,0,1,1.44-.12,10.77,10.77,0,0,1,1.93-.12h.76a2.86,2.86,0,0,1,.82.12,1.62,1.62,0,0,0,.71.12h.82a.69.69,0,0,1,.47.11,3,3,0,0,0,1.11.3.11.11,0,0,1,.12-.12.72.72,0,0,1,.47.23c.23,0,.35,0,.35.12a.46.46,0,0,0,.06.23.69.69,0,0,1,.05.24.46.46,0,0,1-.35.47H706a.54.54,0,0,0-.3.41c0,.19-.14.29-.29.29a3.23,3.23,0,0,0-.41-.18,1.92,1.92,0,0,0-.47-.05h-2.87a3.41,3.41,0,0,0-.94.11,7.57,7.57,0,0,0-1,.06,7.7,7.7,0,0,0-.91.18q-.12,0-.12-.06s0-.06-.12-.06a.27.27,0,0,0-.29.18.88.88,0,0,1-.29.35.64.64,0,0,1-.29-.09.91.91,0,0,0-.41-.09l-2.29.65a.52.52,0,0,0-.41.23c-.16,0-.26,0-.29-.06a.47.47,0,0,0-.3-.06.48.48,0,0,0-.35.12,2,2,0,0,1-.82.12,1.25,1.25,0,0,0-.5.12,1.32,1.32,0,0,1-.49.11,1.06,1.06,0,0,1-.47.12h-.47c-.55,0-.86.16-.94.47l-.12.12c-.07,0-.11,0-.11-.12a.37.37,0,0,1-.21-.06.36.36,0,0,0-.2-.06h-.12v.12c-.16.08-.24.15-.24.23s0,.12-.11.12a1.93,1.93,0,0,0-.71.23.82.82,0,0,1-.46.41c-.08,0-.2-.09-.36-.29a.93.93,0,0,0-.29-.12c-.08,0-.15.18-.23.53a4.79,4.79,0,0,1-.71.47l-.35.35h-.82a.51.51,0,0,1-.5.18.52.52,0,0,0-.49.17l-.12.24-.12-.12a1,1,0,0,0-.47.12l-.23.23c-.47.08-.74.24-.82.47v.18a1.31,1.31,0,0,0,.06.41,1.22,1.22,0,0,1,.06.41,4.37,4.37,0,0,1,.23.58,1.45,1.45,0,0,0,.35.59c0,.16,0,.25.06.29a.35.35,0,0,1,.06.24.53.53,0,0,1-.06.23.53.53,0,0,0-.06.24,1,1,0,0,0-.12.46,1.62,1.62,0,0,0,.12.71v.11a.65.65,0,0,1-.12.47,1.53,1.53,0,0,0-.23,1c.16.08.23.27.23.59v2.05a2.83,2.83,0,0,1-.11.64,2.44,2.44,0,0,0-.12.65,3.73,3.73,0,0,1-.32.67,4.36,4.36,0,0,1-.44.56l-.24.23a1.93,1.93,0,0,1-.35,1.26,3.78,3.78,0,0,0-.58,1,3.83,3.83,0,0,0-.68,1c-.22.41-.4.77-.55,1.09a3.77,3.77,0,0,1-.65,1.05,6,6,0,0,0-.76,1.11,1,1,0,0,0-.67.53l-.44.88a.11.11,0,0,1-.12.12c-.24,0-.37.08-.41.23a3.2,3.2,0,0,1-.29.65l-.24.11-.35.47c-.16.24-.31.45-.47.65a2.27,2.27,0,0,1-.64.52.71.71,0,0,0-.47.47,4.31,4.31,0,0,1-.82,1.23,2.59,2.59,0,0,1-1,.94h-.12a.85.85,0,0,1-.52.73,1.83,1.83,0,0,0-.65.38,2.89,2.89,0,0,1-.58.82c-.24.24-.53.51-.88.82a.92.92,0,0,0-.35.27,1,1,0,0,1-.36.26l-.46.24a1.16,1.16,0,0,0-.47.47c0,.23-.16.35-.47.35a.7.7,0,0,0-.44.17,2.14,2.14,0,0,1-.44.3,2.36,2.36,0,0,1-.65.79l-.87.67q0,.12-.18.12a.46.46,0,0,1-.35-.12c-.16,0-.28.12-.35.35-.16.39-.35.63-.59.7l-1.46,1.12a.11.11,0,0,1-.12.12h-.35c0-.08-.16.11-.47.58a6.3,6.3,0,0,1-.53.47,2.1,2.1,0,0,1-.94.35c0,.08-.11.12-.35.12a4.75,4.75,0,0,1-1.4,1.11,10.94,10.94,0,0,0-1.59,1.17,1.22,1.22,0,0,0-.41.38.48.48,0,0,1-.41.27,3.84,3.84,0,0,0-1.93.94.7.7,0,0,1-.47.23.7.7,0,0,0-.47.23,3.14,3.14,0,0,1-1,.71,3.69,3.69,0,0,0-1,.64,3.85,3.85,0,0,1-2.17,1.06,6.75,6.75,0,0,1-2,1.05l-3.92,2.05a2.94,2.94,0,0,1-.91.3,1.21,1.21,0,0,0-.79.46,1.55,1.55,0,0,0-1.23.47.48.48,0,0,1-.47.24.7.7,0,0,0-.47.23,1.37,1.37,0,0,1-.94.47,1.34,1.34,0,0,1-1,.35.91.91,0,0,0-.59.12.37.37,0,0,1-.35.23,1,1,0,0,1-.47.12.83.83,0,0,0-.53.29.18.18,0,0,0-.17.12.19.19,0,0,1-.18.12c-.31,0-.51,0-.58.12-.24.23-.4.35-.47.35a7,7,0,0,0-.74.29,4.45,4.45,0,0,1-.85.29,2.45,2.45,0,0,0-.64.12,2.72,2.72,0,0,1-.76.12h-.24c-.31.15-.57.27-.79.35a2.26,2.26,0,0,1-.79.12,1.75,1.75,0,0,0-.7.14,1.94,1.94,0,0,1-.76.15,4.8,4.8,0,0,1-.59.17,1.89,1.89,0,0,1-.47.06.37.37,0,0,1-.35.24A.37.37,0,0,0,625,417a2.67,2.67,0,0,0-.65.24,3.71,3.71,0,0,0-.93.12.75.75,0,0,1-.47.11.73.73,0,0,1-.47-.11.46.46,0,0,1-.23-.06.67.67,0,0,0-.3-.06h-.23a1.29,1.29,0,0,1-.59-.12,2,2,0,0,1-.47-.35,1.23,1.23,0,0,0-.7-.88,1,1,0,0,1-.41-.23,1.63,1.63,0,0,0-.47-1.18,1.34,1.34,0,0,1-.35-1,2.29,2.29,0,0,1,.35-1.17,1.46,1.46,0,0,0,.35-.68,2.21,2.21,0,0,1,.41-.79,2.87,2.87,0,0,0,.47-.64,1.45,1.45,0,0,0,.24-.65.81.81,0,0,1,.35-.64,2.2,2.2,0,0,0,.41-.65,4.28,4.28,0,0,1,.41-.76,4,4,0,0,1,.76-1.46l.59-.82a8.59,8.59,0,0,0,.46-.82.37.37,0,0,0,.24-.33.44.44,0,0,1,.12-.32,4.75,4.75,0,0,0,1.11-1.4c.23-.32.43-.6.58-.85a9.54,9.54,0,0,0,.47-.85,2.63,2.63,0,0,0,.3-.53c0-.12.17-.22.41-.29s.23,0,.23-.12.06-.16.18-.24a2.62,2.62,0,0,0,.7-1l.59-.47,1.23-1.35c.31-.31.5-.47.58-.47s.12,0,.12.06,0,.06.12.06l.11-.12c0,.08.08-.11.24-.58.15-.16.27-.24.35-.24s.12,0,.12.06,0,.06.11.06.24,0,.24-.12v-.35c0-.23.08-.35.23-.35l1.59-1.47a3.85,3.85,0,0,1,.84-.82l1.09-.76a4,4,0,0,0,1.17-1.17,4.74,4.74,0,0,1,.79-.82c.29-.23.6-.49.91-.76l.12-.12c.31-.23.59-.47.85-.7a3,3,0,0,1,1-.59c.39-.39.67-.58.82-.58h.24c.23,0,.35-.18.35-.53s.18-.35.53-.35a1.15,1.15,0,0,1,.52-.47c.2-.08.34-.31.41-.7a1.82,1.82,0,0,0,1-.56,2.73,2.73,0,0,1,1.06-.68l.46-.35h.71v-.82a.1.1,0,0,1,.11-.11.37.37,0,0,0,.24.11q.12,0,.12.06s0,.06.11.06.12.08.12,0,.14-.12.18-.12a.2.2,0,0,0-.09-.17.2.2,0,0,1-.09-.18c0-.23.14-.37.41-.41s.37,0,.41-.12a2.4,2.4,0,0,1,.29-.35,2.49,2.49,0,0,1,1.29-1.05,2.74,2.74,0,0,0,.68-.35,2.43,2.43,0,0,1,.67-.36.4.4,0,0,0,.23-.41c.08-.31.2-.46.36-.46s.11,0,.11.05,0,.06.12.06h.24a.34.34,0,0,0,.32-.17c.06-.12.12-.14.2-.06l.47.35.12.12a.11.11,0,0,0,.12-.12c.07,0,.11,0,.11-.12v-.11a1.93,1.93,0,0,0-.23-.71.77.77,0,0,0,.7-.35,6,6,0,0,0,.91-.85,2.71,2.71,0,0,1,1-.73c.32,0,.47-.12.47-.35s.28-.24.59-.24a2.82,2.82,0,0,0,.76-.35,1.54,1.54,0,0,1,1.29-1c.16-.16.27-.24.35-.24h.24c.15,0,.23,0,.23-.12s.1-.19.29-.35h.24a.35.35,0,0,0-.12.24v.11q0,.12.24.12h.11l.24-.47a.51.51,0,0,0,.11-.35.37.37,0,0,1,.24-.35.17.17,0,0,0,.17-.12.64.64,0,0,1,.3-.23l.67-.44a2.47,2.47,0,0,1,.79-.32,5.38,5.38,0,0,0,.71-.3,5.76,5.76,0,0,0,.7-.41l.64-.47c.08,0,.12,0,.12-.05s0-.06.12-.06c.62,0,1-.16,1.17-.47a1.76,1.76,0,0,1,.61-.38,1.87,1.87,0,0,0,.62-.38,1.11,1.11,0,0,1,.82-.36h.23a6.65,6.65,0,0,1,.74-.41,4.83,4.83,0,0,0,.73-.41.46.46,0,0,0,.23-.05.53.53,0,0,1,.24-.06.21.21,0,0,1,.23-.24h.12a1.24,1.24,0,0,1,1-.47,6.12,6.12,0,0,0,1.47-.52l2.52-1.29a.31.31,0,0,0,.35-.35l-.82-1a3.18,3.18,0,0,0-1-.79,5.16,5.16,0,0,1-1.11-.91,3.21,3.21,0,0,0-1.11-.79,3.28,3.28,0,0,0-1.7-.59,3.69,3.69,0,0,0-1.5-.58,9,9,0,0,1-1.72-.47q-.12,0-.12-.06s-.06-.06-.18-.06l-2.75-.23h-.47a3.24,3.24,0,0,0-1.29-.29h-.64A21.79,21.79,0,0,0,657.56,359.43Zm-16.64-42.07a3.52,3.52,0,0,1,.76.17l.35.24a3.2,3.2,0,0,0,.26.58,2.72,2.72,0,0,1,.27.59v.64a1,1,0,0,0-.29.59,3.56,3.56,0,0,0-.06.58,3.63,3.63,0,0,1-.09.85,3.76,3.76,0,0,0-.09.85l-.12.12v.12c-.31.08-.48.21-.52.41a2.59,2.59,0,0,0-.06.52,7.73,7.73,0,0,1-.59,1.59,6,6,0,0,1-.29.88,2.27,2.27,0,0,0-.18.93c-.08.39-.15.75-.23,1.06a9.9,9.9,0,0,1-.35,1.05,7.38,7.38,0,0,1-.88,1.7l-.35,1.23a2.64,2.64,0,0,1-.59,1.17.47.47,0,0,0-.23.47v1.47a.56.56,0,0,1-.12.29,2.6,2.6,0,0,0-.23.41,1,1,0,0,0-.27.35,2.26,2.26,0,0,1-.14.35q-.24.71-.42,1.44a7.36,7.36,0,0,0-.17,1.61,1.45,1.45,0,0,0-.35.59,3.27,3.27,0,0,1-.35.7q0,.12-.06.12s-.06,0-.06.11v.24a2.08,2.08,0,0,1-.24,1,4.61,4.61,0,0,0-.35.91,5.83,5.83,0,0,0-.64,2.29,1.06,1.06,0,0,1-.12.47,1,1,0,0,0-.12.47.85.85,0,0,1-.17.49,2.22,2.22,0,0,0-.29.62,1.57,1.57,0,0,1-.36.94,1.87,1.87,0,0,0-.23.76,3.85,3.85,0,0,1-.24.94,2.14,2.14,0,0,0-.11.82c0,.15,0,.25-.12.29a.19.19,0,0,0-.12.17,2.36,2.36,0,0,0-.32.8,3.49,3.49,0,0,1-.32.9,19.75,19.75,0,0,1-1.06,3.11,4.27,4.27,0,0,1,0,.56,3.05,3.05,0,0,0-.06.55,11.74,11.74,0,0,1-.35,1.73c-.16.53-.32,1.07-.47,1.61a2.6,2.6,0,0,0-.41.47,7.41,7.41,0,0,1-.24,1.7c-.15.47-.31.95-.47,1.44a11,11,0,0,0-.35,1.43.66.66,0,0,1-.12.47.66.66,0,0,0-.35.53.8.8,0,0,1-.23.58.69.69,0,0,0-.24.47V369a.34.34,0,0,1-.14.32.34.34,0,0,0-.15.32V370a.21.21,0,0,1-.23.24,4.13,4.13,0,0,0-.35.88l-.24.82v.23a1.89,1.89,0,0,1-.06.47,1.89,1.89,0,0,0-.06.47,1.67,1.67,0,0,1-.11.53,1.38,1.38,0,0,0-.12.52c-.08.16-.16.31-.24.44a1,1,0,0,0-.11.44v.24a3.56,3.56,0,0,1-.06.58,3.66,3.66,0,0,0-.06.59,4.71,4.71,0,0,1-.12,1.23,5.44,5.44,0,0,0-.47,1.81v.36a.33.33,0,0,1-.11.23,2.23,2.23,0,0,0-.44,1,2.92,2.92,0,0,1-.32.93,2.39,2.39,0,0,0-.12.77,1.34,1.34,0,0,1-.24.76l.36.35v.23c-.24.16-.36.3-.36.41s.08.2.24.36a.24.24,0,0,0,.06.17.46.46,0,0,1,.06.29.84.84,0,0,1-.06.36.46.46,0,0,0-.06.23l-.59,1.58a3.9,3.9,0,0,0-.23,1.06v.23c0,.24-.08.35-.24.35a2,2,0,0,0-.23.65.49.49,0,0,0,.06.23.82.82,0,0,1,.06.35v.94c0,.16,0,.25.06.29a.78.78,0,0,1,0,.36.52.52,0,0,1-.11.35.48.48,0,0,0-.18.47.62.62,0,0,1-.06.46c-.15.55-.28,1.07-.38,1.56s-.18,1-.26,1.43v.24a4.11,4.11,0,0,1-.06.61,4.22,4.22,0,0,0-.06.62v1a1.14,1.14,0,0,1-.23.71.29.29,0,0,0,.05.17.47.47,0,0,1,.06.3.53.53,0,0,0,.06.23.82.82,0,0,1,.06.35v.12a1.06,1.06,0,0,1-.12.47,1.12,1.12,0,0,0-.11.47,4.53,4.53,0,0,0,.05.73,6.27,6.27,0,0,0,.18.61.68.68,0,0,1-.23.47c-.16.16-.24.28-.24.35a1.19,1.19,0,0,0,.35.65.11.11,0,0,1,.12.12v.35c0,.54-.16.9-.47,1.05a1.78,1.78,0,0,1-.7.24,1.73,1.73,0,0,1-.7-.24c-.24-.23-.34-.35-.3-.35a.75.75,0,0,1-.7-.82v-.76l-.12-.24a.45.45,0,0,1-.35-.46.24.24,0,0,1,.06-.18.24.24,0,0,0,.06-.18,1.22,1.22,0,0,0,.23-.64.94.94,0,0,1,.24-.59.71.71,0,0,0,.11-.47v-3.22l.12-.23c0-.08-.16-.12-.47-.12h-.11c-.24,0-.36-.16-.36-.47A.31.31,0,0,0,618,397a.35.35,0,0,0-.24.12h-.11l-.12-.12c0-.23.16-.44.47-.64a.11.11,0,0,0,.12-.12A.33.33,0,0,0,618,396c-.24,0-.35,0-.35-.12a1.28,1.28,0,0,1-.12-.58.35.35,0,0,1,.12-.24.46.46,0,0,0,.11-.35q.12,0,.12-.24a.59.59,0,0,0-.12-.29V393a2.53,2.53,0,0,1,.12-.82,2.75,2.75,0,0,0,.12-.88V391a3.31,3.31,0,0,1,.12-.82,5.08,5.08,0,0,0,.11-1.11,2.94,2.94,0,0,0,.18-1.35,3.27,3.27,0,0,1,.18-1.41,3.83,3.83,0,0,0,.23-1.38,6.14,6.14,0,0,1,.23-1.61V383a6,6,0,0,1,.3-1,2.52,2.52,0,0,0,.17-.9,6,6,0,0,1,.06-.88,6.19,6.19,0,0,0,.06-.88,4.46,4.46,0,0,1,.53-1.58.69.69,0,0,0,.11-.47v-.65a1.25,1.25,0,0,1,.12-.58,1.81,1.81,0,0,0,.24-.71,2.56,2.56,0,0,1,.46-1.7.24.24,0,0,1,.06-.17.24.24,0,0,0,.06-.18.49.49,0,0,0-.06-.23.53.53,0,0,1-.06-.24v-.35a2.47,2.47,0,0,1,.12-.88.77.77,0,0,0,.24-.58c0-.55.11-.9.35-1.06a.48.48,0,0,1,.12-.35,8.3,8.3,0,0,1,.64-3.16,7.3,7.3,0,0,1,.06-.94,1.83,1.83,0,0,1,.29-.82c.08-.08.12-.29.12-.65v-.35a.39.39,0,0,1,.23-.35.33.33,0,0,0,.12-.23v-.24a3.93,3.93,0,0,1,.29-1.43,3.54,3.54,0,0,0,.3-1.32,1.3,1.3,0,0,1,.11-.59c.08-.15.16-.33.24-.52a.37.37,0,0,1,.11-.24.11.11,0,0,1,.12-.12v-.35a5.06,5.06,0,0,1,.32-1.78c.22-.57.4-1.13.56-1.67a3.58,3.58,0,0,1,.35-1.47,2.85,2.85,0,0,0,.35-1.29,1.23,1.23,0,0,1,.06-.32,1.23,1.23,0,0,0,.06-.32,4.62,4.62,0,0,0,.18-.71,1,1,0,0,1,.29-.58.66.66,0,0,1,.12-.47,1.91,1.91,0,0,1,.32-.73,1,1,0,0,0,.2-.62l.36-1.17.23-1.35.82-2.05a4,4,0,0,0,.47-1.76,7.41,7.41,0,0,1,.32-1.14c.14-.37.28-.75.44-1.14l.24-.53a1.9,1.9,0,0,0,.29-.7c0-.24.1-.51.17-.82a8.74,8.74,0,0,0,.53-1.67,8.24,8.24,0,0,1,.65-1.85,1.49,1.49,0,0,0,.23-.82,2.46,2.46,0,0,1,.29-1.05.48.48,0,0,0,.24-.47,3.08,3.08,0,0,0,.35-1.35,1.92,1.92,0,0,1,.12-.59l.7-2.28a.71.71,0,0,1,.12-.41.66.66,0,0,0,.11-.29,2.14,2.14,0,0,1,.47-1.47v-.35a2,2,0,0,1,.32-1.08,1.79,1.79,0,0,0,.33-1,1.94,1.94,0,0,1,.17-.65,1.76,1.76,0,0,0,.18-.7l1-2.64a1.49,1.49,0,0,0,.3-.35,1.36,1.36,0,0,1,.35-.35,1.45,1.45,0,0,1,1.52-.94,3.63,3.63,0,0,0,1-.11.47.47,0,0,1,.47-.24A1.74,1.74,0,0,0,640.92,317.36Zm-23,81.15c.16-.16.23-.28.23-.35h.24c0,.07,0,.11.12.11v.12a1,1,0,0,0-.12.47,2,2,0,0,0,.12.76.53.53,0,0,1-.06.24.46.46,0,0,0-.06.23l-.24.12-.11.11c-.08,0-.12-.07-.12-.23Zm.94-3h-.12c-.08,0-.12.12-.12.35a.11.11,0,0,1,.12.12A.68.68,0,0,0,618.89,395.52Zm.11-1.7.12.12v-.24A.11.11,0,0,0,619,393.82Zm.12-1.41.24.12c.07,0,.11,0,.11-.12a.45.45,0,0,0,.12-.35c0-.15,0-.23-.12-.23h-.11l-.24.23v.35Zm.76-3.86a.35.35,0,0,0,.12.23l.12-.12.11-.23-.23-.23-.12.11Zm.71-4.16-.36,1.64-.11.11c0,.08,0,.12.11.12a.35.35,0,0,0,.12.24.21.21,0,0,0,.24-.24v-.53a3.2,3.2,0,0,1,.11-.76v-.35C620.7,384.46,620.66,384.39,620.59,384.39Zm.46-2.17a.81.81,0,0,1,0,.35.82.82,0,0,0-.06.35c0,.16,0,.24.11.24v.11a1,1,0,0,0,.12-.47A1.28,1.28,0,0,0,621.05,382.22Zm17.58,27,.53-.26a.75.75,0,0,0,.18-.3.56.56,0,0,1,.35-.29,3.2,3.2,0,0,0,.82-.58,4.57,4.57,0,0,1,.7-.59.68.68,0,0,1,.47-.12,3.62,3.62,0,0,1,.79-.38,1.64,1.64,0,0,0,.67-.38,5.08,5.08,0,0,1,1.94-.94l.58-.17a.56.56,0,0,0,.36-.41l1.34-.47c.16,0,.32-.14.47-.41l.59-.35a5.09,5.09,0,0,1,.7-.41l.76-.41q.12-.24.24-.24a.35.35,0,0,0,.23-.11,1.28,1.28,0,0,0,.94-.59l.47-.41a4.46,4.46,0,0,0,1.7-.82l.58-.29a4.22,4.22,0,0,0,.65-.41A4.61,4.61,0,0,0,656,399a6.59,6.59,0,0,1,1.26-1,11.74,11.74,0,0,0,1.26-.88c.46-.31.94-.61,1.43-.91a6.64,6.64,0,0,0,1.32-1q.59-.59,1.2-1.14a14.21,14.21,0,0,1,1.44-1.15l1.7-1.58c.07,0,.13-.06.17-.18a.58.58,0,0,1,.29-.29l2.29-2.05L670,387l.47-.41a3.2,3.2,0,0,1,.58-.82,6.65,6.65,0,0,0,.71-.82l.61-.61a3.37,3.37,0,0,0,.62-.85,6,6,0,0,1,.58-.94c.24-.31.47-.61.71-.88a4.42,4.42,0,0,0,.61-.76c.18-.27.38-.61.62-1,.15-.23.31-.49.47-.79a5.67,5.67,0,0,0,.35-.79l1.34-2.28a1.16,1.16,0,0,1,.18-.71,1.77,1.77,0,0,0,.29-.7,6.37,6.37,0,0,0,.36-1.2,5.68,5.68,0,0,1,.35-1.2v-2.05a2.23,2.23,0,0,0-.12-.79c-.08-.22-.16-.44-.23-.68s-.24-.47-.47-.47l-.36.35a9,9,0,0,1-1.69.12.63.63,0,0,0-.71.47.66.66,0,0,1-.55.21c-.22,0-.33.12-.33.44a.1.1,0,0,0-.11.11,7.3,7.3,0,0,0-1.85.76,10.76,10.76,0,0,1-1.85.88,3.38,3.38,0,0,0-1.69.88l-.24.12q-.12,0-.12-.06s0-.06-.11-.06h-.35c-.08.31-.22.49-.41.53a1,1,0,0,0-.53.29,1.34,1.34,0,0,1-1,.35h-.35a.63.63,0,0,0-.7.47.94.94,0,0,1-.24.18,1.27,1.27,0,0,1-.88.23h-.35c-.16,0-.25,0-.29.06a.24.24,0,0,1-.18.06.21.21,0,0,0-.23.23.11.11,0,0,0,.12.12l.11.24-.58.35q-.95.7-1.44,1a12.83,12.83,0,0,1-2,.91H659a1.33,1.33,0,0,1-.29.41.56.56,0,0,0-.17.41,1.11,1.11,0,0,1-.82.35.28.28,0,0,0-.3.18,1.38,1.38,0,0,1-.35.47,3.61,3.61,0,0,0-.64.53,1.06,1.06,0,0,1-.77.29c-.15,0-.23,0-.23.06s0,.06-.12.06c-.07.31-.19.46-.35.46l-.23.24a.19.19,0,0,1-.18-.12h-.12l-.23.24c0,.07,0,.11-.06.11s-.06,0-.06.12v.12a4.13,4.13,0,0,1-.93.23c0-.15,0-.23-.12-.23a.33.33,0,0,0-.12.23,2,2,0,0,1-1,1.23l-.59.59a1.15,1.15,0,0,1-.82.35c-.08,0-.2.08-.35.23a2.43,2.43,0,0,1-.76.65,6.4,6.4,0,0,1-1.53,1.29,3.4,3.4,0,0,0-1,.58,1.71,1.71,0,0,1-.36.3l-.11-.12h-.24c-.08,0-.11,0-.11.12s-.2.35-.59.35c-.16,0-.31.23-.47.7l-.53.59a3.54,3.54,0,0,0-1,.85,2.92,2.92,0,0,1-.88.73,1.48,1.48,0,0,1-.56.35,1.57,1.57,0,0,0-.55.35,5.5,5.5,0,0,1-.47.41.68.68,0,0,0-.24.59.86.86,0,0,1-.53.41,1,1,0,0,0-.52.29l-.18.12-.7.82-1.06.85a7,7,0,0,0-.87.85,8.23,8.23,0,0,1-.94,1,10.42,10.42,0,0,0-.94.94,1.25,1.25,0,0,1-1,.59c0,.15,0,.25-.11.29a.19.19,0,0,0-.12.18,6.24,6.24,0,0,1-.94,1.23,8.18,8.18,0,0,1-1.26,1.4,9.06,9.06,0,0,0-1.26,1.35l-.23.24-.35.35c-.24.31-.5.62-.79.93a5.62,5.62,0,0,0-.8,1.12.39.39,0,0,0-.35.23.87.87,0,0,0-.11.35,4.32,4.32,0,0,1-.88,1.29c-.32,0-.47.18-.47.53a1.77,1.77,0,0,1-.29.41,1.32,1.32,0,0,0-.3.53l-.12.11-.11.12c-.16.08-.24.31-.24.7a.87.87,0,0,1-.17.56c-.12.14-.26.28-.41.44a.51.51,0,0,0-.56.41c-.06.27-.13.53-.2.76a2.2,2.2,0,0,1-.82,1.82v.35a.3.3,0,0,0,.11.23.24.24,0,0,1,.18.06.24.24,0,0,0,.17.06H625a1.27,1.27,0,0,0,.41-.06,1.27,1.27,0,0,1,.41-.06,3.94,3.94,0,0,1,1.58-.23.71.71,0,0,1,.53-.23,1.18,1.18,0,0,0,.53-.12.65.65,0,0,1,.46-.24,1.39,1.39,0,0,0,.74-.23c.25-.16.5-.31.73-.47a1.6,1.6,0,0,1,.7-.12,1.28,1.28,0,0,0,.94-.52l1-.47.23-.12.24.35.11.12q.12,0,.12-.06s.08-.06.23-.06v-.11c0-.4.16-.59.47-.59l1.35-.7a.79.79,0,0,1,.29-.18,1.15,1.15,0,0,0,.41-.29,1.87,1.87,0,0,0,.88-.3.52.52,0,0,1,.35-.11,1.72,1.72,0,0,0,.24.41A1.37,1.37,0,0,0,638.63,409.2ZM633,394.35l.12.11v-.29Zm3,15.94v.23h.23l.12-.23Zm1.23-.47a2.27,2.27,0,0,0-.5.06c-.18,0-.3.17-.38.41A1.52,1.52,0,0,0,637.17,409.82Zm0,0a1.89,1.89,0,0,0,.47-.06.57.57,0,0,0,.35-.41C637.52,409.35,637.25,409.5,637.17,409.82Zm1.29-.88-.12-.12v-.23h.23a.35.35,0,0,1,.24-.12c.15,0,.27.15.35.47Zm3.51-1.53s-.06,0-.06.12l-.11.12h.41c.08,0,.11,0,.11-.12v-.12l-.29-.11C642,407.38,642,407.41,642,407.41Zm4.16-2a.49.49,0,0,1-.23.06l-.12.12.12.11a.42.42,0,0,1,.29-.11c.12,0,.22-.08.29-.24A.82.82,0,0,0,646.13,405.42Zm.47-.06c0-.07,0-.11.12-.11h-.24v.11Zm9.38-2.52.11.12v-.12Zm2-59.06a.33.33,0,0,0,.23-.12,4.12,4.12,0,0,0,.65-.52,2.64,2.64,0,0,1,.82-.53.7.7,0,0,0,.23-.47c0-.16.12-.27.35-.35a1.9,1.9,0,0,0,.76-.67,2,2,0,0,1,.77-.68,1.27,1.27,0,0,1,.49-.47,1.52,1.52,0,0,0,.5-.35v-.12c-.08,0-.12,0-.12-.11l-.11-.18c0,.08-.22.22-.65.41a1.11,1.11,0,0,1-.23.35l-.35.35a2.73,2.73,0,0,0-.94.94,2.69,2.69,0,0,0-1.23.88,1.45,1.45,0,0,1-.7.7l-.47.71-.24.11Zm4.22-.58.11.11.12-.11h-.12V343Zm1-4.22h.12a.35.35,0,0,0,.12-.24h-.24Zm.7,3.51a.31.31,0,0,1-.23.12v-.12c.08,0,.12,0,.12-.11Z" transform="translate(-463.61 -295.21)" style="fill:#333"/><path d="M724.47,373.31q0,.24.18.24c.12,0,.14,0,.06.11l-.47.77a.73.73,0,0,1-.35-.15.82.82,0,0,0-.35-.15l.23.53-.47.23-.53-.11.24.23-.24.12-.23.47-.24.35a.49.49,0,0,0,.41-.24,2.94,2.94,0,0,1,.47-.46.81.81,0,0,1,.59-.24,1.11,1.11,0,0,0,.23-.35.38.38,0,0,1,.36-.23l.11.11.12.24h-.12c0,.08,0,.11.12.11l.12.12-.47.35v.12l-.24.59a.33.33,0,0,1-.23.11c-.23.24-.35.32-.35.24a.87.87,0,0,1-.44.17c-.22,0-.32.12-.32.24l.23.47v.11c-.39.16-.59.28-.59.36l-.11.11a.35.35,0,0,1-.24.12.94.94,0,0,0-.35.12,3.73,3.73,0,0,0-.82,1.05,1,1,0,0,1-.67.27,1,1,0,0,0-.68.26l-.11.12.11.11.24.24.12-.12h.35q-.12.24-.24.24c-.08,0-.19.07-.35.23q-.12,0-.12.06s0,.06-.11.06L719,381v.12a.64.64,0,0,1-.41.23,1,1,0,0,0-.41.12v.11a3.49,3.49,0,0,1-.87,1,2.92,2.92,0,0,0-.82.59c0,.07,0,.11-.12.11h-.12a.26.26,0,0,0-.29.18c0,.12-.16.17-.35.17q-.24.24-.36.24c-.15.16-.23.28-.23.38s-.08.15-.23.15a2.89,2.89,0,0,0-.82.58,1.84,1.84,0,0,1-1,.47.67.67,0,0,1-.47.24V386c-.08.15-.16.23-.23.23H712a3.83,3.83,0,0,1-.91.44l-1.67.68-1.61.64a4.88,4.88,0,0,1-.85.29h-.35q-.12,0-.12.06s0,.06-.11.06h-.12c0,.08-.19.16-.56.23l-1.2.24a11.9,11.9,0,0,1-1.2.17l-.67.06a3.66,3.66,0,0,1-.82-.17l-1.26-.41c-.45-.16-.85-.32-1.2-.47s-.53-.31-.53-.47a.87.87,0,0,1-.41-.47c0-.16-.39-.33-1.06-.53-.07-.15-.15-.35-.23-.58q-.12-.12-.12-.18a.31.31,0,0,0-.11-.17.35.35,0,0,1-.12-.24.82.82,0,0,1-.59-.23c-.15-.16-.23-.28-.23-.35-.24-.32-.46-.64-.68-1a2,2,0,0,1-.32-1.09c-.31-.15-.47-.31-.47-.46a2.2,2.2,0,0,0-.06-.5,3,3,0,0,1,0-.5v-.23a.3.3,0,0,1,0-.18.24.24,0,0,0,.06-.18,1.59,1.59,0,0,1-.11-.7c0-.23,0-.35.11-.35a.78.78,0,0,0,.12-.53.22.22,0,0,0-.06-.17.24.24,0,0,1-.06-.18v-.12l.35-.7h.12l-.12-.12a.1.1,0,0,1-.11-.11h.11l.12-.12a.66.66,0,0,1,.12-.47v-.12c0-.08,0-.11-.06-.11s-.06,0-.06-.12l.12-.18v-.47a.72.72,0,0,1,.23-.47.94.94,0,0,1,.24-.7.63.63,0,0,0,.41-.58v-.12a3.19,3.19,0,0,1,.47-.88v-.23q0-.12-.06-.12s-.06,0-.06-.12l.12-.12c0-.07,0-.11.05-.11s.06,0,.06-.12v-.12c.16-.15.24-.27.24-.35a1.26,1.26,0,0,0,.29-.73,2,2,0,0,1,.29-.85.77.77,0,0,1,.47-.59.68.68,0,0,1,.12-.47v-.41a1.39,1.39,0,0,0,.29-.35.46.46,0,0,0,.12-.35.35.35,0,0,0,.12-.23c0-.24.08-.36.23-.36l.24-.23.35-1.11v-.24l.11-.11a.32.32,0,0,0,.36-.36c0-.31.11-.46.35-.46a2.28,2.28,0,0,0,.23-.59v-.24a.56.56,0,0,1,.41-.52l.12-.12q.12-.12.12-.18a.4.4,0,0,1,.11-.17v-.24a1.25,1.25,0,0,0,.12-.58l.12-.12a.21.21,0,0,0,.23-.23l.47-.65h.12v-.23l.23-.24c.16,0,.24-.07.24-.23v-.47a.69.69,0,0,1,.52-.23h.24c.16,0,.23-.08.23-.24v-.12l.24-.23.23-.23V359q0-.36.24-.36a1.39,1.39,0,0,0,.58-.11l.47-.24c.24-.15.46-.31.67-.47a2.45,2.45,0,0,1,.8-.35.1.1,0,0,0,.11-.11.56.56,0,0,0,.47-.59,1.93,1.93,0,0,0,.76-.29.55.55,0,0,1,.59-.36.31.31,0,0,0,.12-.23v-.23l.11.11.12.12a1.09,1.09,0,0,0,.65.29,2.15,2.15,0,0,1,.64.18,7.93,7.93,0,0,1,1.35.23l.12.3a.45.45,0,0,1,.46.23.66.66,0,0,1,.47.12l.41.47a.72.72,0,0,0,.47.23.94.94,0,0,0,.24.18.67.67,0,0,1,.23.29c0,.39.12.62.35.7s.2.1.35.3v.11q0,.12.06.12s.06,0,.06.12a.33.33,0,0,0,.12.23v.35a.73.73,0,0,0,.11.47v.24c0,.07,0,.11.06.11s.06,0,.06.12v.12q0,.12-.06.12s-.06,0-.06.11v.53l-.11.23v.47a.21.21,0,0,1,.23.24l-.23.23c.08,0,0,.16-.35.47v.12l-.24.76a.33.33,0,0,0-.23.12v.35a.22.22,0,0,1-.06.17.24.24,0,0,0-.06.18l-.23.23a.35.35,0,0,0-.12.24c0,.08-.08.19-.24.35l-.23.53a.33.33,0,0,1-.12.23l-.17.12c-.16.23-.32.45-.47.64a1.85,1.85,0,0,0-.35.76,2.21,2.21,0,0,1-.82,1.12l-.59.94c-.16.15-.3.29-.44.41a5.24,5.24,0,0,0-.44.41h-.12c-.15,0-.23.13-.23.41,0,.07,0,.11-.12.11a3.68,3.68,0,0,0-.76.77,2,2,0,0,1-.82.64.66.66,0,0,0-.23.47h-.12a4.74,4.74,0,0,0-.53.38c-.12.1-.29.22-.53.38v.23c-.15.24-.31.36-.46.36a.77.77,0,0,1-.53.23,1.86,1.86,0,0,1-.94.47c-.08.16-.17.23-.29.23a.9.9,0,0,0-.41.12h-.71c0,.08,0,.1-.08.06s-.13,0-.21.18a.35.35,0,0,1-.23.11h-.47c0-.08-.08-.11-.24-.11,0-.08,0-.12-.11-.12l-.12.12a1.28,1.28,0,0,0-.47.76v.47c-.08,0-.12.07-.12.23s0,.23-.05.23-.06,0-.06.12a.79.79,0,0,0-.24.59l-.29.23v.53c0,.16,0,.25.06.29a.24.24,0,0,1,.06.18.49.49,0,0,1-.06.23.53.53,0,0,0-.06.24.25.25,0,0,0-.06.29q.06.18-.18.18v2.16a1.62,1.62,0,0,0,.12.71l-.12.11a1.86,1.86,0,0,1,.24.65v.12c0,.07,0,.11.06.11s.06,0,.06.12.18.08.32.23.24.24.32.24a3.54,3.54,0,0,0,.94.82.82.82,0,0,1,.35.06.53.53,0,0,0,.23.06H703a6.5,6.5,0,0,0,1.46-.59l.12-.12H705a.46.46,0,0,0,.23-.06.69.69,0,0,1,.24-.05h.17l.12-.12.24.12v-.12c0-.08,0-.12.11-.12h.24a.48.48,0,0,0,.35-.12h.12c.15-.15.27-.23.35-.23h.23a2.13,2.13,0,0,1,.5-.18.93.93,0,0,0,.5-.29,2.64,2.64,0,0,0,.58-.26l.47-.27.24-.11c.15,0,.39-.16.7-.47h.29l1.18-.82c.15-.31.31-.47.46-.47a2.39,2.39,0,0,0,1-.76l.23-.12a.54.54,0,0,0,.41-.18.52.52,0,0,1,.3-.17c.23-.16.45-.31.64-.47s.41-.31.65-.47l.17-.12.24-.23c.07,0,.11,0,.11-.12s.08-.15.24-.23.23-.27.23-.32.08-.13.24-.21a.33.33,0,0,0,.23-.12c0-.15.16-.31.47-.47a.57.57,0,0,0,.64-.58v-.12h.36l.11-.12L719,377l1.7-1.12q.24,0,.24-.12c.31-.15.43-.23.35-.23,0-.16.12-.31.35-.47a3.29,3.29,0,0,0,.59-.47h.35l.23-.11h.12v-.12l-.12-.18V374a.34.34,0,0,0,.33-.18.79.79,0,0,1,.2-.29l.94-.35A.31.31,0,0,1,724.47,373.31Zm-24.67-1.43a2.23,2.23,0,0,1,.53-.85c.08,0,.22-.16.41-.47a3.23,3.23,0,0,1,.3-.65,3.28,3.28,0,0,0,.29-.7v-.12a.68.68,0,0,1,.35-.58v-.24c0-.15.16-.39.47-.7a.31.31,0,0,1,.35-.35h.12v-.12a1.44,1.44,0,0,1,.23-.88.54.54,0,0,1,.21-.41.53.53,0,0,0,.2-.41.21.21,0,0,1,.24-.23c.07-.24.15-.35.23-.35h.35l-.12-.24c-.07,0-.11,0-.11-.12a.1.1,0,0,1,.11-.11l.36-.53c0,.08,0,.08.11,0h-.11v-.47h.23v-.12l-.12-.23c-.07,0-.19.08-.35.23v.12a.66.66,0,0,1-.12.47.45.45,0,0,0-.46.35h-.12q-.12,0-.12.18c-.08,0-.16.06-.26.17l-.27.3a.33.33,0,0,1-.11.23,1.29,1.29,0,0,1-.12.59,1.08,1.08,0,0,0-.59.58.21.21,0,0,0-.23.24v.23c-.08.24-.14.42-.18.56a1.1,1.1,0,0,1-.29.44.51.51,0,0,0-.29.29.65.65,0,0,1-.18.29.37.37,0,0,1-.2.35.39.39,0,0,0-.21.36v.11a.74.74,0,0,1-.06.27.69.69,0,0,0-.06.26c-.07,0-.11,0-.11.12a.11.11,0,0,1-.12.12,3.27,3.27,0,0,1-.94,1.64v.11a1.71,1.71,0,0,1-.17.62,1.7,1.7,0,0,0-.18.73.35.35,0,0,1-.12.24v.11a.43.43,0,0,0-.23.41,1.56,1.56,0,0,1-.12.59,6.38,6.38,0,0,1-.38.7.85.85,0,0,0-.14.47l-.24.47v.35c-.08,0-.12.18-.12.53-.07,0-.11,0-.11.12a.46.46,0,0,1-.06.29.46.46,0,0,0-.06.29v.24c-.16,0-.23.19-.23.58l-.24.35a.68.68,0,0,1,.12.47l-.12.18-.23.35v1.17c.15,0,.23,0,.23-.12s.12,0,.12-.11a.24.24,0,0,1,.06-.18.24.24,0,0,0,.06-.17v-.12c0-.31,0-.47.11-.47l.12-.12v-.53a1.87,1.87,0,0,1,.12-.58,2.2,2.2,0,0,0,.11-.59,1,1,0,0,0,.36-.7c0-.23,0-.35.11-.35a.57.57,0,0,0,.12-.41v-.12a2.15,2.15,0,0,0,.12-.7,1.09,1.09,0,0,1,.29-.71,1.4,1.4,0,0,0,.47-1v-.24c.08,0,.12,0,.12-.11l.46-.59C699.55,372.57,699.69,372.21,699.8,371.88Zm-3,12.1-.12-.24-.12.12v.23q0,.24.12.3h.12V384Zm6.85-13.19a.37.37,0,0,0-.11.24c-.39.15-.58.32-.56.5a.93.93,0,0,1-.21.61v.24l.65.11a4.47,4.47,0,0,0,.47-.55,1.08,1.08,0,0,1,.58-.44l.47-.47a1.35,1.35,0,0,0,.35-.59q1.07-.58,1.23-1.05a4.37,4.37,0,0,0,.94-1.35l.35-.35c.16-.24.35-.5.56-.79a3.41,3.41,0,0,0,.44-.79l.47-.59a2.11,2.11,0,0,1,.58-1.06,1.07,1.07,0,0,1,.18-.61,3.2,3.2,0,0,1,.41-.5,2.75,2.75,0,0,0,.44-.58,1.37,1.37,0,0,0,.2-.71,2.16,2.16,0,0,1,.47-1q.12,0,.06-.06s0-.06.06-.06a.68.68,0,0,1-.12-.47l.12-.23a1.87,1.87,0,0,0-.12-.59h-.11a.35.35,0,0,1-.24-.12l-.76.47h-.12c-.15,0-.23.12-.23.35l-.24.12a.66.66,0,0,1-.23.47h-.47a1.79,1.79,0,0,0-.35.47,2.16,2.16,0,0,0-.12.88v.23a.88.88,0,0,0-.44.12.67.67,0,0,1-.32.12,2.1,2.1,0,0,0-.59.93l-.35.76-.47.36-.35,1.05V366l-.11.12-.24.76c0,.08-.07.11-.2.11s-.21.08-.21.24a.31.31,0,0,0-.23.12c-.08.15-.16.33-.24.52a1.4,1.4,0,0,0-.11.53.68.68,0,0,1-.12.47l-.24.23a2.68,2.68,0,0,0-.7,1.35A.46.46,0,0,1,703.61,370.79Zm12.48,11.08a.66.66,0,0,0-.29.23.24.24,0,0,1-.23.12v.12a.4.4,0,0,0,.29.11l.47-.11v-.47Zm1.41-1h-.35l.12.12a.33.33,0,0,1-.12.23l.12.12v.12c0,.08,0,.11.11.11l.12-.11a.31.31,0,0,0,.23-.12v-.12C717.73,381.14,717.66,381,717.5,380.87Zm1.7-.58h-.12a.11.11,0,0,1-.12-.12h-.11l-1.23.58.11.12a.35.35,0,0,0,.24-.12h.29l.12-.11.7-.12Zm2.75-2.64v-.12h-.11C721.84,377.61,721.88,377.65,722,377.65Zm2.76-3.61a4.06,4.06,0,0,1,.52-.49,6.8,6.8,0,0,1,.65-.47l.29-.24.35-.35.36-.35.35-.35a14.7,14.7,0,0,0,1-1.11,1.44,1.44,0,0,1,.71-.36H729c0,.16-.28.5-.85,1s-.85.87-.85,1-.17.27-.52.58-.53.51-.53.59l-.47.47a2.61,2.61,0,0,0-.41.52l-.23.24-.24.23c-.08,0-.12-.12-.12-.35s-.07-.35-.23-.35S724.55,374.22,724.71,374Zm0-.84h.11l-.11.11h-.12C724.59,373.23,724.63,373.2,724.71,373.2Zm1.23-.47c0,.07-.09.19-.27.35a.77.77,0,0,1-.38.23c-.08.08-.13.06-.17-.06s-.1-.17-.18-.17a.11.11,0,0,1-.12-.12l.36-.82h.52l.82.12Zm2.28-2.29a.76.76,0,0,1-.26.18.65.65,0,0,0-.26.17l-.59.59c0,.23-.2.45-.59.64a.24.24,0,0,1-.17-.06.3.3,0,0,0-.18,0h-.23v-.41h.11l.24-.24-.12-.12.12-.11h.23a4.29,4.29,0,0,0,.91-.47c.53-.31.83-.43.91-.35A.33.33,0,0,1,728.22,370.44Z" transform="translate(-463.61 -295.21)" style="fill:#333"/><path d="M766.84,377.88V378q0,.12-.06.12s-.06,0-.06.11a1.57,1.57,0,0,1-.35.59,4.92,4.92,0,0,0-.47.53,2.08,2.08,0,0,1-.88.82l-.7.7a.35.35,0,0,1-.12.24.45.45,0,0,0-.12.35,2.09,2.09,0,0,1-.23.61,5,5,0,0,1-.35.38l-1.35,1.06a1.51,1.51,0,0,0-.94,1.23c-.16.15-.23.27-.23.35h-.12v.59H761v.46a4.19,4.19,0,0,0-1.47,1.12l-.7.47a7.68,7.68,0,0,1-.88.47,4,4,0,0,1-1.17.23h-.35a1.4,1.4,0,0,0-.77-.12l-1.4-.23c-.24-.08-.48-.18-.73-.29a2.3,2.3,0,0,1-.62-.41.79.79,0,0,0-.29-.18.56.56,0,0,1-.3-.29l-2.4-2.29-.35-.53a27.08,27.08,0,0,1-2-5.74,2,2,0,0,1-.23-.94,4.45,4.45,0,0,0-.12-1A.68.68,0,0,1,747,376V373.2a4.62,4.62,0,0,0-.23-1.41l.11-.18-.11-.11c-.16-.16-.28-.24-.35-.24h-.12l-1.7,1c.08,0,0,.12-.24.35a2.68,2.68,0,0,1-1.23,1.17v.53a.67.67,0,0,1-.23.47l-.12.11a1.42,1.42,0,0,0-.52.71,1.47,1.47,0,0,1-.53.7,5.58,5.58,0,0,0-.65.5.94.94,0,0,0-.29.73.64.64,0,0,1-.41.24,7.61,7.61,0,0,1-2.11,2.4l-1.11.82a2.39,2.39,0,0,0-.24,1.11,1.93,1.93,0,0,1-.52.82,1.16,1.16,0,0,0-.41.59h-.24c-.47,0-.72.37-.76,1.11a.46.46,0,0,1-.35.47c-.08,0-.14.08-.18.23a.52.52,0,0,1-.29.36,7.75,7.75,0,0,1-.53,1.08,4.19,4.19,0,0,1-.82,1,4.45,4.45,0,0,1-.82.58,3.75,3.75,0,0,0-1.43,1l-1.32,1.32c0,.08,0,.11-.12.11l-.12-.11c-.15-.24-.31-.35-.47-.35h-.64a.48.48,0,0,1-.47-.24.38.38,0,0,0-.35-.23c-.47,0-.74-.37-.82-1.12-.08,0-.12,0-.12-.11l.12-.12c0-.16-.16-.39-.47-.7a.65.65,0,0,1-.41-.59,4,4,0,0,1-.12-1c-.08,0-.11,0-.11-.11v-.35a3.09,3.09,0,0,0,.23-1.09v-1.08a10.1,10.1,0,0,1,.06-1.12c0-.35.1-.78.17-1.28a8.32,8.32,0,0,0,.27-1.67c0-.49.07-1.05.14-1.67a8.14,8.14,0,0,1,.59-2.06l1.06-4.57,1.46-4.92.47-2.17a2,2,0,0,0,.12-.82.52.52,0,0,1,.11-.35,1.32,1.32,0,0,0,.24-.35,5.85,5.85,0,0,0,.11-1.35,9,9,0,0,0,.53-1.4,4.3,4.3,0,0,1,.06-.79,3.74,3.74,0,0,0,.06-.68c.16-.62.33-1.22.53-1.78a17.94,17.94,0,0,0,.52-1.91,5,5,0,0,1,.59-1.58l.23-.7c.16,0,.26,0,.3.11s.15.12.35.12h.12a1.25,1.25,0,0,1,.58-.12c.47,0,.9.35,1.29,1.06.24.23.31.35.24.35a1,1,0,0,1,.67.73,7.74,7.74,0,0,0,.2.85,6.19,6.19,0,0,0-.11,1.09,1.49,1.49,0,0,1-.24.85,1.59,1.59,0,0,0-.11.7.22.22,0,0,1-.06.17.24.24,0,0,0-.06.18v.23a3.61,3.61,0,0,0-.53,1v.23a.47.47,0,0,0,.06.3s.06.13.06.29a.79.79,0,0,1-.06.35.53.53,0,0,0-.06.24l.12.23a.88.88,0,0,1-.24.53c-.15.08-.23.27-.23.58a1.52,1.52,0,0,0-.35.59,8,8,0,0,1-.35.82q-.24,0-.24.12c0,.08.08.21.24.41l.11.11-.23.47c-.08,0-.12.16-.12.47q0,.12.06.12s.06,0,.06.12a1.38,1.38,0,0,1-.12.52,1.47,1.47,0,0,0-.12.53,3.4,3.4,0,0,1-.46,1.47l-.24.7a1.08,1.08,0,0,1-.09.44,1,1,0,0,0-.08.32.67.67,0,0,0-.24.47.11.11,0,0,0,.12.12v.23a.79.79,0,0,1-.06.35l-.18.35a4,4,0,0,0-.23,1l-.23.94-.47,1.7a10.68,10.68,0,0,1-.59,2.75l-.35,1.64a3.67,3.67,0,0,0-.12.91,1.76,1.76,0,0,1-.29.91v.58l.12.12c0,.08,0,.14.17.18a2.32,2.32,0,0,1,.82-.85,1.63,1.63,0,0,0,.71-.85l.11-.24a2.57,2.57,0,0,0,.85-.67c.26-.29.54-.6.85-.91l2.4-2.87.24-.23a7.89,7.89,0,0,1,2.17-2.64c.15-.16.23-.27.23-.35a1.2,1.2,0,0,1,.7-.76l1.59-1.88c.15-.16.35-.34.58-.56a2,2,0,0,1,.94-.44.85.85,0,0,0,.53-.58c0-.08.08-.16.23-.24.31-.31.67-.63,1.06-1a3.72,3.72,0,0,1,1.34-.73.24.24,0,0,0,.18-.06.24.24,0,0,1,.18-.06.24.24,0,0,1,.17.06.24.24,0,0,0,.18.06.31.31,0,0,1,.23.11h.24a.85.85,0,0,1,.82.65c.31.47.52.7.64.7.31,0,.51.08.59.23l.47.47.46.47a1.46,1.46,0,0,1,.65,1.23v.24a4.29,4.29,0,0,0,.23,1.29,2.39,2.39,0,0,1,.24,1.11,1,1,0,0,0-.12.47.48.48,0,0,0,.12.35,1.62,1.62,0,0,1,.11.7,1.25,1.25,0,0,1-.05.38.74.74,0,0,0-.06.27.46.46,0,0,0,.35.47H752v-1.12l.24-.11c.08,0,.11,0,.11.11a10.13,10.13,0,0,1,.47,3.17,4.29,4.29,0,0,0-.23,1.29,2.34,2.34,0,0,0,.23.87v.47a10.23,10.23,0,0,0,1.23,4.69,1.26,1.26,0,0,0,1.06.47,10.6,10.6,0,0,0,1.14-.06,2.08,2.08,0,0,0,.91-.29,5.33,5.33,0,0,0,1.7-.76,1.24,1.24,0,0,1,.82-.47,3.72,3.72,0,0,0,.41-.24l.41-.23c0-.16.1-.24.29-.24a8,8,0,0,0,.71-.52l.82-.71a1.46,1.46,0,0,0,.41-.29l.41-.41a1,1,0,0,1,.44-.29,2.48,2.48,0,0,0,.43-.18,1.49,1.49,0,0,0,.3-.35.6.6,0,0,1,.29-.23l.82-.65a2.7,2.7,0,0,1,.56-.41,1.06,1.06,0,0,0,.44-.76l.23-.12c.08,0,.12,0,.12-.11Z" transform="translate(-463.61 -295.21)" style="fill:#333"/><path d="M769.71,371.88c.08-.8.13-1.68.17-2.64s.08-1.89.12-2.81.06-1.61.06-2.08v-.41a5.17,5.17,0,0,1,.06-.76,7.15,7.15,0,0,0,.06-1,8.14,8.14,0,0,0-.06-1,8,8,0,0,1-.06-1,.48.48,0,0,0-.35-.12V360l-.12-.23v-.47l-.12-.29.12-.36-.12-.35-.11-.47v-.23h-.12l.12-.12-.24-.23.12-.35-.12-.3c-.08,0,.12-.07.59-.23.08,0,.11-.08.11-.24v-.46h.24c.15,0,.27-.12.35-.36a1.74,1.74,0,0,1-.35-.58c0-.08.15-.12.47-.12l1.32-.06,1.31-.06a1.32,1.32,0,0,1,.53-.11l2.29,1.29c.07,0,.11.07.11.23s-.13.23-.41.47v.12a.4.4,0,0,0-.11.29v.35a.47.47,0,0,1-.24.47.46.46,0,0,0-.35.47.82.82,0,0,0,.06.35.79.79,0,0,1,.06.35.63.63,0,0,0,.11.38.6.6,0,0,1,.12.38.24.24,0,0,1-.06.18.24.24,0,0,0-.06.17,1,1,0,0,1-.11.47l.23,1.18v.64a1.32,1.32,0,0,0,.12.59l-.35,1.4a4.82,4.82,0,0,1,.17.68,3.63,3.63,0,0,1,.06.67,6.84,6.84,0,0,1-.06.91,6.62,6.62,0,0,0-.06.91v.7h.12l-.17,1.17c-.12.74-.26,1.55-.41,2.43s-.32,1.68-.47,2.4-.24,1.13-.24,1.21v.93a.9.9,0,0,0-.23.65v.47c.08.23-.15.47-.68.7a3.7,3.7,0,0,0-1,.59v.11a.35.35,0,0,0,.23.12,2,2,0,0,1,.82-.12,1.88,1.88,0,0,0,1.15-.41,1.92,1.92,0,0,1,1.14-.41h.41a3.62,3.62,0,0,1,.76-.29,3.27,3.27,0,0,1,.65-.06h.7a.21.21,0,0,1,.17.06.62.62,0,0,0,.36.06,4.08,4.08,0,0,1,1.87.82.92.92,0,0,1,.35.58v.3a.1.1,0,0,0-.11.11c0,.08,0,.12.11.12a.94.94,0,0,1,.56.65,1.34,1.34,0,0,0,.32.64v.47l-.58-.12a2.33,2.33,0,0,0-.62-.76,5.85,5.85,0,0,0-.85-.53,4.33,4.33,0,0,0-3-.35,1.75,1.75,0,0,0-1,.24,8.07,8.07,0,0,1-1,.47l-.82.7a.4.4,0,0,0-.35.17.46.46,0,0,1-.41.18q-.12,0-.12-.06s0-.06-.12-.06v.35a10.91,10.91,0,0,0-.41,1.32,8.23,8.23,0,0,1-.41,1.32l.12.41a1,1,0,0,1,.35.7,1.93,1.93,0,0,1-.23.82A10.51,10.51,0,0,1,772,388a1.41,1.41,0,0,1-.23.94,1.17,1.17,0,0,0-.35.88,1.39,1.39,0,0,0,.11.58v.35l-.23.24a.66.66,0,0,1,.23.47.5.5,0,0,1-.17.38c-.12.1-.22.18-.3.26l-.52.59a.84.84,0,0,1-.35.58.69.69,0,0,0-.24.47.11.11,0,0,0,.12.12.39.39,0,0,1,.35.23c0-.07.08.06.23.41l-.58,2.23-.12.18a1.46,1.46,0,0,0-.53.64c-.11.28-.21.49-.29.65s-.29.21-.41.17-.17,0-.17.18a.48.48,0,0,0,.11.35q0,.12.06.12s.06,0,.06.11-.18.41-.53.77a4.32,4.32,0,0,0-.17.93.94.94,0,0,1-.65.82q-.12,0-.12.18v.47a2.53,2.53,0,0,1-.58,1.4.35.35,0,0,0-.12.24h.24a.24.24,0,0,0,.17-.06.24.24,0,0,1,.18-.06.33.33,0,0,1,.23.12.62.62,0,0,1,.24.41c0,.15-.06.23-.18.23a.38.38,0,0,0-.29.12,1.1,1.1,0,0,0-.59.7c0,.24-.08.35-.23.35a1.49,1.49,0,0,0-1,1,4.05,4.05,0,0,1-.5,1.26l-.7,1.58-1.7,2.87c0,.39-.06.63-.18.71a.39.39,0,0,0-.17.35.33.33,0,0,0-.12.23.11.11,0,0,1,.12.12q.12,0,.12-.06s0-.06.11-.06h.47q0,.12.06.12s.06,0,.06.12,0,.21-.12.17-.19,0-.35.06-.51.32-.82.5a1.28,1.28,0,0,0-.59,1,.1.1,0,0,1-.11.11,3.48,3.48,0,0,0-.85,1.32,4.91,4.91,0,0,1-.85,1.44,5.16,5.16,0,0,1-.74,1.67c-.33.49-.65.92-1,1.32l-1.53,2.28a4.26,4.26,0,0,1-.61.91,7,7,0,0,0-.73,1,10,10,0,0,0-.41.91,2.34,2.34,0,0,1-.76.91,1.2,1.2,0,0,1-.53.59l-2,3q-.71.83-1.32,1.5a16.94,16.94,0,0,0-1.2,1.49q-.24,0-.27.15a.55.55,0,0,1-.14.26,1.81,1.81,0,0,1-.71.24c-.08,0-.17.1-.29.29s-.21.29-.29.29v.47a13.1,13.1,0,0,1-1.26,1.32,11.42,11.42,0,0,1-1.61,1.2c-.16.16-.37.38-.62.68s-.58.63-1,1v.24H742a.63.63,0,0,0-.64.35,1.55,1.55,0,0,1-.53.58c-.16.16-.36.34-.61.56a1.49,1.49,0,0,1-1,.32c.08,0,0,.12-.24.35a3.21,3.21,0,0,1-1.31.82,9.91,9.91,0,0,0-1.44.59,11.73,11.73,0,0,0-1.38.56,3.23,3.23,0,0,1-1.37.32.35.35,0,0,0-.33.17.31.31,0,0,1-.32.18,8.27,8.27,0,0,0-1.05.06,9.11,9.11,0,0,1-1.12.06,10.22,10.22,0,0,1-1.58-.12,4.2,4.2,0,0,1-1.64-.7.18.18,0,0,1-.17-.09.2.2,0,0,0-.18-.09,2.39,2.39,0,0,1-.88-.88,1.73,1.73,0,0,0-.82-.76c-.23-.7-.47-1.46-.7-2.28a13.94,13.94,0,0,1-.47-2.29,1.6,1.6,0,0,0,.12-.7v-.88a1.92,1.92,0,0,1,.23-1.06,1.31,1.31,0,0,1,.06-.41,1.22,1.22,0,0,0,.06-.41.91.91,0,0,0-.12-.52v-.12c0-.16.16-.39.47-.7v-.36a4.07,4.07,0,0,1,.12-1,4.39,4.39,0,0,0,.11-.85,2.31,2.31,0,0,0,.62-1,10.7,10.7,0,0,0,.26-1.41v-.11a1.24,1.24,0,0,0,.53-.82,3.48,3.48,0,0,1,.29-1,2.5,2.5,0,0,0,.88-.82,8.31,8.31,0,0,1,.59-.82,3,3,0,0,0,.29-.91.87.87,0,0,1,.64-.67l-.23-.47a.54.54,0,0,1,.29-.29.28.28,0,0,0,.18-.3c0-.31.1-.48.29-.52s.29-.24.29-.59a3.14,3.14,0,0,1,.3-.64,4.43,4.43,0,0,1,.35-.53l.7-1.23.82-.82a3.7,3.7,0,0,0,.41-.82,1.13,1.13,0,0,1,.82-.65.35.35,0,0,1,.12-.23,2.5,2.5,0,0,1,1.17-1.88l.59-1.23a7.66,7.66,0,0,1,.79-.88,2.4,2.4,0,0,0,.56-1.05.3.3,0,0,1,0-.18A.22.22,0,0,0,737,411a24.33,24.33,0,0,0,2.52-2.87,8.71,8.71,0,0,1,.85-1.15,11,11,0,0,0,1-1.26L745.1,401c.54-.63,1.08-1.28,1.61-2a6.66,6.66,0,0,1,2-1.72,4.71,4.71,0,0,1,.59-.91,1.46,1.46,0,0,1,.82-.56c.15,0,.23,0,.23-.12a2.21,2.21,0,0,1,.91-1.11,1.65,1.65,0,0,0,.79-.94l2.75-2.28a9.46,9.46,0,0,1,1-.82,12.85,12.85,0,0,1,1.2-.82c.24-.32.52-.68.85-1.09a2.76,2.76,0,0,1,1.09-.85l2.87-2.52a.1.1,0,0,1,.11-.11,4.11,4.11,0,0,1,1.38-1.26c.53-.3,1.1-.64,1.73-1a3.34,3.34,0,0,1,1.44-1,4.12,4.12,0,0,0,1.43-.91l1-.82a.75.75,0,0,0,.11-.47v-.24a1.18,1.18,0,0,1,.36-.84,2,2,0,0,0,.46-.74c0-.08,0-.11.06-.11s.06,0,.06-.12a1.33,1.33,0,0,0-.35-.79,1.49,1.49,0,0,1-.35-.91v-.24a.24.24,0,0,0-.06-.17.24.24,0,0,1-.06-.18l.12-.11.35-1.82C769.59,373.2,769.63,372.68,769.71,371.88Zm-36.18,68.29a8.88,8.88,0,0,0,1.14-.59c.78-.31,1.49-.63,2.14-1a17.67,17.67,0,0,0,2-1.21c0-.15.12-.23.35-.23s.59-.33,1.29-.76a3.24,3.24,0,0,1,1-1.17c.41-.32.85-.69,1.32-1.12a9,9,0,0,0,1.78-1.84,5.57,5.57,0,0,1,2.08-1.73l3.11-4.22,2.17-3.22a8.62,8.62,0,0,0,1.55-1.79l1.2-1.9,1.23-1.82.94-1.93a1.72,1.72,0,0,0,.53-.88,1.33,1.33,0,0,1,.29-.71,5.41,5.41,0,0,0,1-1.29,13.84,13.84,0,0,0,.74-1.58,6.66,6.66,0,0,0,.64-1.05c.2-.39.37-.76.53-1.12v-.46A2,2,0,0,0,761,408c.13-.23.28-.47.44-.7a2,2,0,0,0,.7-1.23.24.24,0,0,0-.06-.18.24.24,0,0,1-.06-.18l.12-.11a2.38,2.38,0,0,0,.7-1.14,5.54,5.54,0,0,0,.12-1.15,15.06,15.06,0,0,0,2.17-5.15l1.81-5,.71-2.52a6.3,6.3,0,0,1,.17-1.38c.12-.53.26-1.1.41-1.73a11.29,11.29,0,0,0,.41-2.87V384a.37.37,0,0,0-.11-.24q-.36,0-.42.12l-.35,1a.1.1,0,0,1-.11.11h-.12l-.24-.23c-.07,0-.11,0-.11.12V385c-.47.63-.86.94-1.17.94h-.3c-.23,0-.43.2-.58.59l-.59.52-.35.12a1,1,0,0,1-1.11.82l-.82.59-.47,1.11a11.74,11.74,0,0,1-1.26.88,3.26,3.26,0,0,0-1.15,1.29c0,.15-.11.23-.35.23h-.11a3.82,3.82,0,0,0-.74.47,3.3,3.3,0,0,1-.73.47.67.67,0,0,1-.23.29,1.49,1.49,0,0,0-.35.3,6.9,6.9,0,0,1-1,1.37,13.59,13.59,0,0,1-1.14,1l-6.33,6.74a7.67,7.67,0,0,1-1,1.2L746.33,405l-.24.24-.23.7-8.2,10.19-.12.36a5.74,5.74,0,0,0-.7,1.37A2.58,2.58,0,0,1,736,419c-.24.39-.46.79-.68,1.2a3.33,3.33,0,0,1-.91,1.08,2.2,2.2,0,0,1-.41,1c-.19.25-.41.53-.64.85L731.09,427l-2.93,6.92a.78.78,0,0,1,0,.32.37.37,0,0,0-.06.21l-.71,2.4a.73.73,0,0,0-.11.47,3.56,3.56,0,0,0,.06.58,5,5,0,0,1,.05.59,1.76,1.76,0,0,1-.11.7,1.55,1.55,0,0,1,.35.62,1.09,1.09,0,0,0,.47.61,1.66,1.66,0,0,0,.79.47l.91.24,2.4-.71A3.72,3.72,0,0,0,733.53,440.17Zm-2.2-18.63v.11a.41.41,0,0,0-.12.3c0,.07,0,.11.12.11a.48.48,0,0,1,.12.35.38.38,0,0,1-.24.36c0,.07,0,.11-.12.11h-.41l-.11.12.41.12a.73.73,0,0,0,.41-.12.69.69,0,0,1,.41-.12.48.48,0,0,1,.35.12l.12-.12-.82-1.34Zm.82-.59-.12.12h.12Zm2.05-3.69-.47,1.05.12.24H734l.59-.71-.12-.46A.31.31,0,0,0,734.2,417.26Zm.94-.47H735a.31.31,0,0,0-.23.12.67.67,0,0,0,.23.47.11.11,0,0,1,.12-.12l.23-.12Zm1.17-1.58a2,2,0,0,0,.29-.59l-1.11.47v.12a.68.68,0,0,0,.12.47v.11c0,.16,0,.24.11.24s.14-.08.3-.24A1.75,1.75,0,0,1,736.31,415.21Zm.41-1.47v.76c.08,0,.12,0,.12-.11l.11-.3a2.29,2.29,0,0,0,.41-.52,1,1,0,0,1,.65-.41.38.38,0,0,0,.41-.36.4.4,0,0,0-.09-.23.4.4,0,0,1-.09-.23c-.08,0-.19-.08-.35-.24v.12a1.75,1.75,0,0,1-1,1A1.06,1.06,0,0,0,736.72,413.74Zm1.7-1.76a3.28,3.28,0,0,0,.76-.2,2,2,0,0,0,.53-.56l.93-1.05a2.94,2.94,0,0,0,.5-.73,3.12,3.12,0,0,1,.5-.74c0-.08,0-.11.06-.11s.06,0,.06-.12,0-.24-.12-.24a.3.3,0,0,1-.23-.11c-.24-.24-.39-.35-.47-.35l-.41.58v.24a.37.37,0,0,0,.11.23c0,.08.06.16.18.23s-.06.12-.18.12h-.11q-.82.7-1.47,1.2a4.33,4.33,0,0,0-1.17,1.73h.35v.12Q738.24,412.1,738.42,412Zm-.18.24v.12h.18Zm1.23,26.95h-.23v.18a.21.21,0,0,0,.23.23h.12c.16,0,.23,0,.23.12C739.75,439.39,739.63,439.21,739.47,439.17Zm.71,1.12a.45.45,0,0,1-.36.46.59.59,0,0,0,.3-.05.22.22,0,0,1,.17-.06.47.47,0,0,1,.06-.3.22.22,0,0,0,.06-.17,1,1,0,0,1,.12-.47,1.14,1.14,0,0,0,.11-.53c-.23,0-.5.18-.82.53h.24Zm1.11-1.94.12.24h.23ZM742.4,406a.86.86,0,0,0-.29.7v.53a.31.31,0,0,0,.12.23c.23,0,.35-.07.35-.23l1-.76h-.52a1.93,1.93,0,0,0-.71.23l.59-.7v-.47A6.3,6.3,0,0,1,742.4,406Zm-.17,31.93-.12.24.7-.47-.11-.12A.45.45,0,0,0,742.23,437.88Zm1.11-32.28h.35a.33.33,0,0,0,.24.11.1.1,0,0,0,.11-.11,16.08,16.08,0,0,1,.82-1.47c0-.08-.07-.19-.23-.35l-.12.12a1.3,1.3,0,0,1-.35.41h-.35c-.08,0-.12.08-.12.23v.35l.12.36a.46.46,0,0,1-.35-.12c-.35,0-.53.12-.53.35A.56.56,0,0,0,743.34,405.6Zm.23,30.94a.41.41,0,0,0-.41-.24v.53l-.23.12A.64.64,0,0,0,743.57,436.54Zm.24-.71V436h.12Zm7.67-38.73a.49.49,0,0,0,.36-.12.65.65,0,0,1,.17-.26s.06-.11.06-.26v-.24c0-.15.12-.23.35-.23a1.57,1.57,0,0,0,1.23-.94.76.76,0,0,1,.71-.47c0-.54.07-.88.23-1l.59-.24c.23-.23.31-.35.23-.35l1.58-.47.12-.12-.12-.11a.8.8,0,0,1-.58.23h-.12a.11.11,0,0,1-.12-.12v-.23a1.79,1.79,0,0,0,1.64-1.11l1.12-.47v-.24c0-.15.07-.21.23-.17s.23,0,.23-.18v-.12a.5.5,0,0,1,.18-.29,1.21,1.21,0,0,0,.29-.47,2.67,2.67,0,0,1,.62-.64,10.26,10.26,0,0,0,.85-.76,1.3,1.3,0,0,1,1-.71h.24c.15,0,.23,0,.23-.11a.74.74,0,0,0-.06-.27,1,1,0,0,1-.06-.38l.36-.35h.52a.48.48,0,0,0,.12-.35l-.12.12-.11-.12.11-.24a.68.68,0,0,0,.47-.46H764a1.11,1.11,0,0,0-.67.23,3.49,3.49,0,0,1-.56.35.75.75,0,0,0-.11.47.51.51,0,0,0,.11.35l-.58-.12-.35.24a.33.33,0,0,0,.11.23c0,.08-.11.14-.35.18a4.55,4.55,0,0,0-.85.41,1.26,1.26,0,0,0-.61.88h.11l-.35.35a2.54,2.54,0,0,0-1.81,1.23,10.89,10.89,0,0,0-.94,1,4.9,4.9,0,0,1-.94.94,3.62,3.62,0,0,0-1.26.73,10,10,0,0,1-1.26,1,7.68,7.68,0,0,0-1.08,1.38,3,3,0,0,1-1.2,1.14,13.42,13.42,0,0,0-2.64,2.52l-1.7,2.05c0,.24,0,.31-.12.24-.54.31-.82.58-.82.82a1.71,1.71,0,0,0,.36.76v.12c0,.15,0,.23-.12.23h-.24a1.58,1.58,0,0,0-.41-.35c0-.16,0-.24-.11-.24s-.2.08-.36.24v.82a.21.21,0,0,0,.24.23.78.78,0,0,0,.41-.11,1,1,0,0,0,.53-.18,4.86,4.86,0,0,1,.52-.29l.47-.24.12-.11a.31.31,0,0,0,.23-.12l-.23-.24c-.39-.23-.59-.45-.59-.64a.38.38,0,0,1,.36-.24.48.48,0,0,1,.35.12h.23a.21.21,0,0,1,.06-.17.24.24,0,0,0,.06-.18.35.35,0,0,1-.12-.23c0-.08.22-.2.65-.36A2,2,0,0,1,749,400a1.23,1.23,0,0,0,.47-.47.3.3,0,0,0,.18-.05.24.24,0,0,1,.18-.06q0-.12-.24-.18a.31.31,0,0,1-.23-.12V399a2.77,2.77,0,0,1,.35-.47l.82-.12v-.47C750.49,397.61,750.82,397.34,751.48,397.1ZM746.8,434l.35-.59A.68.68,0,0,0,747,433l-.23-.23-.24,1.4A.37.37,0,0,0,746.8,434Zm1.05-2.76a.11.11,0,0,0-.12.12.71.71,0,0,0,.12.41,1.82,1.82,0,0,1,.12.47c0,.08.14.12.41.12a2.41,2.41,0,0,0,.94-.12c.07,0,.11-.08.11-.24a.66.66,0,0,0-.17-.44,1.9,1.9,0,0,1-.3-.44l.12-.11-.7.35A.8.8,0,0,0,747.85,431.26Zm2.29-1.4a5.65,5.65,0,0,0-.71.05,3.09,3.09,0,0,0-.82.3c-.15,0-.23,0-.23.11l.35.36c0,.07,0,.11.12.11h.23l.59-.35C750,430.44,750.14,430.25,750.14,429.86Zm-.94,1.05-.12-.12V431Zm1.17-1.11a.53.53,0,0,0,.24.06.94.94,0,0,0,.76-.36.49.49,0,0,0,.35-.52,3.1,3.1,0,0,0-.7-.71h-.3l.3-.23c.07,0,.11,0,.11-.12a.22.22,0,0,1-.17-.06.35.35,0,0,0-.24-.06.69.69,0,0,0-.47.24c0,.08,0,.12-.11.12s-.12.07-.12.23.08.2.23.35a.21.21,0,0,1,.24.24l-.24.23-.11.53A.53.53,0,0,1,750.37,429.8Zm2.87-3.34a.2.2,0,0,1,.09-.18.2.2,0,0,0,.09-.17c-.08-.32-.18-.47-.3-.47s-.19.07-.35.23h-.23a.67.67,0,0,0-.47.24c0,.07,0,.11-.12.11s-.11,0-.11.12-.12,0-.12-.06,0-.06-.12-.06a.11.11,0,0,0-.12.12l.12.23a1.08,1.08,0,0,1,.12.65.33.33,0,0,0-.12.23h.12a4.91,4.91,0,0,0,.53-.29,1.19,1.19,0,0,1,.64-.18,1.43,1.43,0,0,1,.53.12q-.12.12,0,.12h.12A4,4,0,0,0,753.24,426.46Zm1.12-2.64-.82,1v.23a1.3,1.3,0,0,0,.64-.29.87.87,0,0,0,.41-.71v-.23Zm.23-.47.12.12a.79.79,0,0,0,.47-.18.5.5,0,0,0,.23-.41v-.11l-.47-.24Zm.94-2.05q-.12,0-.12.06s0,.06-.12.06l-.11.12c0,.23.07.37.23.41s.12,0,.12-.06,0-.06.11-.06h.53a.92.92,0,0,0,.71-.88v-.47l-.47.23C756.41,421.11,756.11,421.3,755.53,421.3Zm1.58-1.17-.23-.12v.47C757,420.32,757.11,420.21,757.11,420.13Zm.82-1.93v-.12l-.59.47a.1.1,0,0,0-.11.11c0,.16,0,.24.11.24l.24.23h.12c.31,0,.46-.15.46-.47a.29.29,0,0,0,0-.17.24.24,0,0,1-.06-.18C758,418.31,757.93,418.27,757.93,418.2Zm.41-.47a.19.19,0,0,1-.18-.12h-.11l-.12.12Zm1-1.35-.35.12-.58.41a.65.65,0,0,0-.3.11q.12,0,.3.24l.82-.65Zm.59-1.17h.12l-.12-.12q0-.12-.12,0Zm.47-1c-.16.16-.24.25-.24.29l.24.24.12-.24C760.57,414.35,760.53,414.25,760.45,414.21Zm1.93,1.11.12-.23v.12C762.5,415.29,762.46,415.32,762.38,415.32Zm1.29-2.4s.06,0,.06.12v.12c-.08,0-.12,0-.12,0s0,.06-.11.06-.12,0-.12-.11l-.18-.12a.33.33,0,0,1,.21-.12c.06,0,.13-.08.2-.23C763.61,412.84,763.63,412.92,763.67,412.92Zm1.12-28.71c-.32,0-.47.18-.47.53h.11C764.59,384.74,764.71,384.56,764.79,384.21Zm-.12.88a.24.24,0,0,0-.18.06.24.24,0,0,1-.17.06.3.3,0,0,0,.23.11c.08,0,.12,0,.12-.05s0-.06.12-.06A.11.11,0,0,0,764.67,385.09Zm.82-1.7a1.79,1.79,0,0,1-.47.35.37.37,0,0,0-.23.35v.12l.93-.7Zm3.4-39.73a2.19,2.19,0,0,1-.18-.46,2.49,2.49,0,0,1-.06-.59v-.35l.12-.12.12-.12c.07.08.27.12.58.12l.47.12a.68.68,0,0,0,.47.12,1.57,1.57,0,0,0,.67.35c.3.07.56.15.8.23a.7.7,0,0,1,.58.35,5.16,5.16,0,0,0,1.58,1.23l.24.47v.47l-.12.12a1.25,1.25,0,0,0-.12.58,2.53,2.53,0,0,0,.24.65c0,.31-.12.47-.35.47h-.88a.37.37,0,0,0-.24.11.26.26,0,0,1-.17-.05.24.24,0,0,0-.18-.06l-.82-.76v-.12c0-.08-.19-.24-.59-.47-.15-.16-.23-.27-.23-.35a1.69,1.69,0,0,0-.5-.53,5,5,0,0,1-.61-.53A2.37,2.37,0,0,0,768.89,343.66Zm.11,56.2v-.12a.12.12,0,0,1,.24,0v.35Z" transform="translate(-463.61 -295.21)" style="fill:#333"/><path d="M805.3,366.57q-.49,1.47-1,2.82l.11.35-.23.12-.82,1.75v.53l-.24.24-.11,1.05-.47,2.05a2.06,2.06,0,0,0-.53.7l.12.47q-.12,0-.12.3v.35a.76.76,0,0,0-.23.58l-.24.24v.47a.82.82,0,0,0,.06.35.49.49,0,0,1,.06.23,2.2,2.2,0,0,1-.12.62c-.08.25-.15.38-.23.38l.11,1.93a2.41,2.41,0,0,0,.12.94l-.12.12a1.73,1.73,0,0,1,.24.7v0c.08,0,.26.28.56.85a1.7,1.7,0,0,0,1.37,1h.12l.23.23h.71c.08,0,.11-.1.11-.29a.67.67,0,0,1,.3-.53l.47-.12h.23c.08,0,.12,0,.12-.11H806l.11-.12.24.12v-.12c0-.08,0-.12.11-.12h.12a.11.11,0,0,0,.12.12l.23-.12h.12a.62.62,0,0,1,.41-.23h.23l.41-.21a1.48,1.48,0,0,0,.41-.32l.94-.7a2,2,0,0,0,.65-.47l1.29-.82c.15-.39.31-.6.46-.62s.38-.22.65-.61l.23-.12a.38.38,0,0,0,.35-.18c.08-.11.16-.17.24-.17l.94-1.12a.37.37,0,0,1,.11-.23,1.5,1.5,0,0,1,.65-.35v.12l.7-.71.53-.52c.19-.2.29-.34.29-.41l.24-.12c.07,0,.15-.06.23-.18l.12-.47,1.46-1.29h-.11l.46-.23a1.38,1.38,0,0,0,.82-.88H820l.23-.12v-.35a.28.28,0,0,0,.3-.17.87.87,0,0,1,.17-.3h.24v.36l.12-.12c.31-.16.46-.35.46-.59a.35.35,0,0,1,.24.12.67.67,0,0,1-.24.47l-.23.23q-.12,0-.12.06s0,.06-.11.06h-.12v.35l-.71.35.24.3-.24.11-.41.35a2.42,2.42,0,0,1-.7.47l-.58.47.11.35a.24.24,0,0,1,.06-.17.24.24,0,0,0,.06-.18v-.12a.11.11,0,0,0,.12.12c0,.08.08.12.23.12a1.89,1.89,0,0,0,.79-.35,12.87,12.87,0,0,0,1.85-1.7l-.24.53c-.15,0-.23.11-.23.35h.23l-.58.58-.35.35-.24.24-.12.12.24.47.12.11c-.39.16-.59.3-.59.41l-.18.24a.65.65,0,0,1-.46-.24.11.11,0,0,0-.12.12h-.12c-.15,0-.23,0-.23.12h-.12a3.13,3.13,0,0,1-.47.82,7.93,7.93,0,0,1-.58.7l-.12.12.35.41.12-.18h.23c0,.08-.1.23-.29.44s-.39.44-.59.68l-.58.7a1.48,1.48,0,0,1-.53.85,4.1,4.1,0,0,0-.88.73l-.12.12a.41.41,0,0,0-.32.11.38.38,0,0,1-.32.12h.12a5.73,5.73,0,0,1-.88,1.09,2.55,2.55,0,0,1-1.88,1v.35q0,.24-.12.24h-.23c0,.08-.21.23-.64.47s-.91.48-1.44.73-1,.48-1.44.67a2.85,2.85,0,0,1-.82.3h-.7c-.08.15-.58.31-1.49.47s-1.42.23-1.5.23a3.39,3.39,0,0,1-2.72-1.2,4.34,4.34,0,0,0-1.85-1.44v-.11c0-.32-.44-.91-1.32-1.79a4.75,4.75,0,0,1-1.31-3.49.57.57,0,0,1,.05-.29.46.46,0,0,0,.06-.29,2.82,2.82,0,0,1-.11-.88c0-.24,0-.35.11-.35v-.94l-.23.23c-.39,0-.61.16-.65.47a1.94,1.94,0,0,1-.52,1l-1.35,1.17c0,.16,0,.23-.12.23h-.12v.12c0-.08-.15.25-.46,1s-1.49,1.92-3.52,3.6h.12l-.12.12a2.17,2.17,0,0,0-1.38.79l-1,1c0,.07,0,.11-.12.11a7.1,7.1,0,0,1-1.17-.17,8.86,8.86,0,0,1-1.67-.56,5.11,5.11,0,0,1-1.52-1,2.16,2.16,0,0,1-.68-1.64,2,2,0,0,1,.12-.82,2.48,2.48,0,0,1-.18-1.2,4,4,0,0,0-.17-1.43,2.28,2.28,0,0,0,.47-1.06.22.22,0,0,0-.06-.17.35.35,0,0,1-.06-.24,5.89,5.89,0,0,0,.76-2.87v.12c.31,0,.53-.31.65-.94s.25-1.32.41-2.08a17.65,17.65,0,0,1,.58-2.17,1.83,1.83,0,0,1,1.11-1.26h.12a10,10,0,0,1,.41-1.55,11.71,11.71,0,0,1,2.23-3.49l.58-1h-.35c0-.16.34-.43,1-.82a4.24,4.24,0,0,0,1.61-2.64l.47-.35.76-.7A6.31,6.31,0,0,1,793,359l.35-.33h.23a12.33,12.33,0,0,1,1.47-1.05c.39-.23.84-.48,1.35-.73a3.53,3.53,0,0,1,1.64-.38l.94.05a3.86,3.86,0,0,1,1.69.59,11.9,11.9,0,0,0,4.16,1.41,2.2,2.2,0,0,0,.5-.06,2.1,2.1,0,0,1,.38-.06c.32,0,.47.08.47.23v.65l-.23.35h.23l.24.47.23.35.35.47-.23,1.58v.82l-.24.82A9,9,0,0,0,805.3,366.57Zm-4.54-1.84a2.54,2.54,0,0,1,.7-1,.1.1,0,0,1-.11-.11h.23l.12-.24v-.23c0-.39,0-.53.06-.41s.21-.06.53-.53V362a1.23,1.23,0,0,0-1-1.38,8.7,8.7,0,0,0-1.76-.21,2.84,2.84,0,0,0-1.55.79,2.84,2.84,0,0,1-1.55.8h-.24c-.08,0-.23.11-.47.35a8.93,8.93,0,0,0-.73.82l-.67.82-.3.41-.11.11a1,1,0,0,0-.71.36l-.23.35h.12a1.67,1.67,0,0,0-.3,1c0,.53-.43.79-1.17.79v.12l.35.24c0,.15-.15.29-.47.41a1.85,1.85,0,0,0-.7.41,2,2,0,0,1,.24.58,3.11,3.11,0,0,1-.42.79,2.4,2.4,0,0,1-.82.91l-.23.59a2,2,0,0,0-.41.91,4.34,4.34,0,0,0-.18.9v.71l-.35.47c-.23,0-.35.13-.35.41a.24.24,0,0,0,.06.17.24.24,0,0,1,.06.18,1.06,1.06,0,0,1-.12.47l-.23.46a4.23,4.23,0,0,0-.35.59.24.24,0,0,0,0,.18.22.22,0,0,1,.06.17c0,.31-.21.49-.64.53a1.33,1.33,0,0,1,.32.53,1.61,1.61,0,0,1,.09.41c-.31,0-.49.08-.53.23a.35.35,0,0,0,.12.24.31.31,0,0,1,.12.23,2.24,2.24,0,0,1-.24,1,2.44,2.44,0,0,0-.23,1.08,1,1,0,0,0,.11.59v.23a.19.19,0,0,0,.12.18c.78-.16,1.23-.41,1.35-.76l.7-.36a6.23,6.23,0,0,0,1.32-1.05,8.26,8.26,0,0,1,1-1l.93-1.05,1-1.23c.23-.31.49-.63.76-.94s.59-.62.94-.94l.41-.76c.27-.47.59-1,.94-1.55a15,15,0,0,1,1.08-1.55c.37-.47.71-.71,1-.71a2.28,2.28,0,0,0-.47-.35,5.12,5.12,0,0,0,1.55-2.34c.41-1.1.69-1.64.85-1.64A5.09,5.09,0,0,1,800.76,364.73Zm-6.85,13c0,.15.11.23.35.23s.21-.08.17-.23a.48.48,0,0,1,.18-.47h-.35l-.24.23A.37.37,0,0,0,793.91,377.77Zm.93-1.23a.18.18,0,0,1,.18.11h.12v-.23Zm2.17-2.82s0,.06-.12.06l-.11.24a1.75,1.75,0,0,1-.65.85.92.92,0,0,0-.41.84H796a.48.48,0,0,0,.23,0,.53.53,0,0,1,.24-.06v-.12a3.35,3.35,0,0,0,.52-.85,2.43,2.43,0,0,0,.3-.85l-.12-.12Q797,373.66,797,373.72Zm.38-.58a.74.74,0,0,0,.27.06.71.71,0,0,1,.11-.47.74.74,0,0,1-.32.17.71.71,0,0,0-.32.18A.69.69,0,0,1,797.39,373.14Zm.38-.53.24-.23-.12-.12A.48.48,0,0,1,797.77,372.61Zm2-.47c-.16.31-.32.65-.47,1a3.1,3.1,0,0,0-.24,1.29l-.23.82c-.08,0-.12.15-.12.46v.94c-.08,0-.12.22-.12.65l-.23.35a.66.66,0,0,1,.12.47l-.12.11-.24.36v1.34c.4,0,.55-.22.47-.67s0-.67.12-.67V378a3.72,3.72,0,0,1,.29-1.32,3.54,3.54,0,0,0,.3-1.32v-.11a5.29,5.29,0,0,1,.44-1.26,2.83,2.83,0,0,0,.32-1.15v-.23a.11.11,0,0,0,.12-.12l.23-.7.23-.65A11.75,11.75,0,0,0,799.77,372.14Zm1.81-2.64a2.58,2.58,0,0,0,.47-1.46v-.12a.77.77,0,0,1,.24-.58v-.24a1.78,1.78,0,0,1,.32-.61c.21-.34.4-.5.55-.5v-.12a3.06,3.06,0,0,1,.36-1.32c.23-.49.31-.73.23-.73v-.12l-1.58,2.87-.82,2.29-.24,1v.23A3.29,3.29,0,0,0,801.58,369.5Zm2.52-6.38-.23.35h.35v-.24C804.14,363.23,804.1,363.2,804.1,363.12Zm11.08,18.1a3.1,3.1,0,0,1-.53.24v.11a.33.33,0,0,0,.23.12h.53v-.47Zm1.17-.93H816l.11.11a.37.37,0,0,1-.11.24l.11.23a.11.11,0,0,0,.12.12l.12-.12a.33.33,0,0,0,.23-.12v-.11C816.58,380.56,816.5,380.44,816.35,380.29Zm1.23-.83h-.18c-.08,0-.11,0-.11-.11l-.83.82.12.12.82-.47v-.12Zm.7-3h-.23c0,.31-.08.46-.24.44s-.23,0-.23.09v.11l.58-.23C818.24,376.83,818.28,376.69,818.28,376.42Zm.24-.24a.11.11,0,0,0-.12.12.11.11,0,0,1-.12.12h.12Q818.52,376.42,818.52,376.18Zm1.28.77-.11-.12C819.69,376.91,819.73,377,819.8,377Zm3.08-4.69a1.48,1.48,0,0,0,1-1.35l1.11-.59.59-1.23v1.59a3,3,0,0,0-.88.35l-.71.47a1.54,1.54,0,0,1-.23.67c-.16.29-.35.62-.59,1a9.58,9.58,0,0,1-.67.9c-.22.26-.36.39-.44.39V374c0-.32-.08-.47-.23-.47A1.44,1.44,0,0,1,822.88,372.26Zm-.91.23h.12v.12a.11.11,0,0,1-.12-.12l-.11.12C821.86,372.53,821.89,372.49,822,372.49Zm.53-.58c0,.31-.1.47-.29.47s-.12.07-.12,0l.12-1h.41v.41Zm1-1.35c0,.23,0,.35-.17.35a.64.64,0,0,0-.41.23l-.12-.35.35-.23v-.24a.35.35,0,0,1,.24.12C823.52,370.44,823.55,370.48,823.55,370.56Zm1.29-1.7V369a1.33,1.33,0,0,1-.35.52h-.23V370H824c0,.08,0,.12-.11.12h-.36V370h-.23v-.11l1.41-1.35v.23C824.73,368.82,824.77,368.86,824.84,368.86Zm-.35,3.87h-.23l.23-.24Zm.35-4.34.41-.35.12.12v.35Zm1.18-.64c-.12.19-.22.29-.3.29s-.11-.08-.11-.24v-.23l.23-.23.23-.24q0,.12.24.12h.12A2.35,2.35,0,0,0,826,367.75Zm.87,1.64c0,.23-.15.35-.46.35v-.24l-.59-.41V369q0-.12.06-.12s.06,0,.06-.12v-.35l.35.59c.08,0,.12,0,.12.11l.23-.11C826.82,369,826.89,369.11,826.89,369.39Z" transform="translate(-463.61 -295.21)" style="fill:#333"/><path d="M825,362.77a.57.57,0,0,0,.41-.47l.24-.47a7.19,7.19,0,0,0,.82-1.32c.23-.49.46-.95.7-1.38a1.71,1.71,0,0,1,1.46-.93,1.47,1.47,0,0,1,1.06.46v.24l-.24.12-.11.29a.66.66,0,0,0,.47.12,1.33,1.33,0,0,1,.73.52,3.78,3.78,0,0,1,.26.88,1.89,1.89,0,0,0,.06.47,2.15,2.15,0,0,1,.06.53,3.31,3.31,0,0,1-.47,1.64q-.58,1.17-1.14,2.4A11.56,11.56,0,0,1,828,368a3.48,3.48,0,0,1-.62,1,1.56,1.56,0,0,0-.38,1c0,.08-.08.2-.23.35-.24.55-.45,1.09-.65,1.61a10.15,10.15,0,0,1-.76,1.61,18.31,18.31,0,0,0-1.14,2.82,31.53,31.53,0,0,1-1.14,3l-.12.12h.23a1.51,1.51,0,0,0,.82-.53,12.6,12.6,0,0,1,1.2-2c.65-.92,1.09-1.53,1.32-1.84l.82-1.59.38-.35a3.51,3.51,0,0,0,.38-.35l2.52-3.22a5.46,5.46,0,0,0,.77-1.26,3.36,3.36,0,0,1,1-1.26l.53-.65.88-1.11a10.86,10.86,0,0,0,.76-1.11c.63-.71,1.26-1.47,1.9-2.29s1.3-1.62,2-2.4l1.76-1.93c.23-.32.45-.6.67-.85a11.4,11.4,0,0,1,.79-.85l2.29-1.82a1.62,1.62,0,0,1,1.17-.35c.31,0,.49.12.52.35a1.55,1.55,0,0,0,.59.79,3.62,3.62,0,0,1,.59.44l.23.24a2.32,2.32,0,0,1,1,.52,3.19,3.19,0,0,1,.5.94v1.06a1.84,1.84,0,0,1,.05.79,1.57,1.57,0,0,0,.18.9,3.66,3.66,0,0,1,.23.94.67.67,0,0,1-.11.47.53.53,0,0,1-.06.24.94.94,0,0,0-.06.41,5.94,5.94,0,0,0,.06.87,5.4,5.4,0,0,1,.06.77,2.05,2.05,0,0,1-.12.76v.47a7.76,7.76,0,0,1-.12,1.37c-.08.45-.15.91-.23,1.38a2,2,0,0,0-.06.82.93.93,0,0,1-.18.7l-.41,2.29a1.3,1.3,0,0,1,0,.38,1,1,0,0,0-.06.38c0,.16,0,.26.06.29a.59.59,0,0,1,0,.3,5.2,5.2,0,0,1-.11,1.08,8.92,8.92,0,0,1-.35,1.08,3.56,3.56,0,0,1-.06.59,3.56,3.56,0,0,0-.06.59,1.26,1.26,0,0,0,.35.76,1.64,1.64,0,0,0-.23.94,2,2,0,0,0,.11.82c.08.31.2.46.35.46a.81.81,0,0,0,.41-.23c.24-.16.49-.31.77-.47a1.8,1.8,0,0,0,.64-.58l1-1a1.92,1.92,0,0,0,.5-1,1,1,0,0,1,.7-.7c.55-.63,1.08-1.2,1.61-1.73a8.71,8.71,0,0,0,1.38-1.79,2.88,2.88,0,0,1,.49-.58,1.76,1.76,0,0,0,.39-.47l.82-.59a24.47,24.47,0,0,1,3.34-3.4,3,3,0,0,1,1.14-.76,5.2,5.2,0,0,0,1.14-.52.94.94,0,0,1,.7-.24,2.07,2.07,0,0,1,.77.12.31.31,0,0,0,.23.12c.08,0,.12.07.12.23.23.23.47.45.7.64a3.09,3.09,0,0,0,1,.53c.07,0,.19.1.35.29a13.1,13.1,0,0,1,1.17,1.29A17.72,17.72,0,0,1,868,370a.47.47,0,0,0,.06.3s.06.13.06.29l.46,1.93v1.94a6.21,6.21,0,0,0,.24,1.4,2,2,0,0,1,.12.82,1.71,1.71,0,0,1-.12.65l-.12.23.24.24v1.58a1.68,1.68,0,0,0,.52,1.23,1.77,1.77,0,0,0,1.29.53H871a12,12,0,0,1,1.61-.36,7.72,7.72,0,0,0,1.49-.35,3.78,3.78,0,0,0,1-.35,10,10,0,0,1,1-.47l.94-.41h.59c.15,0,.25.1.29.29v.12a2,2,0,0,0-.38.53,2.45,2.45,0,0,1-.38.53,1.13,1.13,0,0,0-.71.93l-.23.65q0,.12.06.12s.06,0,.06.11-.16.2-.47.35a2.36,2.36,0,0,0-1.11.82.7.7,0,0,1-.59.36h-.35a2.69,2.69,0,0,0-1.35.64,3,3,0,0,1-.94.35,3.49,3.49,0,0,1-1.2-.23,12.85,12.85,0,0,1-1.2-.53,2.26,2.26,0,0,1-1.35-.94,5.56,5.56,0,0,1-.93-1.2,6,6,0,0,0-.94-1.2l-.5-1a4.41,4.41,0,0,1-.38-1.18,2.91,2.91,0,0,0-.12-.93v-1.7a.49.49,0,0,0-.12-.36l-.35-5.27a2.64,2.64,0,0,1-.17-.47,1.09,1.09,0,0,0-.3-.47.3.3,0,0,0-.46,0,2.47,2.47,0,0,0-1.7,1.06l-1.82,1.7a1.39,1.39,0,0,0-.29.35.59.59,0,0,1-.3.23,1.76,1.76,0,0,1-.7.59,4.3,4.3,0,0,0-.41.47,2.27,2.27,0,0,1-.41.41l-.41.58a9.28,9.28,0,0,1-1,1.79,5.39,5.39,0,0,1-1.4,1.32,3.89,3.89,0,0,0-1.17,1.7c0,.16-.16.39-.47.7l-.56.59a1.06,1.06,0,0,0-.32.7,2.76,2.76,0,0,0-.24.53c-.15.31-.29.6-.41.88a1.25,1.25,0,0,1-.64.64l-.35.35a2.8,2.8,0,0,1-.56.44,4.36,4.36,0,0,0-.56.44,1,1,0,0,1-.64.59l-.88.23a2.14,2.14,0,0,1-.67-.11l-.68-.24-1.29-1.05v-.18c-.39-.31-.75-.62-1.08-.94a6.65,6.65,0,0,1-1-2.4c-.07-.39-.13-.77-.17-1.14a4.19,4.19,0,0,0-.3-1.14,1.29,1.29,0,0,1,.12-.59v-.47a5.57,5.57,0,0,0-.06-.85,5.48,5.48,0,0,1-.06-.85v-.94q.12-.58.24-1.2a6.26,6.26,0,0,0,.12-1.2v-.35a10.87,10.87,0,0,1,.11-1.55,10,10,0,0,0,.12-1.61v-.47q0-.24.12-.24a6,6,0,0,0,.23-1.61,5.71,5.71,0,0,1,.24-1.61l.23-2.28a3.81,3.81,0,0,0,.12-1.12,3,3,0,0,0-.12-.94v-.11c0-.24-.15-.43-.47-.59h-.23a6.33,6.33,0,0,1-.91.94,3.18,3.18,0,0,0-.79,1,13.67,13.67,0,0,0-.88,1.23,4.07,4.07,0,0,1-1.17,1.17c-.16,0-.28.11-.35.35a2.73,2.73,0,0,1-.82,1.29,8.43,8.43,0,0,0-1.47,1.7,3.46,3.46,0,0,1-.64.88,3,3,0,0,0-.65.93,3,3,0,0,0-.91.82c-.21.32-.44.67-.67,1.06l-2.64,3.28a20.58,20.58,0,0,1-1.7,2.4c-.23.16-.35.32-.35.47a.7.7,0,0,1-.23.47l-.59.7a5.79,5.79,0,0,0-.76,1.26,6.76,6.76,0,0,1-.82,1.38,1.6,1.6,0,0,1-.47,1,7.45,7.45,0,0,0-.82,1.31c-.23.49-.43.93-.58,1.32a1.26,1.26,0,0,0-.24.71c0,.23-.17.43-.53.58a1.09,1.09,0,0,0-.35.76,10.5,10.5,0,0,1-.82,1.56,4.56,4.56,0,0,1-1.11,1.2L821.27,391a1.67,1.67,0,0,1-1.23.47,3,3,0,0,1-1.29-.35l-.23-.12h-.36l.24-.24v-.58l-.35-.47c-.32-.39-.57-.68-.76-.88a.67.67,0,0,1-.24-.47,2,2,0,0,1,.24-.58v-1.12a4,4,0,0,1-.12-1.17,7.57,7.57,0,0,1,.06-1c0-.3.09-.64.17-1v-.82l.12-.12.12-1h.11v-.12l.3-.23v-.24l.23-.12v-.35l.12-.11v-.24h.12v-.7l.11-.18V378l.12-.12.12-.58H819l.12-.76.24-.24v-.12l.11-.35v-.58h.12v-.36l.12-.11v-.35h.11v-.53l.12-.12.35-1.17.18-.12.59-1.7.11-.11.94-2.29h.12v-.12l.11-.11v-.71h.12V367h.12v-.29l.12-.12,1.11-2v.12l.12-.24-.12.12a1,1,0,0,1,.23-.41v.18l.47-.53h-.23Zm-.7,1.17-.12.11C824.14,364,824.18,363.94,824.26,363.94Z" transform="translate(-463.61 -295.21)" style="fill:#333"/><path d="M889.18,367.16a.19.19,0,0,0-.12.18c-.23.15-.35.31-.35.46a1,1,0,0,1-.12.47v.24l.12.11h-.12l-.11.12v.35h-.12l-.12.12v.18l-.17.23-.24.24v.23l-.23.23-.12.24v.12h-.12l.12.35-.23.23v1l-.12.12v.23l-.12.12v.47l-.12.11v.47l-.11.12v.41l-.12.12c-.31.31-.47.54-.47.7l.12.47c-.08,0-.12.08-.12.23v.35a.9.9,0,0,0-.23.65l-.24.23v.47a.79.79,0,0,0,.06.35.53.53,0,0,1,.06.24.46.46,0,0,1-.06.29.24.24,0,0,0-.06.18.25.25,0,0,0-.06.29c0,.12,0,.17-.23.17l.12,1.94v.23a1.5,1.5,0,0,0,.17.76l-.17.12a4.58,4.58,0,0,1,.29.7v.12q0,.12.06.12s.06,0,.06.12.15.07.23.23.16.23.24.23l.41.42c.11.11.25.27.41.46a1,1,0,0,1,.29.06.93.93,0,0,0,.29.06H888c.16.16.25.24.29.24H889c.07,0,.11-.11.11-.33a.74.74,0,0,1,.24-.55l.11-.12H890a.11.11,0,0,0,.12-.12h.11l.12-.12.24.12v-.12c0-.07,0-.11.17-.11h.12c0,.08,0,.11.12.11l.23-.11h.12c.15-.16.27-.24.35-.24h.23l.41-.17a1.08,1.08,0,0,0,.41-.3l.88-.58.24-.12c.08,0,.27-.17.58-.53h.24l1.11-.82c.16-.31.27-.46.35-.46a1.54,1.54,0,0,0,.71-.71l.23-.12a.37.37,0,0,0,.35-.2q.12-.21.24-.21a3.1,3.1,0,0,0,.61-.52l.5-.53.12-.12.23-.23c-.08,0,0-.08.35-.24.16-.15.24-.27.24-.35a.35.35,0,0,1,.11-.23q.12,0,.24-.18c0-.15.15-.31.47-.47.31,0,.49-.11.52-.35v-.12h.24a.31.31,0,0,0,.23-.11l.12-.47,1.58-1.35.12-.12.23-.23c0-.16.1-.25.3-.29a.87.87,0,0,0,.52-.41h.12l.24-.12h.11v-.12l-.11-.11v-.12a.27.27,0,0,0,.29-.18.82.82,0,0,1,.17-.29h.24v.35l.12-.12a.84.84,0,0,0,.52-.64.35.35,0,0,1,.24.12.86.86,0,0,1-.24.52l-.23.24q-.12,0-.12.06s-.06.06-.17.06h-.12v.35l-.47.35h-.23l.23.23-.23.12-.36.35a3.92,3.92,0,0,1-.7.53l-.64.47v.35h.17a1.33,1.33,0,0,1,.71-.47c.07,0,.23-.12.46-.35q.12,0,.3-.27a2.67,2.67,0,0,1,.41-.49,27.45,27.45,0,0,0,.79-.41,1.15,1.15,0,0,0,.44-.3l-.24.47c-.15,0-.23.12-.23.35h.23v.12l-.64.53a.11.11,0,0,1-.12.12l-.23.23-.35.35.23.47.12.12c-.39.15-.59.27-.59.35v.12l-.12.11a1.08,1.08,0,0,1-.35-.11c-.08,0-.11,0-.11-.12a.11.11,0,0,0-.12.12h-.12c-.16,0-.23,0-.23.11h-.12a2.86,2.86,0,0,1-.53.65,1.85,1.85,0,0,0-.35.47,2,2,0,0,1-.35.47l-.12.11.12.12.23.23.12-.11h.35a.66.66,0,0,1-.23.29,1.66,1.66,0,0,0-.35.29q-.12,0-.12.06s0,.06-.12.06,0,.12-.06.12-.06,0-.06.11v.3l-.58.47v.11a1.18,1.18,0,0,1-.59.94,4.51,4.51,0,0,0-.88.59v.11h-.11q-.24,0-.3.15c0,.1-.13.15-.29.15s-.27.23-.35.23a.93.93,0,0,0-.12.41c0,.12-.08.18-.23.18a2.25,2.25,0,0,0-.73.52,1.45,1.45,0,0,1-.85.41.69.69,0,0,1-.47.24v.35c0,.16,0,.25-.12.29H896c0,.08-.23.24-.68.47s-1,.47-1.52.71-1.07.44-1.5.64a3.09,3.09,0,0,1-.76.29h-.7c-.08.16-.59.33-1.52.5a15.73,15.73,0,0,1-1.65.27,7.64,7.64,0,0,1-1.78-.56c-1-.37-1.48-.75-1.55-1.14a1.09,1.09,0,0,1-.3-.47c0-.16-.35-.32-.94-.47a5.1,5.1,0,0,1-.23-.65c-.08-.07-.12-.13-.12-.17s0-.1-.11-.18a.33.33,0,0,1-.12-.23.79.79,0,0,1-.59-.24c-.15-.15-.23-.27-.23-.35-.16-.39-.31-.75-.47-1.08a2.48,2.48,0,0,1-.23-1.09c-.32-.15-.49-.31-.53-.46a1.84,1.84,0,0,0-.06-.47,2,2,0,0,1-.06-.47v-.3a.24.24,0,0,1,.06-.17.24.24,0,0,0,.06-.18,2.49,2.49,0,0,1-.12-.82c0-.23,0-.35.12-.35v-1l.29-.71h.12l-.12-.12a.18.18,0,0,1-.18-.11h.18l.12-.12a.29.29,0,0,1,0-.47v-.12c0-.07,0-.11-.06-.11s-.06,0-.06-.12l.12-.12V374a.68.68,0,0,1,.23-.47,1,1,0,0,1,.24-.71.8.8,0,0,0,.23-.58v-.12a2.2,2.2,0,0,1,.35-.88V371c-.15-.32-.23-.43-.23-.35l.12-.12c0-.08,0-.12,0-.12s.06,0,.06-.12v-.11c.16-.16.24-.28.24-.35a1.27,1.27,0,0,0,.29-.74,2,2,0,0,1,.29-.85.68.68,0,0,1,.35-.58.52.52,0,0,1,.18-.47v-.35a.64.64,0,0,0,.23-.41v-.35a.35.35,0,0,0,.12-.24c0-.23.08-.35.24-.35s.11-.08.11-.23l.36-1.12v-.35a.31.31,0,0,0,.35-.35c0-.39.07-.59.23-.59a2,2,0,0,0,.24-.58v-.47c0-.08.07-.18.23-.29l.12-.12a1.12,1.12,0,0,0,.14-.18.66.66,0,0,1,.15-.17v-.24a1.25,1.25,0,0,0,.12-.58l.11-.12q.12,0,.12-.24l.47-.58h.12V359l.23-.24a.21.21,0,0,0,.24-.23v-.12l.11-.12h.12l.12-.11h2.17l.11.11h.24v.24h.23v.11l.24.36h.17v.29h.12v.12l.12.11h.11v.35h.12V361l-.12.12v.35H891l.11.53-.11.11v.24l-.12.11v.24l-.12.23v.24a1.18,1.18,0,0,0-.14.35.51.51,0,0,1-.15.23q0,.12-.06.12s-.06,0-.06.12a.35.35,0,0,0-.23.11,1.18,1.18,0,0,1-.12.5,1.22,1.22,0,0,0-.12.5.51.51,0,0,1-.11.35.35.35,0,0,0-.12.24.74.74,0,0,0-.24.55,2.1,2.1,0,0,1-.11.68C889.3,367,889.26,367.12,889.18,367.16Zm-4.28,2.43a4.49,4.49,0,0,1,.41-.85c.08,0,.22-.15.41-.47a3.14,3.14,0,0,1,.3-.64,1.31,1.31,0,0,0,.17-.65v-.11a1,1,0,0,1,.24-.65V366c0-.16.15-.39.46-.7a.32.32,0,0,1,.36-.36v-.11a2.73,2.73,0,0,1,.11-.88.54.54,0,0,1,.18-.41.72.72,0,0,0,.17-.53c0-.16.08-.23.24-.23.08-.24.17-.36.29-.36h.24v-.23a.11.11,0,0,1-.12-.12c0-.08,0-.11.12-.11l.11-.53q0,.12.12,0h-.12V361h.24v-.12l-.12-.23a.2.2,0,0,0-.23.23V361a.68.68,0,0,1-.12.47c-.24,0-.37.13-.41.41h-.12a.11.11,0,0,0-.12.12c-.07,0-.15.05-.23.17a2,2,0,0,1-.23.29v.94a1.06,1.06,0,0,0-.59.59.2.2,0,0,0-.23.23v.29l-.36.94a.56.56,0,0,0-.29.3.63.63,0,0,1-.23.29v.12c0,.15,0,.25-.12.29s-.12.14-.12.29v.18a.49.49,0,0,1-.06.23.52.52,0,0,0,0,.24c-.08,0-.12,0-.12.11a.11.11,0,0,1-.12.12,3.27,3.27,0,0,1-.7,1.64v.18a1.87,1.87,0,0,1-.12.58,2.21,2.21,0,0,0-.12.71v.46a.46.46,0,0,0-.23.44,1.22,1.22,0,0,1-.12.56,6.38,6.38,0,0,1-.38.7.89.89,0,0,0-.15.47l-.23.47v.35c-.08,0-.12.18-.12.53v.12a.46.46,0,0,1-.06.29.57.57,0,0,0-.05.29l.11.24c-.15,0-.23.19-.23.58l-.24.36a.75.75,0,0,1,.12.52l-.12.12-.23.35v1.29c.16,0,.23,0,.23-.12s.12,0,.12-.11a.53.53,0,0,1,.06-.24.49.49,0,0,0,.06-.23V378c0-.31,0-.47.12-.47l.11-.12V377a4.11,4.11,0,0,1,.06-.62,4.11,4.11,0,0,0,.06-.62.93.93,0,0,0,.23-.7c0-.23.06-.35.18-.35a.48.48,0,0,0,.12-.35v-.18a2.13,2.13,0,0,0,.11-.7,1.23,1.23,0,0,1,.24-.7,1.3,1.3,0,0,0,.35-.94v-.29a.11.11,0,0,0,.12-.12l.23-.7C884.65,370.29,884.79,369.92,884.9,369.59Zm6.21-22.53a2.45,2.45,0,0,1-.17-.5,2.74,2.74,0,0,1-.06-.61v-.12a.33.33,0,0,1,.12-.23l.11-.12.12-.12a.91.91,0,0,0,.59.12h.35a.66.66,0,0,0,.47.12,1.87,1.87,0,0,0,1.11.58c.16,0,.31.12.47.36l1.29,1.11c.15.47.25.66.29.58a.52.52,0,0,1-.18.47l-.11.12a1.43,1.43,0,0,0-.12.64.93.93,0,0,1,.12.59c0,.31-.08.47-.24.47a2,2,0,0,0-.82.12.37.37,0,0,0-.23.11c-.08,0-.12,0-.12-.05s0-.06-.12-.06l-.46-.35-.24-.36v-.11c0-.08-.14-.24-.41-.47a.64.64,0,0,1-.23-.41,1.85,1.85,0,0,0-.35-.47l-.47-.47A3,3,0,0,0,891.11,347.06Zm8.5,33.11-.47.23v.12a.35.35,0,0,0,.24.12h.46v-.47Zm1.23-1h-.41l.12.18a.33.33,0,0,1-.12.23l.12.12v.12c0,.07.06.11.17.11l.12-.11a.31.31,0,0,0,.23-.12v-.12A.85.85,0,0,0,900.84,379.17Zm1.17-.82h-.12c-.07,0-.11,0-.11-.12h-.12l-.7.82.11.12.12-.12h.24l.11-.11.35-.24v-.11Zm.82-2.87v-.12h-.35v.35h-.12a.48.48,0,0,0-.35.12V376l.59-.24A.2.2,0,0,0,902.83,375.48Zm.12-.23a.11.11,0,0,1,.12-.12c0,.16,0,.23-.12.23h-.12C902.91,375.36,903,375.32,903,375.25Zm1.46.58v-.12h-.11C904.3,375.79,904.34,375.83,904.41,375.83Zm2.47-4.07c.42-.49.68-.73.76-.73l.11-.12a1.84,1.84,0,0,0,.36-.47c.15-.15.33-.35.52-.58l1.06-.65.58-1.17v1.58a2.9,2.9,0,0,0-.82.35l-.7.47c0,.08-.17.29-.5.65s-.5.58-.5.7a.33.33,0,0,1-.11.23,1.4,1.4,0,0,0-.24.36l-.23.46-.24.24-.23.23V373c0-.31-.08-.47-.24-.47S906.45,372.25,906.88,371.76Zm-.3-.38h.12l-.12.12h-.12A.11.11,0,0,1,906.58,371.38Zm.47-.59c0,.24,0,.35-.12.35a.31.31,0,0,1-.23.12v-.12l.12-.82h.35v.36Zm1.23-1.29c0,.16-.17.32-.53.47l-.23.12h-.12v-.35h.12l.23-.24-.11-.11.11-.18h.12a.94.94,0,0,1,.24.18A.2.2,0,0,1,908.28,369.5Zm1.29-1.7v.12l-.12.12v.23a.33.33,0,0,1-.23.12H909v.47h-.23a.11.11,0,0,1-.12.12h-.35v-.12H908v-.12l.88-.58.58-.71v.12C909.45,367.73,909.49,367.8,909.57,367.8Zm.12-.35-.12-.11.35-.36.12.12v.35Zm1.11-.88q0,.12-.18.12a.51.51,0,0,1-.23.29c-.08,0-.12-.09-.12-.29v-.23l.24-.24c.16-.15.25-.23.29-.23s.08.12.24.12h.11l-.23.23A.35.35,0,0,0,910.8,366.57Zm.7,1.47q0,.12.06.12s.06,0,.06.11a.11.11,0,0,1-.12.12c-.23.23-.35.31-.35.23v-.23l-.64-.35v-.12q0-.12.06-.12s0,0,0-.11v-.35l.3.58H911c.07,0,.11,0,.11.12l.24-.12C911.46,367.92,911.5,368,911.5,368Z" transform="translate(-463.61 -295.21)" style="fill:#333"/><path d="M948.3,377.88V378q0,.12-.06.12s-.06,0-.06.11a1.35,1.35,0,0,1-.35.59c-.15.16-.31.33-.47.53a2,2,0,0,1-.88.82l-.7.7a.35.35,0,0,1-.12.24.49.49,0,0,0-.11.35,1.79,1.79,0,0,1-.24.61,3.51,3.51,0,0,1-.35.38l-1.35,1.06a1.49,1.49,0,0,0-.93,1.23c-.16.15-.24.27-.24.35h-.12v.59h.12v.46a4.18,4.18,0,0,0-1.46,1.12l-.71.47a6.29,6.29,0,0,1-.88.47,3.92,3.92,0,0,1-1.17.23h-.35c-.08-.08-.33-.12-.76-.12l-1.41-.23c-.23-.08-.48-.18-.73-.29a2.24,2.24,0,0,1-.61-.41.75.75,0,0,0-.3-.18.58.58,0,0,1-.29-.29l-2.4-2.29-.35-.53a27.11,27.11,0,0,1-2.06-5.74,2.14,2.14,0,0,1-.23-.94,4.45,4.45,0,0,0-.12-1,.75.75,0,0,1-.11-.47V373.2a4.35,4.35,0,0,0-.24-1.41l.12-.18-.12-.11c-.15-.16-.27-.24-.35-.24h-.12l-1.7,1c.08,0,0,.12-.23.35a2.78,2.78,0,0,1-1.23,1.17v.53a.69.69,0,0,1-.24.47l-.11.11a1.44,1.44,0,0,0-.53.71,1.41,1.41,0,0,1-.53.7,5.45,5.45,0,0,0-.64.5.91.91,0,0,0-.29.73.66.66,0,0,1-.41.24,7.74,7.74,0,0,1-2.11,2.4l-1.12.82a2.53,2.53,0,0,0-.23,1.11,1.93,1.93,0,0,1-.53.82,1.29,1.29,0,0,0-.41.59h-.23c-.47,0-.73.37-.77,1.11a.45.45,0,0,1-.35.47c-.08,0-.13.08-.17.23a.54.54,0,0,1-.3.36,7.72,7.72,0,0,1-.52,1.08,4.45,4.45,0,0,1-.82,1,4.84,4.84,0,0,1-.82.58,3.85,3.85,0,0,0-1.44,1l-1.32,1.32c0,.08,0,.11-.12.11l-.11-.11c-.16-.24-.31-.35-.47-.35h-.65a.45.45,0,0,1-.46-.24.39.39,0,0,0-.36-.23c-.46,0-.74-.37-.82-1.12a.1.1,0,0,1-.11-.11l.11-.12c0-.16-.15-.39-.46-.7a.62.62,0,0,1-.41-.59,4,4,0,0,1-.12-1c-.08,0-.12,0-.12-.11v-.35a2.91,2.91,0,0,0,.24-1.09v-1.08a10.15,10.15,0,0,1,0-1.12c0-.35.1-.78.18-1.28a8.24,8.24,0,0,0,.26-1.67c0-.49.07-1.05.15-1.67a7.75,7.75,0,0,1,.59-2.06l1-4.57,1.46-4.92.47-2.17a2,2,0,0,0,.12-.82.48.48,0,0,1,.12-.35,1.32,1.32,0,0,0,.23-.35,5.75,5.75,0,0,0,.12-1.35,10.1,10.1,0,0,0,.53-1.4,4.3,4.3,0,0,1,.06-.79,4.94,4.94,0,0,0,.05-.68c.16-.62.34-1.22.53-1.78a17.85,17.85,0,0,0,.53-1.91A5,5,0,0,1,914,353l.24-.7c.16,0,.25,0,.29.11s.16.12.35.12H915a1.29,1.29,0,0,1,.59-.12c.47,0,.9.35,1.29,1.06.23.23.31.35.23.35a1,1,0,0,1,.67.73,5.86,5.86,0,0,0,.21.85,5.42,5.42,0,0,0-.12,1.09,1.56,1.56,0,0,1-.23.85,1.57,1.57,0,0,0-.12.7.22.22,0,0,1-.06.17.24.24,0,0,0-.06.18v.23a3.49,3.49,0,0,0-.52,1v.23a.59.59,0,0,0,0,.3s.06.13.06.29a.79.79,0,0,1-.06.35.69.69,0,0,0,0,.24l.11.23a.86.86,0,0,1-.23.53c-.16.08-.24.27-.24.58a1.65,1.65,0,0,0-.35.59,6.24,6.24,0,0,1-.35.82c-.16,0-.23,0-.23.12a.85.85,0,0,0,.23.41l.12.11-.24.47c-.07,0-.11.16-.11.47q0,.12.06.12s0,0,0,.12a1.57,1.57,0,0,1-.11.52,1.47,1.47,0,0,0-.12.53,3.39,3.39,0,0,1-.47,1.47l-.23.7a1.08,1.08,0,0,1-.09.44.87.87,0,0,0-.09.32.66.66,0,0,0-.23.47c0,.08,0,.12.11.12v.23a1,1,0,0,1,0,.35l-.18.35a3.73,3.73,0,0,0-.24,1l-.23.94-.47,1.7a10.67,10.67,0,0,1-.58,2.75l-.36,1.64a4.18,4.18,0,0,0-.11.91,1.69,1.69,0,0,1-.3.91v.58l.12.12q0,.12.18.18A2.17,2.17,0,0,1,913,381a1.66,1.66,0,0,0,.7-.85l.12-.24a2.79,2.79,0,0,0,.85-.67c.25-.29.53-.6.85-.91l2.4-2.87.23-.23a7.89,7.89,0,0,1,2.17-2.64c.16-.16.24-.27.24-.35a1.17,1.17,0,0,1,.7-.76l1.58-1.88.59-.56a1.92,1.92,0,0,1,.93-.44.83.83,0,0,0,.53-.58q0-.12.24-.24.47-.46,1.05-1a3.68,3.68,0,0,1,1.35-.73.21.21,0,0,0,.17-.06.3.3,0,0,1,.36,0,.21.21,0,0,0,.17.06.33.33,0,0,1,.24.11h.23a.85.85,0,0,1,.82.65c.31.47.53.7.65.7.31,0,.5.08.58.23l.47.47.47.47a1.45,1.45,0,0,1,.64,1.23v.24a4,4,0,0,0,.24,1.29,2.53,2.53,0,0,1,.23,1.11,1,1,0,0,0-.12.47.48.48,0,0,0,.12.35,1.6,1.6,0,0,1,.12.7,1,1,0,0,1-.06.38.74.74,0,0,0-.06.27.47.47,0,0,0,.35.47h.24v-1.12l.23-.11c.08,0,.12,0,.12.11a10.42,10.42,0,0,1,.47,3.17,4,4,0,0,0-.24,1.29,2.2,2.2,0,0,0,.24.87v.47a10.23,10.23,0,0,0,1.23,4.69,1.23,1.23,0,0,0,1,.47,10.93,10.93,0,0,0,1.15-.06,2,2,0,0,0,.9-.29,5.14,5.14,0,0,0,1.7-.76,1.28,1.28,0,0,1,.82-.47,3,3,0,0,0,.41-.24l.41-.23q0-.24.3-.24a7.9,7.9,0,0,0,.7-.52c.23-.2.51-.43.82-.71a1.33,1.33,0,0,0,.41-.29l.41-.41a1,1,0,0,1,.44-.29,2.56,2.56,0,0,0,.44-.18,1.39,1.39,0,0,0,.29-.35.59.59,0,0,1,.3-.23l.82-.65a2.63,2.63,0,0,1,.55-.41,1,1,0,0,0,.44-.76l.24-.12a.1.1,0,0,0,.11-.11Z" transform="translate(-463.61 -295.21)" style="fill:#333"/></svg>