<svg xmlns="http://www.w3.org/2000/svg" viewBox="0 0 312.5 164.5"><title>cloud_l</title><path d="M1151.5,775.8942c0,20.2191-19.92,36.6058-44.5,36.6058H903c-35.35,0-64-24.8829-64-55.5865s28.65-55.5866,64-55.5866a73.2769,73.2769,0,0,1,15.51,1.645C918.88,672.5484,947.39,648,982.5,648c26.8,0,49.75,14.3078,59.28,34.6082a72.9439,72.9439,0,0,1,20.72-2.9736c35.35,0,64,24.8829,64,55.5866a49.2352,49.2352,0,0,1-.58,7.529C1141.04,748.5981,1151.5,761.2429,1151.5,775.8942Z" transform="translate(-839 -648)" style="fill:#fff"/></svg>