<svg xmlns="http://www.w3.org/2000/svg" viewBox="0 0 144.5 115.3435"><title>hand</title><path d="M134,635a10.5158,10.5158,0,0,0,10.5,10.5l43,.5H179a10.5045,10.5045,0,0,0-3.21,20.5A10.503,10.503,0,0,0,179,687a10.5,10.5,0,0,0,0,21h37.19a25.9277,25.9277,0,0,0,9.83-1.91h.01a26.3194,26.3194,0,0,0,16.18-20.48,26.6961,26.6961,0,0,0,.29-3.92V628.62a8.6319,8.6319,0,0,0-3.21-6.72l-3.61-1.72h-.01l-43.36-20.61a10.4992,10.4992,0,1,0-8.57,19.17l12.87,5.76H144.5A10.4987,10.4987,0,0,0,134,635Z" transform="translate(-131 -595.6565)" style="fill:none;stroke:#333;stroke-miterlimit:10;stroke-width:6px"/><line x1="65.5" y1="50.3435" x2="56.5" y2="50.3435" style="fill:none;stroke:#333;stroke-miterlimit:10;stroke-width:6px"/><path d="M175.79,666.5c1.01.32,18.59.5,19.71.5" transform="translate(-131 -595.6565)" style="fill:none;stroke:#333;stroke-miterlimit:10;stroke-width:6px"/><line x1="49.5" y1="91.3435" x2="48" y2="91.3435" style="fill:none;stroke:#333;stroke-miterlimit:10;stroke-width:6px"/><polyline points="48 91.343 49.5 91.343 66.5 91.343" style="fill:none;stroke:#333;stroke-miterlimit:10;stroke-width:6px"/><path d="M216.19,708H220a10.3424,10.3424,0,0,0,6.02-1.91" transform="translate(-131 -595.6565)" style="fill:none;stroke:#333;stroke-miterlimit:10;stroke-width:6px"/><path d="M239.29,621.9a8.7012,8.7012,0,0,0-3.61-1.72" transform="translate(-131 -595.6565)" style="fill:none;stroke:#333;stroke-miterlimit:10;stroke-width:6px"/><path d="M242.5,632.26v60.41a7.3278,7.3278,0,0,0,7.33,7.33h9.68a12.9826,12.9826,0,0,0,12.99-12.99V638.53A13.5331,13.5331,0,0,0,258.97,625h-9.21A7.26,7.26,0,0,0,242.5,632.26Z" transform="translate(-131 -595.6565)" style="fill:none;stroke:#333;stroke-miterlimit:10;stroke-width:6px"/><circle cx="126" cy="44.8435" r="5.5" style="fill:none;stroke:#333;stroke-miterlimit:10;stroke-width:6px"/></svg>