<svg xmlns="http://www.w3.org/2000/svg" 
    xmlns:xlink="http://www.w3.org/1999/xlink" viewBox="0 0 2745.31 1779.203">
    <defs>
        <linearGradient id="Unbenannter_Verlauf_8" x1="1440.1894" y1="1744.3949" x2="1440.1894" y2="1687.631" gradientUnits="userSpaceOnUse">
            <stop offset="0" stop-color="#ff8642"/>
            <stop offset="0.1737" stop-color="#fe8f41"/>
            <stop offset="0.4625" stop-color="#fca93e"/>
            <stop offset="0.8286" stop-color="#f8d23a"/>
            <stop offset="0.9949" stop-color="#f6e738"/>
        </linearGradient>
    </defs>
    <title>mountains_day_nobg</title>
    <g id="size_">
        <g style="opacity:0">
            <line y1="1775.5125" x2="2745.31" y2="1775.5125" style="fill:none"/>
        </g>
        <line y1="1779.203" style="fill:none;opacity:0"/>
    </g>
    <g id="MOUNTAINS">
        <line x1="1580.7666" y1="1116.2025" x2="1580.7666" y2="1028.2025" style="fill:none;stroke:#cfbebe;stroke-miterlimit:10;stroke-width:4px"/>
        <polygon points="1542.767 1043.704 1582.767 1062.5 1582.767 1024.908 1542.767 1043.704" style="fill:#83a6a8;fill-rule:evenodd"/>
        <path d="M1483.3961,1165l-257.4982,446h549.6374l-257.4982-446A20,20,0,0,0,1483.3961,1165Z" transform="translate(-102.95 -20.7975)" style="fill:#8baeb4"/>
        <path d="M1879.3961,1369l-139.7188,242h314.0786l-139.7188-242A20,20,0,0,0,1879.3961,1369Z" transform="translate(-102.95 -20.7975)" style="fill:#86adaf"/>
        <path d="M2002.3961,1432,1899.05,1611h241.3324l-103.3457-179A20,20,0,0,0,2002.3961,1432Z" transform="translate(-102.95 -20.7975)" style="fill:#83a6a8"/>
        <path d="M835.3961,1378,700.8735,1611H1004.56L870.0371,1378A20,20,0,0,0,835.3961,1378Z" transform="translate(-102.95 -20.7975)" style="fill:#8dafbe"/>
        <path d="M1177.3961,1072,866.2043,1611h657.0246l-311.1918-539A20,20,0,0,0,1177.3961,1072Z" transform="translate(-102.95 -20.7975)" style="fill:#88adaf"/>
        <path d="M1030.3961,1204,795.4145,1611h504.6042l-234.9816-407A20,20,0,0,0,1030.3961,1204Z" transform="translate(-102.95 -20.7975)" style="fill:#94b8c0"/>
        <path d="M1303.3961,1003l-351.029,608h736.699l-351.029-608A20,20,0,0,0,1303.3961,1003Z" transform="translate(-102.95 -20.7975)" style="fill:#b69c9c"/>
        <path d="M1666.3961,1144l-269.6226,467H1970.66l-269.6226-467A20,20,0,0,0,1666.3961,1144Z" transform="translate(-102.95 -20.7975)" style="fill:#cfbebe"/>
        <path d="M1305.7877,996.8576l-83.116,143.9612a4,4,0,0,0,4.99,5.6976l26.243-10.8267a8,8,0,0,1,7.701.8855l18.5876,13.2768a12,12,0,0,0,12.2244,1.0261l26.0528-12.6744a8,8,0,0,1,8.4748.929l20.8234,16.5362a12,12,0,0,0,16.7257-1.7688l15.2135-18.4734a10,10,0,0,1,12.572-2.3866l16.58,9.2017a5,5,0,0,0,6.7565-6.8718l-79.97-138.5124A17.2384,17.2384,0,0,0,1305.7877,996.8576Z" transform="translate(-102.95 -20.7975)" style="fill:#fff"/>
        <path d="M1668.7877,1138.8576l-83.116,143.9612a4,4,0,0,0,4.99,5.6976l20.7694-18.9924a12,12,0,0,1,15.4667-.6155l34.3466,26.7225a10,10,0,0,0,12.2639.0135l45.2844-35.0729a8,8,0,0,1,8.3685-.8835l42.6984,20.5537a5,5,0,0,0,6.7565-6.8718l-77.97-134.5124A17.2384,17.2384,0,0,0,1668.7877,1138.8576Z" transform="translate(-102.95 -20.7975)" style="fill:#fff"/>
    </g>
    <g id="GROUND">
        <path d="M2237.09,1653.65c-3.87,11.24-17.06,20.35-28.95,20.35H2095.29a4.5414,4.5414,0,0,0-2.7,8.18,12.34,12.34,0,0,1,1.19,1.04,31.4086,31.4086,0,0,1,9.22,22.28c0,10.66-11.82,20.08-20.98,25.78a3.095,3.095,0,0,0,1.64,5.72h38.84a31.4086,31.4086,0,0,1,22.28,9.22c8.06,8.06,11.76,20.49,7.31,33.43-3.87,11.24-17.06,20.35-28.95,20.35H579.5a31.4791,31.4791,0,0,1-31.5-31.5c0-7.8,6.32-14.93,13.3-20.43a6.2157,6.2157,0,0,0-3.89-11.07H528.5a31.4088,31.4088,0,0,1-22.28-9.22c-8.06-8.06-11.76-20.49-7.31-33.43,3.87-11.24,17.06-20.35,28.95-20.35H638.83a5.23,5.23,0,0,0,3.56-9.05c-.05-.06-.11-.11-.17-.17-8.06-8.06-11.76-20.49-7.31-33.43,3.87-11.24,17.06-20.35,28.95-20.35h.17c116.53-28.33,417.97-48.5,771.47-48.5s654.94,20.17,771.47,48.5h.53a31.4086,31.4086,0,0,1,22.28,9.22C2237.84,1628.28,2241.54,1640.71,2237.09,1653.65Z" transform="translate(-102.95 -20.7975)" style="fill:#abcb4b"/>
        <path d="M2046.1258,1716.54c-3.8589,11.3182-17.1435,20.46-29.1015,20.46h-48.8565a5.2309,5.2309,0,0,0-3.562,9.05q.0886.0849.1742.17c8.0411,8.041,11.7438,20.4209,7.3458,33.32-3.8589,11.3182-17.1435,20.46-29.1015,20.46H1608.5a31.4791,31.4791,0,0,1-31.5-31.5c0-8.885,8.2134-16.9095,16.2523-22.6356a4.8834,4.8834,0,0,0-2.83-8.8644H1578.5a31.4086,31.4086,0,0,1-22.28-9.22c-8.0409-8.041-11.7436-20.42-7.346-33.32,3.8586-11.3186,17.1434-20.46,29.1017-20.46h148.8565a5.2309,5.2309,0,0,0,3.562-9.05q-.0886-.0849-.1742-.17c-8.0409-8.041-11.7436-20.42-7.346-33.32,3.8586-11.3186,17.1434-20.46,29.1017-20.46H1951.5a31.4791,31.4791,0,0,1,31.5,31.5c0,6.09-3.8588,11.7757-8.8751,16.5942-5.6138,5.3923-1.6539,14.9058,6.13,14.9058H2016.5a31.4086,31.4086,0,0,1,22.28,9.22C2046.8211,1691.261,2050.5238,1703.6409,2046.1258,1716.54Z" transform="translate(-102.95 -20.7975)" style="fill:#6eced1"/>
    </g>
    <g id="TENT">
        <ellipse cx="1337.05" cy="1729.8245" rx="47.418" ry="14.1275" style="fill:#a6a6a6;opacity:0.30000000000000004"/>
        <path d="M1484.13,1759.15c-1.38,3.97-4.17,6.61-6.23,5.89a1.2814,1.2814,0,0,1-.24-.11.0366.0366,0,0,1-.03-.01l-78.74-27.33a.66.66,0,0,1-.07-.02h-.01a1.1893,1.1893,0,0,1-.27-.07c-2.06-.72-2.62-4.52-1.24-8.49,1.38-3.96,4.16-6.6,6.22-5.89l.01-.03,79.37,27.55-.01.02C1484.95,1751.38,1485.51,1755.18,1484.13,1759.15Z" transform="translate(-102.95 -20.7975)" style="fill:#744818"/>
        <ellipse cx="1480.061" cy="1757.8506" rx="6.6993" ry="3.4837" transform="translate(-768.8666 2558.88) rotate(-70.8585)" style="fill:#9d7549"/>
        <path d="M1482.89,1737.5c-.1.03-.19.06-.29.08-.02,0-.04.01-.06.01l-78.75,27.34a.0349.0349,0,0,0-.02.01,2.43,2.43,0,0,1-.24.1c-2.06.72-4.85-1.92-6.23-5.89s-.82-7.77,1.24-8.49h.01l-.01-.02,79.37-27.55.01.03c2.06-.7,4.83,1.93,6.21,5.89C1485.51,1732.98,1484.95,1736.78,1482.89,1737.5Z" transform="translate(-102.95 -20.7975)" style="fill:#744818"/>
        <ellipse cx="1401.3721" cy="1757.8506" rx="3.4837" ry="6.6993" transform="translate(-601.8741 535.9049) rotate(-19.1415)" style="fill:#9d7549"/>
        <path d="M1474,1710.6786a33.7124,33.7124,0,0,1-33.7163,33.7163c-18.62,0-33.0309-14.8277-33.0309-33.4555,0-6.0087,1.8507-10.6149,4.372-15.2646l.0122-.02c5.5119-8.5361,9.4-20.6054,8.9076-29.0364a.2165.2165,0,0,1,.3592-.1825c6.2239,5.8286,9.4173,14.2622,6.1415,22.8671a.212.212,0,0,0,.3049.2615c13.5139-8.4247,18.1852-31.3014,14.4861-51.554a.2069.2069,0,0,1,.3488-.1884c8.1131,7.9713,17.9931,17.45,17.9931,36.2561,0,18.8833-8.2831,29.5268-5.5537,32.0945a.2223.2223,0,0,0,.27.0153c7.179-4.8117,11.4235-10.7434,12.8232-17.7673a.2113.2113,0,0,1,.3571-.1116C1473.0452,1693.4836,1474.0144,1704.9,1474,1710.6786Z" transform="translate(-102.95 -20.7975)" style="fill:#f6e738"/>
        <path d="M1457.1417,1727.5368a16.8562,16.8562,0,0,1-16.8582,16.8581c-9.31,0-17.0464-7.2316-17.0464-16.4266,0-6.8407,4.8462-11.6618,7.2027-14.3518,2.8977-3.37,15.02-13.5308,15.54-25.9535l.175-.032c4.555,8.7222,3.5611,16.2369,3.5611,21.6049,0,8.7105-3.3838,14.3683-2.3849,15.9012a.3084.3084,0,0,0,.42.0448c3.491-2.3858,5.56-5.3145,6.2493-8.7728a.1058.1058,0,0,1,.1775-.0581C1456.6642,1718.9373,1457.149,1724.6469,1457.1417,1727.5368Z" transform="translate(-102.95 -20.7975)" style="fill:url(#Unbenannter_Verlauf_8)"/>
        <ellipse cx="932.3565" cy="1682.8575" rx="239.0477" ry="25.75" style="fill:#a6a6a6;opacity:0.30000000000000004"/>
        <polygon points="1072.185 1439.502 915.993 1624.336 715 1624.336 854.746 1440.596 1071.064 1437.99 1072.185 1439.502" style="fill:#f8aa31"/>
        <polygon points="1072.367 1439.762 1155.767 1681.673 996.343 1681.673 1072.263 1439.632 1072.367 1439.762" style="fill:#644549"/>
        <rect x="994.1279" y="1646.9234" width="85.1892" height="34.7498" style="fill:#7b7762"/>
        <polygon points="1072.263 1439.632 996.343 1681.673 944.662 1681.673 944.662 1658.217 915.993 1624.336 1072.185 1439.502 1072.263 1439.632" style="fill:#f8aa1d"/>
        <polygon points="726.238 1681.173 726.238 1624.836 915.761 1624.836 944.162 1658.401 944.162 1681.173 726.238 1681.173" style="fill:#d6681b"/>
        <path d="M1018.4792,1646.1335l28.1324,33.2474v22.09H829.6877v-55.3372h188.7915m.4638-1H828.6877v57.3372h218.9239v-23.4562l-28.6686-33.881Z" transform="translate(-102.95 -20.7975)" style="fill:#d57a26"/>
        <line x1="863.2131" y1="1689.879" x2="918.5992" y2="1624.336" style="fill:none;stroke:#ed8545;stroke-linecap:round;stroke-miterlimit:10;stroke-width:3px"/>
        <line x1="918.5992" y1="1624.336" x2="1071.4959" y2="1440.9604" style="fill:none;stroke:#d57a26;stroke-linecap:round;stroke-miterlimit:10;stroke-width:3px"/>
        <path d="M1312.1446,1646.4366l-37.79,19.5468v36.4873H1172.7109l-1.165-2.1637a25.7566,25.7566,0,0,1,2.3469-28.0244l18.1005-23.2721a31.1748,31.1748,0,0,0,6.27-23.4331l-24.249-166.79Z" transform="translate(-102.95 -20.7975)" style="fill:#e5800a"/>
        <path d="M1312.1446,1646.4366l-37.79,19.5468v36.4873H1204.203c-7.6016,0-6.0862-21.9305-2.1719-29.103l10.8121-23.6013c4.0433-6.861,7.4291-15.096,6.27-23.4332l-43.9784-166.0339Z" transform="translate(-102.95 -20.7975)" style="fill:#ffa427"/>
        <line x1="1206.7763" y1="1625.9226" x2="1071.4959" y2="1440.9604" style="fill:none;stroke:#d57a26;stroke-linecap:round;stroke-miterlimit:10;stroke-width:3px"/>
        <line x1="715.8517" y1="1623.2164" x2="853.6955" y2="1441.9781" style="fill:none;stroke:#e3d885;stroke-linecap:round;stroke-linejoin:bevel;stroke-width:2px"/>
        <line x1="667.3997" y1="1680.5536" x2="715.8517" y2="1623.2164" style="fill:none;stroke:#d57a26;stroke-linecap:round;stroke-miterlimit:10;stroke-width:3px"/>
        <line x1="1243.4374" y1="1675.667" x2="1206.7763" y2="1625.9226" style="fill:none;stroke:#d57a26;stroke-linecap:round;stroke-miterlimit:10;stroke-width:3px"/>
        <line x1="1071.5733" y1="1438.6854" x2="1245.1352" y2="1675.6401" style="fill:none;stroke:#e3d885;stroke-linecap:round;stroke-linejoin:bevel;stroke-width:2px"/>
        <rect x="795.2374" y="1642.1453" width="45.1748" height="24.3249" style="fill:#644549"/>
    </g>
    <g id="TREES">
        <path d="M1627.2044,1363.8217l-42.0627,192.92a.9977.9977,0,0,0,.9748,1.21h84.1253a.9977.9977,0,0,0,.9748-1.21l-42.0627-192.92A.9976.9976,0,0,0,1627.2044,1363.8217Z" transform="translate(-102.95 -20.7975)" style="fill:#879c3b"/>
        <ellipse cx="1525.2291" cy="1580.3327" rx="35" ry="8.1281" style="fill:#a6a6a6;opacity:0.30000000000000004"/>
        <line x1="1525.2291" y1="1463.1285" x2="1525.2291" y2="1580.3327" style="fill:none;stroke:#bca37f;stroke-miterlimit:10;stroke-width:4px"/>
        <line x1="1525.2291" y1="1509.6818" x2="1503.2357" y2="1498.3485" style="fill:none;stroke:#bca37f;stroke-miterlimit:10;stroke-width:4px"/>
        <line x1="1525.2291" y1="1494.4878" x2="1545.2357" y2="1477.1545" style="fill:none;stroke:#bca37f;stroke-miterlimit:10;stroke-width:4px"/>
        <line x1="1525.2291" y1="1521.8212" x2="1545.2357" y2="1504.4878" style="fill:none;stroke:#bca37f;stroke-miterlimit:10;stroke-width:4px"/>
        <path d="M2034.5127,1480.3369,2002.5659,1626.86a.9977.9977,0,0,0,.9748,1.21h63.8934a.9977.9977,0,0,0,.9748-1.21l-31.9467-146.5235A.9976.9976,0,0,0,2034.5127,1480.3369Z" transform="translate(-102.95 -20.7975)" style="fill:#879c3b"/>
        <ellipse cx="1932.5374" cy="1640.3641" rx="26.8234" ry="6.2292" style="fill:#a6a6a6;opacity:0.30000000000000004"/>
        <line x1="1932.5374" y1="1550.5408" x2="1932.5374" y2="1640.3641" style="fill:none;stroke:#bca37f;stroke-miterlimit:10;stroke-width:4px"/>
        <line x1="1932.5374" y1="1586.2185" x2="1915.6821" y2="1577.5328" style="fill:none;stroke:#bca37f;stroke-miterlimit:10;stroke-width:4px"/>
        <line x1="1932.5374" y1="1574.5741" x2="1947.8701" y2="1561.2901" style="fill:none;stroke:#bca37f;stroke-miterlimit:10;stroke-width:4px"/>
        <line x1="1932.5374" y1="1595.5219" x2="1947.8701" y2="1582.2379" style="fill:none;stroke:#bca37f;stroke-miterlimit:10;stroke-width:4px"/>
        <path d="M1769.0957,1342.07l-42.0626,192.92a.9977.9977,0,0,0,.9748,1.21h84.1252a.9977.9977,0,0,0,.9748-1.21l-42.0626-192.92A.9977.9977,0,0,0,1769.0957,1342.07Z" transform="translate(-102.95 -20.7975)" style="fill:#69742c"/>
        <ellipse cx="1667.1205" cy="1558.5805" rx="35" ry="8.1281" style="fill:#a6a6a6;opacity:0.30000000000000004"/>
        <line x1="1667.1205" y1="1441.3765" x2="1667.1205" y2="1558.5805" style="fill:none;stroke:#bca37f;stroke-miterlimit:10;stroke-width:4px"/>
        <line x1="1667.1205" y1="1487.9299" x2="1645.1271" y2="1476.5966" style="fill:none;stroke:#bca37f;stroke-miterlimit:10;stroke-width:4px"/>
        <line x1="1667.1205" y1="1472.7359" x2="1687.1271" y2="1455.4026" style="fill:none;stroke:#bca37f;stroke-miterlimit:10;stroke-width:4px"/>
        <line x1="1667.1205" y1="1500.0692" x2="1687.1271" y2="1482.7359" style="fill:none;stroke:#bca37f;stroke-miterlimit:10;stroke-width:4px"/>
        <path d="M691.1934,1457.95l-33.04,151.5369a.9977.9977,0,0,0,.9748,1.21h66.08a.9977.9977,0,0,0,.9748-1.21L693.143,1457.95A.9977.9977,0,0,0,691.1934,1457.95Z" transform="translate(-102.95 -20.7975)" style="fill:#cfde5d"/>
        <ellipse cx="589.2182" cy="1624.0808" rx="27.7069" ry="6.4344" style="fill:#a6a6a6;opacity:0.30000000000000004"/>
        <line x1="589.2182" y1="1531.299" x2="589.2182" y2="1624.0808" style="fill:none;stroke:#bca37f;stroke-miterlimit:10;stroke-width:4px"/>
        <line x1="589.2182" y1="1568.1519" x2="571.8076" y2="1559.1801" style="fill:none;stroke:#bca37f;stroke-miterlimit:10;stroke-width:4px"/>
        <line x1="589.2182" y1="1556.1239" x2="605.0559" y2="1542.4024" style="fill:none;stroke:#bca37f;stroke-miterlimit:10;stroke-width:4px"/>
        <line x1="589.2182" y1="1577.7617" x2="605.0559" y2="1564.0402" style="fill:none;stroke:#bca37f;stroke-miterlimit:10;stroke-width:4px"/>
        <path d="M1505.0892,1344.2911l-42.0626,192.92a.9977.9977,0,0,0,.9748,1.21h84.1252a.9977.9977,0,0,0,.9748-1.21l-42.0626-192.92A.9977.9977,0,0,0,1505.0892,1344.2911Z" transform="translate(-102.95 -20.7975)" style="fill:#cfde5d"/>
        <ellipse cx="1403.114" cy="1560.8019" rx="35" ry="8.1281" style="fill:#a6a6a6;opacity:0.30000000000000004"/>
        <line x1="1403.114" y1="1443.5979" x2="1403.114" y2="1560.8019" style="fill:none;stroke:#bca37f;stroke-miterlimit:10;stroke-width:4px"/>
        <line x1="1403.114" y1="1490.1512" x2="1381.1206" y2="1478.8179" style="fill:none;stroke:#bca37f;stroke-miterlimit:10;stroke-width:4px"/>
        <line x1="1403.114" y1="1474.9572" x2="1423.1206" y2="1457.6239" style="fill:none;stroke:#bca37f;stroke-miterlimit:10;stroke-width:4px"/>
        <line x1="1403.114" y1="1502.2906" x2="1423.1206" y2="1484.9572" style="fill:none;stroke:#bca37f;stroke-miterlimit:10;stroke-width:4px"/>
        <path d="M1555.7556,1444.3142l-29.21,140.4628a.9976.9976,0,0,0,.9767,1.2008h58.4205a.9977.9977,0,0,0,.9768-1.2008l-29.21-140.4628A.9976.9976,0,0,0,1555.7556,1444.3142Z" transform="translate(-102.95 -20.7975)" style="fill:#69742c"/>
        <ellipse cx="1453.7824" cy="1597.0006" rx="24.6017" ry="5.99" style="fill:#a6a6a6;opacity:0.30000000000000004"/>
        <line x1="1453.7824" y1="1510.6262" x2="1453.7824" y2="1597.0006" style="fill:none;stroke:#bca37f;stroke-miterlimit:10;stroke-width:4px"/>
        <line x1="1453.7824" y1="1544.9341" x2="1438.3231" y2="1536.5819" style="fill:none;stroke:#bca37f;stroke-miterlimit:10;stroke-width:4px"/>
        <line x1="1453.7824" y1="1533.7368" x2="1467.8451" y2="1520.9628" style="fill:none;stroke:#bca37f;stroke-miterlimit:10;stroke-width:4px"/>
        <line x1="1453.7824" y1="1553.8803" x2="1467.8451" y2="1541.1063" style="fill:none;stroke:#bca37f;stroke-miterlimit:10;stroke-width:4px"/>
        <path d="M759.8335,1442.084l-29.21,140.4628a.9977.9977,0,0,0,.9767,1.2008h58.42a.9977.9977,0,0,0,.9768-1.2008l-29.21-140.4628A.9977.9977,0,0,0,759.8335,1442.084Z" transform="translate(-102.95 -20.7975)" style="fill:#69742c"/>
        <ellipse cx="657.8603" cy="1594.7704" rx="24.6017" ry="5.99" style="fill:#a6a6a6;opacity:0.30000000000000004"/>
        <line x1="657.8603" y1="1508.3961" x2="657.8603" y2="1594.7704" style="fill:none;stroke:#bca37f;stroke-miterlimit:10;stroke-width:4px"/>
        <line x1="657.8603" y1="1542.7039" x2="642.401" y2="1534.3517" style="fill:none;stroke:#bca37f;stroke-miterlimit:10;stroke-width:4px"/>
        <line x1="657.8603" y1="1531.5066" x2="671.923" y2="1518.7327" style="fill:none;stroke:#bca37f;stroke-miterlimit:10;stroke-width:4px"/>
        <line x1="657.8603" y1="1551.6501" x2="671.923" y2="1538.8762" style="fill:none;stroke:#bca37f;stroke-miterlimit:10;stroke-width:4px"/>
        <path d="M807.495,1485.32l-46.8641,225.3548a.9977.9977,0,0,0,.9768,1.2008h93.7282a.9977.9977,0,0,0,.9768-1.2008L809.4486,1485.32A.9977.9977,0,0,0,807.495,1485.32Z" transform="translate(-102.95 -20.7975)" style="fill:#879c3b"/>
        <ellipse cx="705.5218" cy="1741.3544" rx="38.8712" ry="9.4644" style="fill:#a6a6a6;opacity:0.30000000000000004"/>
        <line x1="705.5218" y1="1604.8811" x2="705.5218" y2="1741.3544" style="fill:none;stroke:#bca37f;stroke-miterlimit:10;stroke-width:4px"/>
        <line x1="705.5218" y1="1659.0882" x2="681.0958" y2="1645.8916" style="fill:none;stroke:#bca37f;stroke-miterlimit:10;stroke-width:4px"/>
        <line x1="705.5218" y1="1641.3962" x2="727.7412" y2="1621.2132" style="fill:none;stroke:#bca37f;stroke-miterlimit:10;stroke-width:4px"/>
        <line x1="705.5218" y1="1673.2234" x2="727.7412" y2="1653.0403" style="fill:none;stroke:#bca37f;stroke-miterlimit:10;stroke-width:4px"/>
    </g>
    <g id="SUN">
        <circle cx="1796.05" cy="852.2025" r="110" style="fill:#ffe66e"/>
    </g>
    <g id="BALLOON">
        <animateMotion dur="3s" repeatCount="indefinite" path="M0,0 L0,-30 L0 0 z" />
        <path d="M921.6278,1077.9723c-11.33,20.66-34.0957,47.0985-49,66.33-7.2445,9.3478-10.59,15.71-12.63,17.66a278.3686,278.3686,0,0,0-74.74,0c-2.04-1.95-6.8176-11.1857-13.63-20.16-14.7113-19.38-36.67-43.17-48-63.83-11.33-20.67-21.67-53.67-15.67-88.67s45.34-71.33,114.67-71.33,108.67,36.33,114.67,71.33S932.9578,1057.3024,921.6278,1077.9723Z" transform="translate(-102.95 -20.7975)" style="fill:#77b89d"/>
        <line x1="698.3028" y1="1170.0049" x2="707.6778" y2="1216.8382" style="fill:none;stroke:#2e4a59;stroke-linecap:round;stroke-miterlimit:10;stroke-width:5px"/>
        <line x1="741.0528" y1="1169.8799" x2="730.9842" y2="1217.1551" style="fill:none;stroke:#2e4a59;stroke-linecap:round;stroke-miterlimit:10;stroke-width:5px"/>
        <line x1="728.2884" y1="1176.8969" x2="719.6778" y2="1216.8382" style="fill:none;stroke:#2e4a59;stroke-linecap:round;stroke-miterlimit:10;stroke-width:5px"/>
        <line x1="711.0671" y1="1176.4385" x2="719.6778" y2="1216.3799" style="fill:none;stroke:#2e4a59;stroke-linecap:round;stroke-miterlimit:10;stroke-width:5px"/>
        <path d="M838.5178,1268.0277h-30.65a8,8,0,0,1-7.96-7.204l-2.28-22.796h50l-1.12,22.3995A8,8,0,0,1,838.5178,1268.0277Z" transform="translate(-102.95 -20.7975)" style="fill:#988275"/>
        <path d="M798.9978,1237.6324c-.03.3426-.05.6852-.05,1.0361,0,5.1391,3.41,9.3005,7.62,9.3005,3.68,0,6.74-3.1753,7.47-7.4036v-.0251a11.4256,11.4256,0,0,0,.15-1.8718c0-.3509-.02-.6935-.05-1.0361" transform="translate(-102.95 -20.7975)" style="fill:none;stroke:#f1e8e5;stroke-linecap:round;stroke-miterlimit:10;stroke-width:2px"/>
        <path d="M814.9278,1237.6324c-.03.3426-.05.6852-.05,1.0361a10.4147,10.4147,0,0,0,.16,1.8718v.0251c.72,4.2283,3.78,7.4036,7.46,7.4036,3.91,0,7.14-3.61,7.56-8.2643.03-.3426.05-.6852.05-1.0362s-.02-.6935-.05-1.0361" transform="translate(-102.95 -20.7975)" style="fill:none;stroke:#f1e8e5;stroke-linecap:round;stroke-miterlimit:10;stroke-width:2px"/>
        <path d="M831.0578,1237.6324c-.03.3426-.05.6852-.05,1.0361s.02.6936.05,1.0362c.42,4.6544,3.65,8.2643,7.57,8.2643,4.21,0,7.62-4.1614,7.62-9.3005,0-.3509-.02-.6935-.05-1.0361" transform="translate(-102.95 -20.7975)" style="fill:none;stroke:#f1e8e5;stroke-linecap:round;stroke-miterlimit:10;stroke-width:2px"/>
        <line x1="691.8444" y1="1216.8382" x2="747.5111" y2="1216.8382" style="fill:none;stroke:#ecc249;stroke-linecap:round;stroke-miterlimit:10;stroke-width:5px"/>
        <path d="M888.0993,1077.9723c-7.4929,20.66-22.5485,47.0985-32.4051,66.33-4.791,9.3478-7.0035,15.71-8.3526,17.66a122.4549,122.4549,0,0,0-49.4277,0c-1.3491-1.95-4.5086-11.1857-9.0139-20.16-9.729-19.38-24.2509-43.17-31.7437-63.83-7.4929-20.67-14.331-53.67-10.363-88.67s29.9846-71.33,75.8345-71.33,71.8665,36.33,75.8345,71.33S895.5921,1057.3024,888.0993,1077.9723Z" transform="translate(-102.95 -20.7975)" style="fill:#a6e0cd"/>
        <path d="M849.8367,1077.9723c-3.1139,20.66-9.3708,47.0985-13.467,66.33-1.9911,9.3478-2.9106,15.71-3.4712,17.66a22.1916,22.1916,0,0,0-20.5414,0c-.5607-1.95-1.8737-11.1857-3.7461-20.16-4.0432-19.38-10.0783-43.17-13.1922-63.83a476.0246,476.0246,0,0,1-4.3067-88.67c1.6491-35,12.4612-71.33,31.5157-71.33s29.8666,36.33,31.5156,71.33A476.0246,476.0246,0,0,1,849.8367,1077.9723Z" transform="translate(-102.95 -20.7975)" style="fill:#82c8aa"/>
        <path d="M859.9978,1161.9623c-3.74,8.85-8.29,21.1307-14.04,31.185-5.33,4.4561-12.455,5.4851-23.33,5.4851s-18-1.029-23.33-5.4851c-5.75-10.0543-10.3-22.335-14.04-31.185,0,0,24.32-3.66,37.37-3.66S859.9978,1161.9623,859.9978,1161.9623Z" transform="translate(-102.95 -20.7975)" style="fill:#f3c536"/>
        <path d="M714.6854,1057.95c11.5-13,28.1924-14.6479,34.4424-10.1479,10.5-20,33.4467-19.0593,42.1967-11.5593,19.5-22,42.9385-22.1767,62.6885-1.4267,17.25-10.5,39.9481,4.8193,41.9481,13.8193,17.5-5.25,25.81,1.1425,34.31,10.1425a142.54,142.54,0,0,1-13.8424,28.0393s-16.2676-11.0846-31.2676-1.3346c-8.75-14.75-17.9067-24.041-34.4067-14.041-20.5-23-38.57-23.73-56.57-2.48-15.75-6.75-22.3432-2.3283-35.3432,13.4217-5-2-19.6735-4.3-30.6735,3.2A134.0744,134.0744,0,0,1,714.6854,1057.95Z" transform="translate(-102.95 -20.7975)" style="fill:#595656;opacity:0.4"/>
        <path d="M799.3291,1186.6592a2.086,2.086,0,0,0,.2305.0254c.0859.0058.2021.0088.3506.0088q2.3583,0,2.3754-5.8623,0-1.6905.0171-2.6827v-9.1943q0-2.5122-.5039-3.0762a2.5408,2.5408,0,0,0-1.9228-.5644h-.2393v-1.5889q1.35.12,2.5293.1709t2.2388.0508q1.5549,0,3.41-.085t2.1445-.0849a.2755.2755,0,0,0,.0683-.0176c.1592-.0108.313-.0225.4615-.0342a10.7626,10.7626,0,0,1,6.2549,1.5811A4.995,4.995,0,0,1,819,1169.62a4.79,4.79,0,0,1-1.1792,3.1875,9.9013,9.9013,0,0,1-3.623,2.47,9.0035,9.0035,0,0,1,4.768,1.9991,5.0254,5.0254,0,0,1,1.6407,3.88,6.0149,6.0149,0,0,1-2.76,5.11,12.3741,12.3741,0,0,1-7.3228,1.9648q-.7008,0-3.0678-.1025t-4.0415-.1025q-.4614,0-1.4868.0507-1.0254.0528-2.5977.1543Zm7.5879-1.1963a17.877,17.877,0,0,0,1.8457.4014,10.036,10.036,0,0,0,1.5552.1289,5.8227,5.8227,0,0,0,3.9731-1.2657,4.35,4.35,0,0,0,1.4444-3.4511,4.1742,4.1742,0,0,0-1.6065-3.5635,7.8851,7.8851,0,0,0-4.7681-1.2051q-.8034,0-1.3671.0166t-1.1109.0518v3.0078q0,2.7172.0088,3.8711T806.917,1185.4629Zm0-10.9541q.3077.0161.6665.0254t1.0767.0078q.9741,0,1.8115-.0332.8371-.0351,1.5552-.1035a5.8326,5.8326,0,0,0,1.7514-1.8535,4.4233,4.4233,0,0,0,.59-2.23,4.0243,4.0243,0,0,0-1.2818-3.1621,5.1246,5.1246,0,0,0-3.5376-1.1446c-.3989,0-.8149.0206-1.2475.06s-.8716.1006-1.3159.18q-.0177,1.5044-.0342,4.332T806.917,1174.5088Z" transform="translate(-102.95 -20.7975)" style="fill:#2e4a59"/>
        <path d="M844.55,1164.5449q.0168,1.5045.1709,2.9824t.4272,2.9307l-1.726.3418a5.3751,5.3751,0,0,0-2.2818-3.666,8.8369,8.8369,0,0,0-4.9985-1.2383,8.5679,8.5679,0,0,0-6.605,2.5293q-2.35,2.5284-2.35,7.1094a11.3165,11.3165,0,0,0,2.5552,7.7666,8.6089,8.6089,0,0,0,6.793,2.8974,10.0125,10.0125,0,0,0,1.8886-.18,9.8667,9.8667,0,0,0,1.854-.5557q.017-.769.0425-2.0254t.0259-1.5811q0-2.4945-.5982-3.1181a3.7858,3.7858,0,0,0-2.6147-.624h-.4956v-1.5215q1.7769.0864,3.0078.12t2.2388.0342q1.0935,0,2.3926-.0342t3.1787-.12v1.5215H846.96a2.0555,2.0555,0,0,0-1.7774.6152,7.8281,7.8281,0,0,0-.4272,3.418v1.6748q0,.94.0342,1.8115t.1025,1.7266q-4.0335.8875-5.9473,1.1621a24.8426,24.8426,0,0,1-3.4692.2734q-6.1187,0-9.8267-3.4531A11.8973,11.8973,0,0,1,821.94,1176.2a12.0414,12.0414,0,0,1,4.0244-9.4248q4.0254-3.5976,10.5362-3.5977a24.2949,24.2949,0,0,1,4.042.3418A25.2309,25.2309,0,0,1,844.55,1164.5449Z" transform="translate(-102.95 -20.7975)" style="fill:#2e4a59"/>

    </g>
</svg>