<svg xmlns="http://www.w3.org/2000/svg" xmlns:xlink="http://www.w3.org/1999/xlink" viewBox="0 0 2745.31 1779.2028"><defs><radialGradient id="a" cx="2642.9394" cy="1109.4028" r="82.7913" gradientUnits="userSpaceOnUse"><stop offset="0" stop-color="#ffe66e" stop-opacity="0.5"/><stop offset="0.0963" stop-color="#ffe66e" stop-opacity="0.3475"/><stop offset="0.195" stop-color="#ffe66e" stop-opacity="0.2224"/><stop offset="0.2977" stop-color="#ffe66e" stop-opacity="0.1245"/><stop offset="0.4044" stop-color="#ffe66e" stop-opacity="0.0548"/><stop offset="0.5179" stop-color="#ffe66e" stop-opacity="0.0134"/><stop offset="0.6497" stop-color="#ffe66e" stop-opacity="0"/></radialGradient><radialGradient id="b" cx="2285.9983" cy="569.6871" r="82.7913" xlink:href="#a"/><radialGradient id="c" cx="262.9503" cy="1194" r="82.7913" xlink:href="#a"/><radialGradient id="d" cx="828.6878" cy="608.1004" r="82.7913" xlink:href="#a"/><radialGradient id="e" cx="296.5669" cy="260.8561" r="82.7913" xlink:href="#a"/><radialGradient id="f" cx="12350.3769" cy="25.9303" r="82.7913" gradientTransform="translate(-314.6926 1236.7659) scale(0.2)" xlink:href="#a"/><radialGradient id="g" cx="15323.1884" cy="2235.8171" r="82.7913" gradientTransform="translate(-314.6926 1236.7659) scale(0.2)" xlink:href="#a"/><radialGradient id="h" cx="15739.7645" cy="-2402.8289" r="82.7913" gradientTransform="translate(-314.6926 1236.7659) scale(0.2)" xlink:href="#a"/><radialGradient id="i" cx="15739.7645" cy="679.6556" r="82.7913" gradientTransform="translate(-314.6926 1236.7659) scale(0.2)" xlink:href="#a"/><radialGradient id="j" cx="13662.9703" cy="-5989.9335" r="82.7913" gradientTransform="translate(-314.6926 1236.7659) scale(0.2)" xlink:href="#a"/><radialGradient id="k" cx="10862.0376" cy="-2834.8202" r="82.7913" gradientTransform="translate(-314.6926 1236.7659) scale(0.2)" xlink:href="#a"/><radialGradient id="l" cx="11813.4629" cy="-3696.2088" r="82.7913" gradientTransform="translate(-314.6926 1236.7659) scale(0.2)" xlink:href="#a"/><radialGradient id="m" cx="9206.0834" cy="-4915.5128" r="82.7913" gradientTransform="translate(-314.6926 1236.7659) scale(0.2)" xlink:href="#a"/><radialGradient id="n" cx="9392.2817" cy="-2251.4805" r="82.7913" gradientTransform="translate(-314.6926 1236.7659) scale(0.2)" xlink:href="#a"/><radialGradient id="o" cx="7817.9108" cy="-3686.0431" r="82.7913" gradientTransform="translate(-314.6926 1236.7659) scale(0.2)" xlink:href="#a"/><radialGradient id="p" cx="7449.5271" cy="-4902.0263" r="82.7913" gradientTransform="translate(-314.6926 1236.7659) scale(0.2)" xlink:href="#a"/><radialGradient id="q" cx="5146.8899" cy="-3890.5393" r="82.7913" gradientTransform="translate(-314.6926 1236.7659) scale(0.2)" xlink:href="#a"/><radialGradient id="r" cx="3990.8253" cy="-5480.4438" r="82.7913" gradientTransform="translate(-314.6926 1236.7659) scale(0.2)" xlink:href="#a"/><radialGradient id="s" cx="2163.2143" cy="-5329.0986" r="82.7913" gradientTransform="translate(-314.6926 1236.7659) scale(0.2)" xlink:href="#a"/><radialGradient id="t" cx="2720.7143" cy="-2821.3337" r="82.7913" gradientTransform="translate(-314.6926 1236.7659) scale(0.2)" xlink:href="#a"/><radialGradient id="u" cx="3699.114" cy="-1414.1449" r="82.7913" gradientTransform="translate(-314.6926 1236.7659) scale(0.2)" xlink:href="#a"/><radialGradient id="v" cx="2358.6621" cy="1489.5" r="38.6359" xlink:href="#a"/><radialGradient id="w" cx="2520.8318" cy="678.7929" r="38.6359" xlink:href="#a"/><radialGradient id="x" cx="2699.9451" cy="206.6111" r="38.6359" xlink:href="#a"/><radialGradient id="y" cx="2210.9983" cy="960.2306" r="38.6359" xlink:href="#a"/><radialGradient id="z" cx="1958.871" cy="122.6952" r="38.6359" xlink:href="#a"/><radialGradient id="aa" cx="1628.1791" cy="493.2636" r="38.6359" xlink:href="#a"/><radialGradient id="ab" cx="1243.6396" cy="780.1761" r="38.6359" xlink:href="#a"/><radialGradient id="ac" cx="1258.7167" cy="80.7372" r="38.6359" xlink:href="#a"/><radialGradient id="ad" cx="745.6278" cy="170.9462" r="38.6359" xlink:href="#a"/><radialGradient id="ae" cx="473.7225" cy="535.4383" r="38.6359" xlink:href="#a"/><radialGradient id="af" cx="664.4613" cy="804.958" r="38.6359" xlink:href="#a"/><radialGradient id="ag" cx="152.9503" cy="884.7714" r="38.6359" xlink:href="#a"/><radialGradient id="ah" cx="573.483" cy="1283.91" r="38.6359" xlink:href="#a"/><radialGradient id="ai" cx="239.2003" cy="1562.5" r="38.6359" xlink:href="#a"/><linearGradient id="aj" x1="2339.5888" y1="400.3018" x2="2403.9313" y2="400.3018" gradientTransform="translate(-15.7536 676.3632) rotate(-20)" gradientUnits="userSpaceOnUse"><stop offset="0" stop-color="#ffe66e"/><stop offset="0.1428" stop-color="#ffe66e" stop-opacity="0.8329"/><stop offset="0.5371" stop-color="#ffe66e" stop-opacity="0.3895"/><stop offset="0.8092" stop-color="#ffe66e" stop-opacity="0.1093"/><stop offset="0.9349" stop-color="#ffe66e" stop-opacity="0"/></linearGradient><radialGradient id="ak" cx="1441.271" cy="1586.3485" fy="1714.3368827936226" r="260.4294" gradientUnits="userSpaceOnUse"><stop offset="0" stop-color="#f6c938" stop-opacity="0.8"/><stop offset="0.0201" stop-color="#f6ca38" stop-opacity="0.7717"/><stop offset="0.1978" stop-color="#f6d338" stop-opacity="0.5394"/><stop offset="0.3699" stop-color="#f6da38" stop-opacity="0.3463"/><stop offset="0.5324" stop-color="#f6e038" stop-opacity="0.196"/><stop offset="0.6829" stop-color="#f6e438" stop-opacity="0.0882"/><stop offset="0.8169" stop-color="#f6e638" stop-opacity="0.0229"/><stop offset="0.921" stop-color="#f6e738" stop-opacity="0"/><stop offset="1" stop-color="#f6e738" stop-opacity="0"/></radialGradient><linearGradient id="al" x1="1440.1894" y1="1744.3949" x2="1440.1894" y2="1687.631" gradientUnits="userSpaceOnUse"><stop offset="0" stop-color="#ff8642"/><stop offset="0.1737" stop-color="#fe8f41"/><stop offset="0.4625" stop-color="#fca93e"/><stop offset="0.8286" stop-color="#f8d23a"/><stop offset="0.9949" stop-color="#f6e738"/></linearGradient></defs><title>mountains_night_nobg</title><line x1="1580.7663" y1="1116.2028" x2="1580.7663" y2="1028.2028" style="fill:none;stroke:#827979;stroke-miterlimit:10;stroke-width:4px"/><polygon points="1542.766 1043.704 1582.766 1062.5 1582.766 1024.908 1542.766 1043.704" style="fill:#475959;fill-rule:evenodd"/><path d="M1483.3961,1165l-257.4982,446h549.6374l-257.4982-446A20,20,0,0,0,1483.3961,1165Z" transform="translate(-102.9503 -20.7972)" style="fill:#506466"/><path d="M1879.3961,1369l-139.7188,242h314.0786l-139.7188-242A20,20,0,0,0,1879.3961,1369Z" transform="translate(-102.9503 -20.7972)" style="fill:#4a6060"/><path d="M2002.3961,1432,1899.05,1611h241.3324l-103.3457-179A20,20,0,0,0,2002.3961,1432Z" transform="translate(-102.9503 -20.7972)" style="fill:#475959"/><path d="M835.3961,1378,700.8735,1611H1004.56L870.0371,1378A20,20,0,0,0,835.3961,1378Z" transform="translate(-102.9503 -20.7972)" style="fill:#546970"/><path d="M1177.3961,1072,866.2043,1611h657.0246l-311.1918-539A20,20,0,0,0,1177.3961,1072Z" transform="translate(-102.9503 -20.7972)" style="fill:#4c6060"/><path d="M1030.3961,1204,795.4145,1611h504.6042l-234.9816-407A20,20,0,0,0,1030.3961,1204Z" transform="translate(-102.9503 -20.7972)" style="fill:#596e72"/><path d="M1303.3961,1003l-351.029,608h736.699l-351.029-608A20,20,0,0,0,1303.3961,1003Z" transform="translate(-102.9503 -20.7972)" style="fill:#685a5a"/><path d="M1305.7877,996.8576l-83.116,143.9612a4,4,0,0,0,4.99,5.6976l26.243-10.8267a8,8,0,0,1,7.701.8855l18.5876,13.2768a12,12,0,0,0,12.2244,1.0261l26.0528-12.6744a8,8,0,0,1,8.4748.929l20.8234,16.5362a12,12,0,0,0,16.7257-1.7688l15.2135-18.4734a10,10,0,0,1,12.572-2.3866l16.58,9.2017a5,5,0,0,0,6.7565-6.8718l-79.97-138.5124A17.2384,17.2384,0,0,0,1305.7877,996.8576Z" transform="translate(-102.9503 -20.7972)" style="fill:#b2b2b2"/><path d="M1666.3961,1144l-269.6226,467H1970.66l-269.6226-467A20,20,0,0,0,1666.3961,1144Z" transform="translate(-102.9503 -20.7972)" style="fill:#827979"/><path d="M1668.7877,1138.8576l-83.116,143.9612a4,4,0,0,0,4.99,5.6976l20.7694-18.9924a12,12,0,0,1,15.4667-.6155l34.3466,26.7225a10,10,0,0,0,12.2639.0135l45.2844-35.0729a8,8,0,0,1,8.3685-.8835l42.6984,20.5537a5,5,0,0,0,6.7565-6.8718l-77.97-134.5124A17.2384,17.2384,0,0,0,1668.7877,1138.8576Z" transform="translate(-102.9503 -20.7972)" style="fill:#b2b2b2"/><path d="M2237.09,1653.65c-3.87,11.24-17.06,20.35-28.95,20.35H2095.29a4.5414,4.5414,0,0,0-2.7,8.18,12.34,12.34,0,0,1,1.19,1.04,31.4086,31.4086,0,0,1,9.22,22.28c0,10.66-11.82,20.08-20.98,25.78a3.095,3.095,0,0,0,1.64,5.72h38.84a31.4086,31.4086,0,0,1,22.28,9.22c8.06,8.06,11.76,20.49,7.31,33.43-3.87,11.24-17.06,20.35-28.95,20.35H579.5a31.4791,31.4791,0,0,1-31.5-31.5c0-7.8,6.32-14.93,13.3-20.43a6.2157,6.2157,0,0,0-3.89-11.07H528.5a31.4088,31.4088,0,0,1-22.28-9.22c-8.06-8.06-11.76-20.49-7.31-33.43,3.87-11.24,17.06-20.35,28.95-20.35H638.83a5.23,5.23,0,0,0,3.56-9.05c-.05-.06-.11-.11-.17-.17-8.06-8.06-11.76-20.49-7.31-33.43,3.87-11.24,17.06-20.35,28.95-20.35h.17c116.53-28.33,417.97-48.5,771.47-48.5s654.94,20.17,771.47,48.5h.53a31.4086,31.4086,0,0,1,22.28,9.22C2237.84,1628.28,2241.54,1640.71,2237.09,1653.65Z" transform="translate(-102.9503 -20.7972)" style="fill:#6c7a30"/><path d="M2046.1258,1716.54c-3.8589,11.3182-17.1435,20.46-29.1015,20.46h-48.8565a5.2309,5.2309,0,0,0-3.562,9.05q.0886.0849.1742.17c8.0411,8.041,11.7438,20.4209,7.3458,33.32-3.8589,11.3182-17.1435,20.46-29.1015,20.46H1608.5a31.4791,31.4791,0,0,1-31.5-31.5c0-8.885,8.2134-16.9095,16.2523-22.6356a4.8834,4.8834,0,0,0-2.83-8.8644H1578.5a31.4086,31.4086,0,0,1-22.28-9.22c-8.0409-8.041-11.7436-20.42-7.346-33.32,3.8586-11.3186,17.1434-20.46,29.1017-20.46h148.8565a5.2309,5.2309,0,0,0,3.562-9.05q-.0886-.0849-.1742-.17c-8.0409-8.041-11.7436-20.42-7.346-33.32,3.8586-11.3186,17.1434-20.46,29.1017-20.46H1951.5a31.4791,31.4791,0,0,1,31.5,31.5c0,6.09-3.8588,11.7757-8.8751,16.5942-5.6138,5.3923-1.6539,14.9058,6.13,14.9058H2016.5a31.4086,31.4086,0,0,1,22.28,9.22C2046.8211,1691.261,2050.5238,1703.6409,2046.1258,1716.54Z" transform="translate(-102.9503 -20.7972)" style="fill:#458282"/><path d="M1795.8487,915.4987A110.6374,110.6374,0,1,0,1853.0043,772.68a88.5379,88.5379,0,1,1-57.1556,142.8191Z" transform="translate(-102.9503 -20.7972)" style="fill:#ffe66e"/><path d="M2642.9394,1122.8893c-1.9083-5.01-5.7348-10.944-11.25-13.4865,5.2923-2.7049,9.0808-8.6653,11.25-13.4865,2.4837,5.0035,6.1667,11.0563,11.25,13.4865C2648.5235,1112.1718,2644.7681,1118.1556,2642.9394,1122.8893Z" transform="translate(-102.9503 -20.7972)" style="fill:#ffe66e"/><path d="M2642.9394,1199.3128c-12.7217-33.3992-38.2317-72.96-75-89.91,35.2823-18.0326,60.5388-57.7685,75-89.91,16.5583,33.3562,41.1114,73.7083,75,89.91C2680.1667,1127.8627,2655.1306,1167.7544,2642.9394,1199.3128Z" transform="translate(-102.9503 -20.7972)" style="fill:url(#a)"/><path d="M2285.9983,583.1736c-1.9082-5.01-5.7347-10.9441-11.25-13.4866,5.2924-2.7048,9.0809-8.6652,11.25-13.4864,2.4838,5.0034,6.1667,11.0562,11.25,13.4864C2291.5824,572.456,2287.827,578.44,2285.9983,583.1736Z" transform="translate(-102.9503 -20.7972)" style="fill:#ffe66e"/><path d="M2285.9983,659.597c-12.7216-33.3992-38.2317-72.9605-75-89.91,35.2823-18.0326,60.5389-57.7685,75-89.91,16.5584,33.3562,41.1115,73.7083,75,89.91C2323.2257,588.1469,2298.19,628.0386,2285.9983,659.597Z" transform="translate(-102.9503 -20.7972)" style="fill:url(#b)"/><path d="M262.95,1207.4865c-1.9083-5.01-5.7348-10.9441-11.25-13.4865,5.2923-2.7049,9.0808-8.6653,11.25-13.4865,2.4837,5.0034,6.1667,11.0563,11.25,13.4865C268.5344,1196.769,264.779,1202.7527,262.95,1207.4865Z" transform="translate(-102.9503 -20.7972)" style="fill:#ffe66e"/><path d="M262.95,1283.91c-12.7217-33.3993-38.2317-72.9605-75-89.91,35.2822-18.0325,60.5388-57.7684,75-89.91,16.5583,33.3562,41.1114,73.7084,75,89.91C300.1776,1212.46,275.1415,1252.3515,262.95,1283.91Z" transform="translate(-102.9503 -20.7972)" style="fill:url(#c)"/><path d="M828.6878,621.5869c-1.9083-5.01-5.7348-10.944-11.25-13.4865,5.2923-2.7049,9.0808-8.6653,11.25-13.4864,2.4837,5.0034,6.1667,11.0562,11.25,13.4864C834.2719,610.8694,830.5164,616.8532,828.6878,621.5869Z" transform="translate(-102.9503 -20.7972)" style="fill:#ffe66e"/><path d="M828.6878,698.01c-12.7217-33.3992-38.2317-72.9605-75-89.91,35.2822-18.0326,60.5388-57.7685,75-89.91,16.5583,33.3562,41.1114,73.7083,75,89.91C865.9151,626.56,840.879,666.452,828.6878,698.01Z" transform="translate(-102.9503 -20.7972)" style="fill:url(#d)"/><path d="M296.5669,274.3426c-1.9082-5.01-5.7347-10.944-11.25-13.4865,5.2924-2.7049,9.0809-8.6653,11.25-13.4865,2.4838,5.0035,6.1667,11.0563,11.25,13.4865C302.151,263.6251,298.3956,269.6089,296.5669,274.3426Z" transform="translate(-102.9503 -20.7972)" style="fill:#ffe66e"/><path d="M296.5669,350.7661c-12.7216-33.3992-38.2317-72.96-75-89.91,35.2823-18.0326,60.5389-57.7685,75-89.91,16.5584,33.3562,41.1114,73.7083,75,89.91C333.7942,279.316,308.7581,319.2077,296.5669,350.7661Z" transform="translate(-102.9503 -20.7972)" style="fill:url(#e)"/><path d="M2155.3828,1244.6493a4.8889,4.8889,0,0,0-2.25-2.6973,5.6171,5.6171,0,0,0,2.25-2.6973,5.7776,5.7776,0,0,0,2.25,2.6973A5.04,5.04,0,0,0,2155.3828,1244.6493Z" transform="translate(-102.9503 -20.7972)" style="fill:#ffe66e"/><path d="M2155.3828,1259.934c-2.5443-6.68-7.6463-14.5921-15-17.9821,7.0564-3.6065,12.1078-11.5537,15-17.9819,3.3117,6.6712,8.2223,14.7417,15,17.9819C2162.8283,1245.644,2157.821,1253.6223,2155.3828,1259.934Z" transform="translate(-102.9503 -20.7972)" style="fill:url(#f)"/><path d="M2749.9451,1686.6266a4.8892,4.8892,0,0,0-2.25-2.6973,5.6162,5.6162,0,0,0,2.25-2.6973,5.7772,5.7772,0,0,0,2.25,2.6973A5.04,5.04,0,0,0,2749.9451,1686.6266Z" transform="translate(-102.9503 -20.7972)" style="fill:#ffe66e"/><path d="M2749.9451,1701.9113c-2.5443-6.68-7.6463-14.5921-15-17.982,7.0564-3.6065,12.1078-11.5537,15-17.982,3.3117,6.6713,8.2223,14.7417,15,17.982C2757.3906,1687.6213,2752.3833,1695.6,2749.9451,1701.9113Z" transform="translate(-102.9503 -20.7972)" style="fill:url(#g)"/><path d="M2833.26,758.8974a4.8881,4.8881,0,0,0-2.25-2.6973,5.6167,5.6167,0,0,0,2.25-2.6973,5.7783,5.7783,0,0,0,2.25,2.6973A5.04,5.04,0,0,0,2833.26,758.8974Z" transform="translate(-102.9503 -20.7972)" style="fill:#ffe66e"/><path d="M2833.26,774.1821c-2.5443-6.68-7.6463-14.5921-15-17.982,7.0565-3.6065,12.1078-11.5537,15-17.982,3.3117,6.6713,8.2223,14.7417,15,17.982C2840.7058,759.8921,2835.6986,767.87,2833.26,774.1821Z" transform="translate(-102.9503 -20.7972)" style="fill:url(#h)"/><path d="M2833.26,1375.3943a4.8881,4.8881,0,0,0-2.25-2.6973,5.6167,5.6167,0,0,0,2.25-2.6973,5.7783,5.7783,0,0,0,2.25,2.6973A5.04,5.04,0,0,0,2833.26,1375.3943Z" transform="translate(-102.9503 -20.7972)" style="fill:#ffe66e"/><path d="M2833.26,1390.679c-2.5443-6.68-7.6463-14.5921-15-17.982,7.0565-3.6065,12.1078-11.5537,15-17.982,3.3117,6.6713,8.2223,14.7417,15,17.982C2840.7058,1376.389,2835.6986,1384.3673,2833.26,1390.679Z" transform="translate(-102.9503 -20.7972)" style="fill:url(#i)"/><path d="M2417.9015,41.4765a4.8889,4.8889,0,0,0-2.25-2.6973,5.6182,5.6182,0,0,0,2.25-2.6973,5.7772,5.7772,0,0,0,2.25,2.6973A5.04,5.04,0,0,0,2417.9015,41.4765Z" transform="translate(-102.9503 -20.7972)" style="fill:#ffe66e"/><path d="M2417.9015,56.7612c-2.5444-6.68-7.6464-14.5921-15-17.982,7.0564-3.6065,12.1077-11.5537,15-17.982,3.3116,6.6713,8.2223,14.7417,15,17.982C2425.3469,42.4712,2420.34,50.45,2417.9015,56.7612Z" transform="translate(-102.9503 -20.7972)" style="fill:url(#j)"/><path d="M1857.7149,672.4992a4.8877,4.8877,0,0,0-2.25-2.6973,5.6171,5.6171,0,0,0,2.25-2.6973,5.7788,5.7788,0,0,0,2.25,2.6973A5.0406,5.0406,0,0,0,1857.7149,672.4992Z" transform="translate(-102.9503 -20.7972)" style="fill:#ffe66e"/><path d="M1857.7149,687.7839c-2.5443-6.68-7.6463-14.5921-15-17.9821,7.0565-3.6065,12.1078-11.5537,15-17.9819,3.3117,6.6712,8.2223,14.7416,15,17.9819C1865.16,673.4938,1860.1532,681.4722,1857.7149,687.7839Z" transform="translate(-102.9503 -20.7972)" style="fill:url(#k)"/><path d="M2048,500.2215a4.8885,4.8885,0,0,0-2.25-2.6973,5.6171,5.6171,0,0,0,2.25-2.6973,5.7781,5.7781,0,0,0,2.25,2.6973A5.04,5.04,0,0,0,2048,500.2215Z" transform="translate(-102.9503 -20.7972)" style="fill:#ffe66e"/><path d="M2048,515.5061c-2.5443-6.68-7.6463-14.592-15-17.982,7.0564-3.6065,12.1078-11.5537,15-17.9819,3.3117,6.6712,8.2223,14.7416,15,17.9819C2055.4455,501.2161,2050.4382,509.1945,2048,515.5061Z" transform="translate(-102.9503 -20.7972)" style="fill:url(#l)"/><path d="M1526.5241,256.3606a4.8892,4.8892,0,0,0-2.25-2.6973,5.6162,5.6162,0,0,0,2.25-2.6973,5.7772,5.7772,0,0,0,2.25,2.6973A5.04,5.04,0,0,0,1526.5241,256.3606Z" transform="translate(-102.9503 -20.7972)" style="fill:#ffe66e"/><path d="M1526.5241,271.6453c-2.5443-6.68-7.6463-14.5921-15-17.982,7.0565-3.6065,12.1078-11.5537,15-17.9819,3.3117,6.6712,8.2223,14.7416,15,17.9819C1533.97,257.3553,1528.9623,265.3336,1526.5241,271.6453Z" transform="translate(-102.9503 -20.7972)" style="fill:url(#m)"/><path d="M1563.7638,789.1671a4.8889,4.8889,0,0,0-2.25-2.6973,5.6178,5.6178,0,0,0,2.25-2.6973,5.7772,5.7772,0,0,0,2.25,2.6973A5.04,5.04,0,0,0,1563.7638,789.1671Z" transform="translate(-102.9503 -20.7972)" style="fill:#ffe66e"/><path d="M1563.7638,804.4518c-2.5444-6.68-7.6464-14.5921-15-17.982,7.0564-3.6065,12.1077-11.5537,15-17.982,3.3116,6.6713,8.2222,14.7417,15,17.982C1571.2092,790.1618,1566.202,798.14,1563.7638,804.4518Z" transform="translate(-102.9503 -20.7972)" style="fill:url(#n)"/><path d="M1248.89,502.2546a4.8889,4.8889,0,0,0-2.25-2.6973,5.6182,5.6182,0,0,0,2.25-2.6973,5.7776,5.7776,0,0,0,2.25,2.6973A5.04,5.04,0,0,0,1248.89,502.2546Z" transform="translate(-102.9503 -20.7972)" style="fill:#ffe66e"/><path d="M1248.89,517.5393c-2.5444-6.68-7.6464-14.5921-15-17.982,7.0564-3.6065,12.1077-11.5537,15-17.982,3.3116,6.6712,8.2223,14.7417,15,17.982C1256.335,503.2493,1251.3278,511.2276,1248.89,517.5393Z" transform="translate(-102.9503 -20.7972)" style="fill:url(#o)"/><path d="M1175.2128,259.0579a4.8884,4.8884,0,0,0-2.25-2.6973,5.6162,5.6162,0,0,0,2.25-2.6973,5.7783,5.7783,0,0,0,2.25,2.6973A5.0405,5.0405,0,0,0,1175.2128,259.0579Z" transform="translate(-102.9503 -20.7972)" style="fill:#ffe66e"/><path d="M1175.2128,274.3426c-2.5443-6.68-7.6463-14.5921-15-17.982,7.0565-3.6065,12.1078-11.5537,15-17.9819,3.3117,6.6712,8.2223,14.7416,15,17.9819C1182.6583,260.0526,1177.6511,268.0309,1175.2128,274.3426Z" transform="translate(-102.9503 -20.7972)" style="fill:url(#p)"/><path d="M714.6854,461.3553a4.8892,4.8892,0,0,0-2.25-2.6973,5.6168,5.6168,0,0,0,2.25-2.6973,5.7772,5.7772,0,0,0,2.25,2.6973A5.04,5.04,0,0,0,714.6854,461.3553Z" transform="translate(-102.9503 -20.7972)" style="fill:#ffe66e"/><path d="M714.6854,476.64c-2.5443-6.68-7.6464-14.5921-15-17.982,7.0564-3.6065,12.1078-11.5537,15-17.982,3.3116,6.6713,8.2223,14.7417,15,17.982C722.1308,462.35,717.1236,470.3283,714.6854,476.64Z" transform="translate(-102.9503 -20.7972)" style="fill:url(#q)"/><path d="M483.4725,143.3745a4.8885,4.8885,0,0,0-2.25-2.6973,5.6182,5.6182,0,0,0,2.25-2.6973,5.7781,5.7781,0,0,0,2.25,2.6973A5.04,5.04,0,0,0,483.4725,143.3745Z" transform="translate(-102.9503 -20.7972)" style="fill:#ffe66e"/><path d="M483.4725,158.6591c-2.5444-6.68-7.6464-14.592-15-17.982,7.0564-3.6065,12.1077-11.5537,15-17.9819,3.3116,6.6712,8.2223,14.7416,15,17.9819C490.9179,144.3691,485.9107,152.3475,483.4725,158.6591Z" transform="translate(-102.9503 -20.7972)" style="fill:url(#r)"/><path d="M117.95,173.6435a4.8889,4.8889,0,0,0-2.25-2.6973,5.6182,5.6182,0,0,0,2.25-2.6973,5.7776,5.7776,0,0,0,2.25,2.6973A5.04,5.04,0,0,0,117.95,173.6435Z" transform="translate(-102.9503 -20.7972)" style="fill:#ffe66e"/><path d="M117.95,188.9282c-2.5444-6.68-7.6464-14.5921-15-17.982,7.0564-3.6066,12.1077-11.5537,15-17.982,3.3116,6.6712,8.2223,14.7417,15,17.982C125.3957,174.6382,120.3885,182.6165,117.95,188.9282Z" transform="translate(-102.9503 -20.7972)" style="fill:url(#s)"/><path d="M229.45,675.1965a4.8885,4.8885,0,0,0-2.25-2.6973,5.6182,5.6182,0,0,0,2.25-2.6973,5.7776,5.7776,0,0,0,2.25,2.6973A5.04,5.04,0,0,0,229.45,675.1965Z" transform="translate(-102.9503 -20.7972)" style="fill:#ffe66e"/><path d="M229.45,690.4812c-2.5444-6.68-7.6464-14.5921-15-17.9821,7.0564-3.6065,12.1077-11.5537,15-17.9819,3.3116,6.6712,8.2223,14.7416,15,17.9819C236.8957,676.1911,231.8885,684.17,229.45,690.4812Z" transform="translate(-102.9503 -20.7972)" style="fill:url(#t)"/><path d="M425.13,956.6342a4.8884,4.8884,0,0,0-2.25-2.6973,5.6167,5.6167,0,0,0,2.25-2.6973,5.7783,5.7783,0,0,0,2.25,2.6973A5.04,5.04,0,0,0,425.13,956.6342Z" transform="translate(-102.9503 -20.7972)" style="fill:#ffe66e"/><path d="M425.13,971.9189c-2.5443-6.68-7.6463-14.5921-15-17.982,7.0565-3.6065,12.1078-11.5537,15-17.982,3.3117,6.6713,8.2223,14.7417,15,17.982C432.5757,957.6289,427.5685,965.6072,425.13,971.9189Z" transform="translate(-102.9503 -20.7972)" style="fill:url(#u)"/><path d="M2358.6621,1495.7937c-.89-2.3379-2.6762-5.1072-5.25-6.2937,2.47-1.2623,4.2377-4.0438,5.25-6.2937,1.1591,2.3349,2.8778,5.16,5.25,6.2937C2361.268,1490.7922,2359.5155,1493.5846,2358.6621,1495.7937Z" transform="translate(-102.9503 -20.7972)" style="fill:#ffe66e"/><path d="M2358.6621,1531.458c-5.9368-15.5863-17.8415-34.0482-35-41.9581,16.465-8.4152,28.2514-26.9586,35-41.9579,7.7272,15.5662,19.1853,34.3972,35,41.9579C2376.0348,1498.1146,2364.3513,1516.7307,2358.6621,1531.458Z" transform="translate(-102.9503 -20.7972)" style="fill:url(#v)"/><path d="M2520.8318,685.0866c-.89-2.338-2.6762-5.1073-5.25-6.2938,2.47-1.2622,4.2377-4.0437,5.25-6.2936,1.1591,2.3349,2.8778,5.1595,5.25,6.2936C2523.4377,680.0851,2521.6852,682.8775,2520.8318,685.0866Z" transform="translate(-102.9503 -20.7972)" style="fill:#ffe66e"/><path d="M2520.8318,720.7508c-5.9368-15.5863-17.8415-34.0482-35-41.958,16.465-8.4152,28.2514-26.9586,35-41.9579,7.7272,15.5662,19.1853,34.3972,35,41.9579C2538.2045,687.4075,2526.521,706.0236,2520.8318,720.7508Z" transform="translate(-102.9503 -20.7972)" style="fill:url(#w)"/><path d="M2699.9451,212.9048c-.89-2.3379-2.6762-5.1072-5.25-6.2937,2.47-1.2623,4.2377-4.0438,5.25-6.2937,1.1591,2.335,2.8778,5.16,5.25,6.2937C2702.551,207.9033,2700.7985,210.6957,2699.9451,212.9048Z" transform="translate(-102.9503 -20.7972)" style="fill:#ffe66e"/><path d="M2699.9451,248.5691c-5.9368-15.5863-17.8415-34.0482-35-41.9581,16.465-8.4151,28.2515-26.9586,35-41.9579,7.7272,15.5663,19.1853,34.3973,35,41.9579C2717.3178,215.2257,2705.6343,233.8418,2699.9451,248.5691Z" transform="translate(-102.9503 -20.7972)" style="fill:url(#x)"/><path d="M2210.9983,966.5243c-.89-2.3379-2.6762-5.1072-5.25-6.2937,2.47-1.2623,4.2377-4.0438,5.25-6.2937,1.1591,2.335,2.8778,5.16,5.25,6.2937C2213.6042,961.5228,2211.8517,964.3152,2210.9983,966.5243Z" transform="translate(-102.9503 -20.7972)" style="fill:#ffe66e"/><path d="M2210.9983,1002.1886c-5.9367-15.5863-17.8414-34.0482-35-41.9581,16.4651-8.4151,28.2515-26.9586,35-41.9579,7.7273,15.5663,19.1854,34.3973,35,41.9579C2228.3711,968.8452,2216.6876,987.4613,2210.9983,1002.1886Z" transform="translate(-102.9503 -20.7972)" style="fill:url(#y)"/><path d="M1958.871,128.9889c-.8905-2.338-2.6762-5.1073-5.25-6.2937,2.47-1.2623,4.2377-4.0438,5.25-6.2937,1.1591,2.3349,2.8778,5.16,5.25,6.2937C1961.4769,123.9874,1959.7244,126.78,1958.871,128.9889Z" transform="translate(-102.9503 -20.7972)" style="fill:#ffe66e"/><path d="M1958.871,164.6531c-5.9368-15.5863-17.8415-34.0482-35-41.958,16.465-8.4152,28.2514-26.9586,35-41.9579,7.7272,15.5662,19.1853,34.3972,35,41.9579C1976.2437,131.31,1964.56,149.9259,1958.871,164.6531Z" transform="translate(-102.9503 -20.7972)" style="fill:url(#z)"/><path d="M1628.1791,499.5573c-.89-2.338-2.6762-5.1072-5.25-6.2937,2.47-1.2623,4.2378-4.0438,5.25-6.2937,1.1591,2.3349,2.8778,5.16,5.25,6.2937C1630.7851,494.5558,1629.0325,497.3482,1628.1791,499.5573Z" transform="translate(-102.9503 -20.7972)" style="fill:#ffe66e"/><path d="M1628.1791,535.2216c-5.9367-15.5863-17.8414-34.0482-35-41.9581,16.4651-8.4152,28.2515-26.9586,35-41.9579,7.7273,15.5662,19.1854,34.3972,35,41.9579C1645.5519,501.8782,1633.8684,520.4943,1628.1791,535.2216Z" transform="translate(-102.9503 -20.7972)" style="fill:url(#aa)"/><path d="M1243.64,786.47c-.89-2.3379-2.6762-5.1072-5.25-6.2937,2.47-1.2623,4.2377-4.0438,5.25-6.2937,1.1591,2.3349,2.8778,5.16,5.25,6.2937C1246.2455,781.4683,1244.493,784.2607,1243.64,786.47Z" transform="translate(-102.9503 -20.7972)" style="fill:#ffe66e"/><path d="M1243.64,822.1341c-5.9368-15.5863-17.8415-34.0482-35-41.9581,16.465-8.4152,28.2514-26.9586,35-41.9579,7.7272,15.5663,19.1853,34.3973,35,41.9579C1261.0123,788.7907,1249.3288,807.4068,1243.64,822.1341Z" transform="translate(-102.9503 -20.7972)" style="fill:url(#ab)"/><path d="M1258.7167,87.0309c-.89-2.338-2.6762-5.1073-5.25-6.2937,2.47-1.2623,4.2378-4.0438,5.25-6.2937,1.1591,2.3349,2.8778,5.16,5.25,6.2937C1261.3226,82.0294,1259.57,84.8218,1258.7167,87.0309Z" transform="translate(-102.9503 -20.7972)" style="fill:#ffe66e"/><path d="M1258.7167,122.6952c-5.9367-15.5863-17.8414-34.0483-35-41.9581,16.4651-8.4152,28.2515-26.9586,35-41.9579,7.7273,15.5662,19.1854,34.3972,35,41.9579C1276.09,89.3518,1264.406,107.9679,1258.7167,122.6952Z" transform="translate(-102.9503 -20.7972)" style="fill:url(#ac)"/><path d="M745.6278,177.24c-.8906-2.338-2.6763-5.1073-5.25-6.2937,2.47-1.2623,4.2377-4.0438,5.25-6.2937,1.159,2.3349,2.8778,5.16,5.25,6.2937C748.2337,172.2384,746.4812,175.0308,745.6278,177.24Z" transform="translate(-102.9503 -20.7972)" style="fill:#ffe66e"/><path d="M745.6278,212.9042c-5.9368-15.5863-17.8415-34.0483-35-41.9581,16.465-8.4152,28.2514-26.9586,35-41.9579,7.7272,15.5662,19.1853,34.3972,35,41.9579C763.0005,179.5608,751.317,198.1769,745.6278,212.9042Z" transform="translate(-102.9503 -20.7972)" style="fill:url(#ad)"/><path d="M473.7225,541.732c-.8905-2.338-2.6762-5.1073-5.25-6.2937,2.47-1.2623,4.2377-4.0438,5.25-6.2937,1.1591,2.3349,2.8778,5.16,5.25,6.2937C476.3284,536.7305,474.5759,539.5229,473.7225,541.732Z" transform="translate(-102.9503 -20.7972)" style="fill:#ffe66e"/><path d="M473.7225,577.3963c-5.9368-15.5863-17.8415-34.0483-35-41.9581,16.465-8.4152,28.2514-26.9586,35-41.9579,7.7272,15.5662,19.1853,34.3972,35,41.9579C491.0952,544.0529,479.4117,562.669,473.7225,577.3963Z" transform="translate(-102.9503 -20.7972)" style="fill:url(#ae)"/><path d="M664.4613,811.2517c-.8906-2.338-2.6763-5.1073-5.25-6.2937,2.47-1.2623,4.2377-4.0438,5.25-6.2937,1.159,2.3349,2.8778,5.16,5.25,6.2937C667.0672,806.25,665.3146,809.0426,664.4613,811.2517Z" transform="translate(-102.9503 -20.7972)" style="fill:#ffe66e"/><path d="M664.4613,846.916c-5.9368-15.5863-17.8415-34.0483-35-41.9581,16.465-8.4152,28.2514-26.9586,35-41.9579,7.7272,15.5662,19.1853,34.3972,35,41.9579C681.834,813.5726,670.1505,832.1887,664.4613,846.916Z" transform="translate(-102.9503 -20.7972)" style="fill:url(#af)"/><path d="M152.95,891.0651c-.8905-2.338-2.6762-5.1073-5.25-6.2938,2.47-1.2622,4.2377-4.0437,5.25-6.2936,1.1591,2.3349,2.8778,5.1595,5.25,6.2936C155.5562,886.0636,153.8037,888.856,152.95,891.0651Z" transform="translate(-102.9503 -20.7972)" style="fill:#ffe66e"/><path d="M152.95,926.7293c-5.9368-15.5863-17.8415-34.0482-35-41.958,16.465-8.4152,28.2514-26.9586,35-41.9579,7.7272,15.5662,19.1853,34.3972,35,41.9579C170.323,893.386,158.64,912.0021,152.95,926.7293Z" transform="translate(-102.9503 -20.7972)" style="fill:url(#ag)"/><path d="M573.483,1290.2037c-.89-2.338-2.6762-5.1073-5.25-6.2938,2.47-1.2622,4.2377-4.0437,5.25-6.2936,1.1591,2.3349,2.8778,5.1595,5.25,6.2936C576.0889,1285.2021,574.3364,1287.9946,573.483,1290.2037Z" transform="translate(-102.9503 -20.7972)" style="fill:#ffe66e"/><path d="M573.483,1325.8679c-5.9368-15.5863-17.8415-34.0482-35-41.958,16.465-8.4152,28.2514-26.9586,35-41.9579,7.7272,15.5662,19.1853,34.3972,35,41.9579C590.8557,1292.5246,579.1722,1311.1407,573.483,1325.8679Z" transform="translate(-102.9503 -20.7972)" style="fill:url(#ah)"/><path d="M239.2,1568.7937c-.8905-2.3379-2.6762-5.1072-5.25-6.2937,2.47-1.2623,4.2377-4.0438,5.25-6.2937,1.1591,2.3349,2.8778,5.16,5.25,6.2937C241.8062,1563.7922,240.0537,1566.5846,239.2,1568.7937Z" transform="translate(-102.9503 -20.7972)" style="fill:#ffe66e"/><path d="M239.2,1604.458c-5.9368-15.5863-17.8415-34.0482-35-41.9581,16.465-8.4152,28.2514-26.9586,35-41.9579,7.7272,15.5662,19.1853,34.3972,35,41.9579C256.573,1571.1146,244.89,1589.7307,239.2,1604.458Z" transform="translate(-102.9503 -20.7972)" style="fill:url(#ai)"/><path d="M2308.2378,220.977c-1.6365-1.8923-4.2616-3.8839-7.086-4.1185,1.8891-2.0309,2.5991-5.2493,2.7808-7.71,1.8878,1.7976,4.469,3.8641,7.086,4.1185C2308.9759,215.3859,2308.2841,218.6093,2308.2378,220.977Z" transform="translate(-102.9503 -20.7972)" style="fill:#ffe66e"/><path d="M2393.6724,267.6085c-1.6365-1.8923-82.61-46.3968-85.4346-46.6315a6.1228,6.1228,0,0,1,2.7808-7.71C2312.9064,215.065,2393.7187,265.2408,2393.6724,267.6085Z" transform="translate(-102.9503 -20.7972)" style="fill:url(#aj)"/><circle cx="718.8264" cy="1002.5137" r="65" style="fill:#fcca6b"/><path d="M959.3786,991.7638c-20.67-45.33-287.34,11.67-276.67,60C698.0387,1103.0938,978.0386,1042.4337,959.3786,991.7638Zm-232.68,52c-3.33-39.33,176-76,188.67-40.67C928.6986,1041.7638,730.6986,1078.4337,726.6986,1043.7638Z" transform="translate(-102.9503 -20.7972)" style="fill:#d3cdc1;opacity:0.7000000000000001"/><path d="M939.6893,996.7462c-18.52-39.2741-245.4334,7.0317-236.6666,50C718.8627,1092.8021,958.8542,1040.9433,939.6893,996.7462Zm-212.9907,47.0176c-3.33-39.33,176-76,188.67-40.67C928.6986,1041.7638,730.6986,1078.4337,726.6986,1043.7638Z" transform="translate(-102.9503 -20.7972)" style="fill:#7c7040;opacity:0.7000000000000001"/><path d="M886.7766,1023.3109h-130a65,65,0,0,1,130,0Z" transform="translate(-102.9503 -20.7972)" style="fill:#fcca6b"/><ellipse cx="1337.0497" cy="1729.8248" rx="47.418" ry="14.1275" style="fill:#595959;opacity:0.30000000000000004"/><ellipse cx="932.3562" cy="1682.8578" rx="239.0477" ry="25.75" style="fill:#595959;opacity:0.30000000000000004"/><polygon points="1072.184 1439.502 915.993 1624.336 715 1624.336 854.746 1440.597 1071.064 1437.99 1072.184 1439.502" style="fill:#aa6f22"/><polygon points="1072.367 1439.763 1155.766 1681.673 996.343 1681.673 1072.263 1439.632 1072.367 1439.763" style="fill:#160f11"/><rect x="994.1276" y="1646.9237" width="85.1892" height="34.7498" style="fill:#2d2b24"/><polygon points="1072.263 1439.632 996.343 1681.673 944.661 1681.673 944.661 1658.217 915.993 1624.336 1072.184 1439.502 1072.263 1439.632" style="fill:#aa7115"/><polygon points="726.238 1681.173 726.238 1624.837 915.761 1624.837 944.162 1658.401 944.162 1681.173 726.238 1681.173" style="fill:#874112"/><path d="M1018.4792,1646.1335l28.1324,33.2474v22.09H829.6877v-55.3372h188.7915m.4638-1H828.6877v57.3372h218.9239v-23.4562l-28.6686-33.881Z" transform="translate(-102.9503 -20.7972)" style="fill:#874b1a"/><line x1="863.2128" y1="1689.8793" x2="918.599" y2="1624.3363" style="fill:none;stroke:#9e5730;stroke-linecap:round;stroke-miterlimit:10;stroke-width:3px"/><line x1="918.599" y1="1624.3363" x2="1071.4956" y2="1440.9607" style="fill:none;stroke:#874b1a;stroke-linecap:round;stroke-miterlimit:10;stroke-width:3px"/><path d="M1312.1446,1646.4366l-37.79,19.5468v36.4873H1172.7109l-1.165-2.1637a25.7566,25.7566,0,0,1,2.3469-28.0244l18.1005-23.2721a31.1748,31.1748,0,0,0,6.27-23.4331l-24.249-166.79Z" transform="translate(-102.9503 -20.7972)" style="fill:#964f08"/><path d="M1312.1446,1646.4366l-37.79,19.5468v36.4873H1204.203c-7.6016,0-6.0862-21.9305-2.1719-29.103l10.8121-23.6013c4.0433-6.861,7.4291-15.096,6.27-23.4332l-43.9784-166.0339Z" transform="translate(-102.9503 -20.7972)" style="fill:#b26e1d"/><line x1="1206.7761" y1="1625.9229" x2="1071.4956" y2="1440.9607" style="fill:none;stroke:#874b1a;stroke-linecap:round;stroke-miterlimit:10;stroke-width:3px"/><line x1="715.8514" y1="1623.2166" x2="853.6953" y2="1441.9784" style="fill:none;stroke:#968d59;stroke-linecap:round;stroke-linejoin:bevel;stroke-width:2px"/><line x1="667.3994" y1="1680.5538" x2="715.8514" y2="1623.2166" style="fill:none;stroke:#874b1a;stroke-linecap:round;stroke-miterlimit:10;stroke-width:3px"/><line x1="1243.4372" y1="1675.6672" x2="1206.7761" y2="1625.9229" style="fill:none;stroke:#874b1a;stroke-linecap:round;stroke-miterlimit:10;stroke-width:3px"/><line x1="1071.5731" y1="1438.6857" x2="1245.1349" y2="1675.6404" style="fill:none;stroke:#968d59;stroke-linecap:round;stroke-linejoin:bevel;stroke-width:2px"/><rect x="795.2371" y="1642.1456" width="45.1748" height="24.3249" style="fill:#160f11"/><path d="M1484.13,1759.15c-1.38,3.97-4.17,6.61-6.23,5.89a1.2814,1.2814,0,0,1-.24-.11.0366.0366,0,0,1-.03-.01l-78.74-27.33a.66.66,0,0,1-.07-.02h-.01a1.1893,1.1893,0,0,1-.27-.07c-2.06-.72-2.62-4.52-1.24-8.49,1.38-3.96,4.16-6.6,6.22-5.89l.01-.03,79.37,27.55-.01.02C1484.95,1751.38,1485.51,1755.18,1484.13,1759.15Z" transform="translate(-102.9503 -20.7972)" style="fill:#744818"/><ellipse cx="1480.061" cy="1757.8506" rx="6.6993" ry="3.4837" transform="translate(-768.8668 2558.8803) rotate(-70.8585)" style="fill:#9d7549"/><path d="M1482.89,1737.5c-.1.03-.19.06-.29.08-.02,0-.04.01-.06.01l-78.75,27.34a.0349.0349,0,0,0-.02.01,2.43,2.43,0,0,1-.24.1c-2.06.72-4.85-1.92-6.23-5.89s-.82-7.77,1.24-8.49h.01l-.01-.02,79.37-27.55.01.03c2.06-.7,4.83,1.93,6.21,5.89C1485.51,1732.98,1484.95,1736.78,1482.89,1737.5Z" transform="translate(-102.9503 -20.7972)" style="fill:#744818"/><ellipse cx="1401.3721" cy="1757.8506" rx="3.4837" ry="6.6993" transform="translate(-601.8743 535.9052) rotate(-19.1415)" style="fill:#9d7549"/><path d="M1741.271,1672.697A298.8531,298.8531,0,0,1,1713,1800H1169.542a298.8531,298.8531,0,0,1-28.271-127.303c0-165.6854,134.3146-300,300-300S1741.271,1507.0116,1741.271,1672.697Z" transform="translate(-102.9503 -20.7972)" style="fill:url(#ak)"/><path d="M1474,1710.6786a33.7124,33.7124,0,0,1-33.7163,33.7163c-18.62,0-33.0309-14.8277-33.0309-33.4555,0-6.0087,1.8507-10.6149,4.372-15.2646l.0122-.02c5.5119-8.5361,9.4-20.6054,8.9076-29.0364a.2165.2165,0,0,1,.3592-.1825c6.2239,5.8286,9.4173,14.2622,6.1415,22.8671a.212.212,0,0,0,.3049.2615c13.5139-8.4247,18.1852-31.3014,14.4861-51.554a.2069.2069,0,0,1,.3488-.1884c8.1131,7.9713,17.9931,17.45,17.9931,36.2561,0,18.8833-8.2831,29.5268-5.5537,32.0945a.2223.2223,0,0,0,.27.0153c7.179-4.8117,11.4235-10.7434,12.8232-17.7673a.2113.2113,0,0,1,.3571-.1116C1473.0452,1693.4836,1474.0144,1704.9,1474,1710.6786Z" transform="translate(-102.9503 -20.7972)" style="fill:#f6e738"/><path d="M1457.1417,1727.5368a16.8562,16.8562,0,0,1-16.8582,16.8581c-9.31,0-17.0464-7.2316-17.0464-16.4266,0-6.8407,4.8462-11.6618,7.2027-14.3518,2.8977-3.37,15.02-13.5308,15.54-25.9535l.175-.032c4.555,8.7222,3.5611,16.2369,3.5611,21.6049,0,8.7105-3.3838,14.3683-2.3849,15.9012a.3084.3084,0,0,0,.42.0448c3.491-2.3858,5.56-5.3145,6.2493-8.7728a.1058.1058,0,0,1,.1775-.0581C1456.6642,1718.9373,1457.149,1724.6469,1457.1417,1727.5368Z" transform="translate(-102.9503 -20.7972)" style="fill:url(#al)"/><path d="M1627.2044,1363.8217l-42.0627,192.92a.9977.9977,0,0,0,.9748,1.21h84.1253a.9977.9977,0,0,0,.9748-1.21l-42.0627-192.92A.9976.9976,0,0,0,1627.2044,1363.8217Z" transform="translate(-102.9503 -20.7972)" style="fill:#464f1f"/><ellipse cx="1525.2289" cy="1580.333" rx="35" ry="8.1281" style="fill:#595959;opacity:0.30000000000000004"/><line x1="1525.2289" y1="1463.1288" x2="1525.2289" y2="1580.333" style="fill:none;stroke:#6d5e4a;stroke-miterlimit:10;stroke-width:4px"/><line x1="1525.2289" y1="1509.6821" x2="1503.2355" y2="1498.3488" style="fill:none;stroke:#6d5e4a;stroke-miterlimit:10;stroke-width:4px"/><line x1="1525.2289" y1="1494.4881" x2="1545.2355" y2="1477.1548" style="fill:none;stroke:#6d5e4a;stroke-miterlimit:10;stroke-width:4px"/><line x1="1525.2289" y1="1521.8215" x2="1545.2355" y2="1504.4881" style="fill:none;stroke:#6d5e4a;stroke-miterlimit:10;stroke-width:4px"/><path d="M2034.5127,1480.3369,2002.5659,1626.86a.9977.9977,0,0,0,.9748,1.21h63.8934a.9977.9977,0,0,0,.9748-1.21l-31.9467-146.5235A.9976.9976,0,0,0,2034.5127,1480.3369Z" transform="translate(-102.9503 -20.7972)" style="fill:#464f1f"/><ellipse cx="1932.5372" cy="1640.3644" rx="26.8234" ry="6.2292" style="fill:#595959;opacity:0.30000000000000004"/><line x1="1932.5372" y1="1550.5411" x2="1932.5372" y2="1640.3644" style="fill:none;stroke:#6d5e4a;stroke-miterlimit:10;stroke-width:4px"/><line x1="1932.5372" y1="1586.2188" x2="1915.6818" y2="1577.5331" style="fill:none;stroke:#6d5e4a;stroke-miterlimit:10;stroke-width:4px"/><line x1="1932.5372" y1="1574.5744" x2="1947.8699" y2="1561.2904" style="fill:none;stroke:#6d5e4a;stroke-miterlimit:10;stroke-width:4px"/><line x1="1932.5372" y1="1595.5222" x2="1947.8699" y2="1582.2382" style="fill:none;stroke:#6d5e4a;stroke-miterlimit:10;stroke-width:4px"/><path d="M1769.0957,1342.07l-42.0626,192.92a.9977.9977,0,0,0,.9748,1.21h84.1252a.9977.9977,0,0,0,.9748-1.21l-42.0626-192.92A.9977.9977,0,0,0,1769.0957,1342.07Z" transform="translate(-102.9503 -20.7972)" style="fill:#24260f"/><ellipse cx="1667.1202" cy="1558.5808" rx="35" ry="8.1281" style="fill:#595959;opacity:0.30000000000000004"/><line x1="1667.1202" y1="1441.3768" x2="1667.1202" y2="1558.5808" style="fill:none;stroke:#6d5e4a;stroke-miterlimit:10;stroke-width:4px"/><line x1="1667.1202" y1="1487.9302" x2="1645.1268" y2="1476.5969" style="fill:none;stroke:#6d5e4a;stroke-miterlimit:10;stroke-width:4px"/><line x1="1667.1202" y1="1472.7362" x2="1687.1268" y2="1455.4029" style="fill:none;stroke:#6d5e4a;stroke-miterlimit:10;stroke-width:4px"/><line x1="1667.1202" y1="1500.0695" x2="1687.1268" y2="1482.7362" style="fill:none;stroke:#6d5e4a;stroke-miterlimit:10;stroke-width:4px"/><path d="M691.1934,1457.95l-33.04,151.5369a.9977.9977,0,0,0,.9748,1.21h66.08a.9977.9977,0,0,0,.9748-1.21L693.143,1457.95A.9977.9977,0,0,0,691.1934,1457.95Z" transform="translate(-102.9503 -20.7972)" style="fill:#8b913d"/><ellipse cx="589.2179" cy="1624.0811" rx="27.7069" ry="6.4344" style="fill:#595959;opacity:0.30000000000000004"/><line x1="589.2179" y1="1531.2993" x2="589.2179" y2="1624.0811" style="fill:none;stroke:#6d5e4a;stroke-miterlimit:10;stroke-width:4px"/><line x1="589.2179" y1="1568.1522" x2="571.8074" y2="1559.1804" style="fill:none;stroke:#6d5e4a;stroke-miterlimit:10;stroke-width:4px"/><line x1="589.2179" y1="1556.1242" x2="605.0557" y2="1542.4027" style="fill:none;stroke:#6d5e4a;stroke-miterlimit:10;stroke-width:4px"/><line x1="589.2179" y1="1577.762" x2="605.0557" y2="1564.0405" style="fill:none;stroke:#6d5e4a;stroke-miterlimit:10;stroke-width:4px"/><path d="M1505.0892,1344.2911l-42.0626,192.92a.9977.9977,0,0,0,.9748,1.21h84.1252a.9977.9977,0,0,0,.9748-1.21l-42.0626-192.92A.9977.9977,0,0,0,1505.0892,1344.2911Z" transform="translate(-102.9503 -20.7972)" style="fill:#8b913d"/><ellipse cx="1403.1137" cy="1560.8021" rx="35" ry="8.1281" style="fill:#595959;opacity:0.30000000000000004"/><line x1="1403.1137" y1="1443.5981" x2="1403.1137" y2="1560.8021" style="fill:none;stroke:#6d5e4a;stroke-miterlimit:10;stroke-width:4px"/><line x1="1403.1137" y1="1490.1515" x2="1381.1203" y2="1478.8182" style="fill:none;stroke:#6d5e4a;stroke-miterlimit:10;stroke-width:4px"/><line x1="1403.1137" y1="1474.9575" x2="1423.1203" y2="1457.6242" style="fill:none;stroke:#6d5e4a;stroke-miterlimit:10;stroke-width:4px"/><line x1="1403.1137" y1="1502.2909" x2="1423.1203" y2="1484.9575" style="fill:none;stroke:#6d5e4a;stroke-miterlimit:10;stroke-width:4px"/><path d="M1555.7556,1444.3142l-29.21,140.4628a.9976.9976,0,0,0,.9767,1.2008h58.4205a.9977.9977,0,0,0,.9768-1.2008l-29.21-140.4628A.9976.9976,0,0,0,1555.7556,1444.3142Z" transform="translate(-102.9503 -20.7972)" style="fill:#24260f"/><ellipse cx="1453.7821" cy="1597.0009" rx="24.6017" ry="5.99" style="fill:#595959;opacity:0.30000000000000004"/><line x1="1453.7821" y1="1510.6265" x2="1453.7821" y2="1597.0009" style="fill:none;stroke:#6d5e4a;stroke-miterlimit:10;stroke-width:4px"/><line x1="1453.7821" y1="1544.9344" x2="1438.3228" y2="1536.5822" style="fill:none;stroke:#6d5e4a;stroke-miterlimit:10;stroke-width:4px"/><line x1="1453.7821" y1="1533.737" x2="1467.8449" y2="1520.9631" style="fill:none;stroke:#6d5e4a;stroke-miterlimit:10;stroke-width:4px"/><line x1="1453.7821" y1="1553.8805" x2="1467.8449" y2="1541.1066" style="fill:none;stroke:#6d5e4a;stroke-miterlimit:10;stroke-width:4px"/><path d="M760.3481,1442.08l-30.0188,140.2922a.9976.9976,0,0,0,.97,1.2064l58.42.3365a.9976.9976,0,0,0,.9836-1.1951l-28.4007-140.6288A.9977.9977,0,0,0,760.3481,1442.08Z" transform="translate(-102.9503 -20.7972)" style="fill:#25260f"/><ellipse cx="760.3256" cy="1615.5666" rx="5.99" ry="24.6017" transform="translate(-962.544 2345.7764) rotate(-89.67)" style="fill:#595959;opacity:0.30000000000000004"/><line x1="657.8729" y1="1508.3964" x2="657.3753" y2="1594.7693" style="fill:none;stroke:#6d5e4a;stroke-miterlimit:10;stroke-width:4px"/><line x1="657.6752" y1="1542.7037" x2="642.2643" y2="1534.2626" style="fill:none;stroke:#6d5e4a;stroke-miterlimit:10;stroke-width:4px"/><line x1="657.7397" y1="1531.5065" x2="671.8758" y2="1518.8138" style="fill:none;stroke:#6d5e4a;stroke-miterlimit:10;stroke-width:4px"/><line x1="657.6237" y1="1551.6497" x2="671.7598" y2="1538.957" style="fill:none;stroke:#6d5e4a;stroke-miterlimit:10;stroke-width:4px"/><path d="M807.495,1485.32l-46.8641,225.3548a.9977.9977,0,0,0,.9768,1.2008h93.7282a.9977.9977,0,0,0,.9768-1.2008L809.4486,1485.32A.9977.9977,0,0,0,807.495,1485.32Z" transform="translate(-102.9503 -20.7972)" style="fill:#464f1f"/><ellipse cx="705.5215" cy="1741.3546" rx="38.8712" ry="9.4644" style="fill:#595959;opacity:0.30000000000000004"/><line x1="705.5215" y1="1604.8814" x2="705.5215" y2="1741.3546" style="fill:none;stroke:#6d5e4a;stroke-miterlimit:10;stroke-width:4px"/><line x1="705.5215" y1="1659.0885" x2="681.0955" y2="1645.8919" style="fill:none;stroke:#6d5e4a;stroke-miterlimit:10;stroke-width:4px"/><line x1="705.5215" y1="1641.3965" x2="727.741" y2="1621.2134" style="fill:none;stroke:#6d5e4a;stroke-miterlimit:10;stroke-width:4px"/><line x1="705.5215" y1="1673.2237" x2="727.741" y2="1653.0406" style="fill:none;stroke:#6d5e4a;stroke-miterlimit:10;stroke-width:4px"/></svg>