<svg xmlns="http://www.w3.org/2000/svg" viewBox="0 0 774.8824 120.8603"><title>Element 1</title><g id="Ebene_2" data-name="Ebene 2"><g id="PLANE"><polygon points="292.524 22 774.882 22 726.054 61.921 774.882 101.842 292.524 101.842 292.524 22" style="fill:#f4f4f4;fill-rule:evenodd"/><polyline points="292.524 22 239.666 61.921 292.524 101.842" style="fill:none;stroke:#f4f4f4;stroke-miterlimit:22.925600000000003;stroke-width:1.9199000000000002px;fill-rule:evenodd"/><g style="opacity:0.8"><path d="M326.9712,59.9454a18.6293,18.6293,0,0,1,1.1524-6.3862,17.6449,17.6449,0,0,1,3.3808-5.71,17.0691,17.0691,0,0,1,5.4346-4.0826,16.46,16.46,0,0,1,7.2637-1.5527,15.4166,15.4166,0,0,1,8.3144,2.1538,14.0057,14.0057,0,0,1,5.21,5.61l-4.4082,2.955a10.0781,10.0781,0,0,0-1.8028-2.7046,8.8374,8.8374,0,0,0-2.3046-1.7534,9.93,9.93,0,0,0-2.6045-.9262,13.0921,13.0921,0,0,0-2.6045-.2759A10.24,10.24,0,0,0,339.0933,48.4a10.8935,10.8935,0,0,0-3.5313,2.98,13.3156,13.3156,0,0,0-2.1543,4.1577,15.2544,15.2544,0,0,0-.7255,4.6084,14.45,14.45,0,0,0,.8515,4.959,13.4039,13.4039,0,0,0,2.3789,4.1572,11.6938,11.6938,0,0,0,3.6319,2.88,9.956,9.956,0,0,0,4.6084,1.0767,11.6334,11.6334,0,0,0,2.68-.3252,9.978,9.978,0,0,0,2.6543-1.0523,10.6231,10.6231,0,0,0,2.3545-1.8281A9.131,9.131,0,0,0,353.62,67.359l4.6582,2.6548a10.8789,10.8789,0,0,1-2.4043,3.5312,15.3265,15.3265,0,0,1-3.5059,2.58,17.97,17.97,0,0,1-4.1328,1.6031,17.44,17.44,0,0,1-4.2832.5512,14.7367,14.7367,0,0,1-6.8623-1.603,18.0143,18.0143,0,0,1-5.3594-4.1826,19.2414,19.2414,0,0,1-3.5059-5.8609A18.5834,18.5834,0,0,1,326.9712,59.9454Z" style="fill:#424242"/><path d="M374.5572,78.4791a13.6207,13.6207,0,0,1-5.585-1.102,12.827,12.827,0,0,1-6.9375-7.2881,14.5895,14.5895,0,0,1,0-10.3687,12.8092,12.8092,0,0,1,2.73-4.333,13.3532,13.3532,0,0,1,4.2578-2.9551,14.452,14.452,0,0,1,11.07,0,13.3421,13.3421,0,0,1,4.2578,2.9551,12.8385,12.8385,0,0,1,2.73,4.333,14.5895,14.5895,0,0,1,0,10.3687,12.8315,12.8315,0,0,1-2.73,4.3325,13.32,13.32,0,0,1-4.2578,2.9556A13.5,13.5,0,0,1,374.5572,78.4791Zm-7.8145-13.5244a9.9156,9.9156,0,0,0,.6016,3.5064,8.683,8.683,0,0,0,1.6533,2.78,7.7173,7.7173,0,0,0,2.48,1.8536,7.3551,7.3551,0,0,0,6.1611,0,7.5839,7.5839,0,0,0,2.48-1.8785,9.0077,9.0077,0,0,0,1.6523-2.8051,10.4449,10.4449,0,0,0,0-6.9873,8.9569,8.9569,0,0,0-1.6523-2.83,7.5754,7.5754,0,0,0-2.48-1.8784,7.1035,7.1035,0,0,0-3.081-.6763,6.7819,6.7819,0,0,0-3.03.7012,7.88,7.88,0,0,0-2.48,1.9033,9.349,9.349,0,0,0-1.6777,2.83A9.6055,9.6055,0,0,0,366.7427,64.9547Z" style="fill:#424242"/><path d="M403.6089,78.4791A11.2426,11.2426,0,0,1,398.7,77.402a12.268,12.268,0,0,1-3.9072-2.93,13.5625,13.5625,0,0,1-2.5791-4.333,15.7969,15.7969,0,0,1-.0508-10.5186,13.705,13.705,0,0,1,2.4551-4.2827,11.8628,11.8628,0,0,1,3.7061-2.9306,10.8109,10.8109,0,0,1,10.2441.4511,11.1454,11.1454,0,0,1,3.7568,3.8819V41.4122h5.51V71.4664a2.1665,2.1665,0,0,0,.3252,1.3526,1.5712,1.5712,0,0,0,1.1768.4507v4.7084q-.8511.15-1.377.2c-.3506.0332-.6436.05-.877.05a4.1575,4.1575,0,0,1-2.7041-.8515,3.0053,3.0053,0,0,1-1.1523-2.2041l-.1006-1.9536a10.44,10.44,0,0,1-3.957,3.8569A11.1891,11.1891,0,0,1,403.6089,78.4791Zm1.3526-4.7085a7.5551,7.5551,0,0,0,2.4042-.4009,8.48,8.48,0,0,0,2.2032-1.102,7.74,7.74,0,0,0,1.7285-1.6528,5.96,5.96,0,0,0,1.0273-2.0537V61.6989a8.2164,8.2164,0,0,0-1.2773-2.3042,9.1656,9.1656,0,0,0-1.8789-1.8033,8.613,8.613,0,0,0-2.2285-1.1523,7.3576,7.3576,0,0,0-2.38-.4,6.2235,6.2235,0,0,0-3.03.7515,7.7951,7.7951,0,0,0-2.3789,2.0034,9.8515,9.8515,0,0,0-1.5781,2.855,9.6909,9.6909,0,0,0-.5762,3.3061,9.2653,9.2653,0,0,0,.626,3.4063,8.8682,8.8682,0,0,0,1.7285,2.8046A8.4632,8.4632,0,0,0,401.88,73.07,6.8912,6.8912,0,0,0,404.9615,73.7706Z" style="fill:#424242"/><path d="M436.7183,78.4791a13.9383,13.9383,0,0,1-5.5606-1.0771,12.9207,12.9207,0,0,1-4.2822-2.93,13.1739,13.1739,0,0,1-2.7549-4.3076,13.9537,13.9537,0,0,1-.9775-5.2095,14.1519,14.1519,0,0,1,.9775-5.2344,13.3966,13.3966,0,0,1,2.7549-4.3579,12.7544,12.7544,0,0,1,4.2822-2.9555,14.0674,14.0674,0,0,1,5.61-1.0767,13.4931,13.4931,0,0,1,5.5351,1.102,13.2488,13.2488,0,0,1,4.2325,2.93,12.5463,12.5463,0,0,1,2.68,4.2578,14.1623,14.1623,0,0,1,.9267,5.084c0,.4009-.0176.7764-.05,1.127-.0342.3506-.0674.6435-.1006.8764H429.0044a8.9424,8.9424,0,0,0,.8262,3.1558,8.2864,8.2864,0,0,0,1.7529,2.43,7.6962,7.6962,0,0,0,5.335,2.1284,8.7426,8.7426,0,0,0,2.1787-.2754,7.6584,7.6584,0,0,0,1.9785-.8013,6.9968,6.9968,0,0,0,1.6025-1.2773,5.9671,5.9671,0,0,0,1.1026-1.6528l4.708,1.352a10.9173,10.9173,0,0,1-4.4824,4.834A13.8923,13.8923,0,0,1,436.7183,78.4791Zm7.9639-15.5781a8.817,8.817,0,0,0-.8262-3.0557,7.8881,7.8881,0,0,0-1.7285-2.3794,7.7262,7.7262,0,0,0-2.4541-1.5273,8.0172,8.0172,0,0,0-2.9551-.5513,7.8436,7.8436,0,0,0-5.36,2.0786,7.5345,7.5345,0,0,0-1.7031,2.3794,9.171,9.171,0,0,0-.8008,3.0557Z" style="fill:#424242"/><path d="M491.1646,77.9781l-3.2559-3.4062a16.1376,16.1376,0,0,1-4.833,2.9053,15.2917,15.2917,0,0,1-5.4853,1.0019,13.5561,13.5561,0,0,1-4.7588-.8017,11.5972,11.5972,0,0,1-3.7061-2.1787,9.6156,9.6156,0,0,1-3.2558-7.2378,9.2089,9.2089,0,0,1,.5253-3.1558A11.027,11.027,0,0,1,467.8228,62.4a13.6923,13.6923,0,0,1,2.1035-2.3042,27.9824,27.9824,0,0,1,2.5049-1.9536,27.8636,27.8636,0,0,1-1.9287-2.3042,14.4968,14.4968,0,0,1-1.252-1.9785,8.6347,8.6347,0,0,1-.7012-1.8032,7.3068,7.3068,0,0,1-.2255-1.8282,7.657,7.657,0,0,1,.7265-3.331,8.087,8.087,0,0,1,1.9785-2.63,8.8653,8.8653,0,0,1,2.9805-1.7031,11.2865,11.2865,0,0,1,3.7314-.6011,11.8641,11.8641,0,0,1,3.4561.501,9.1473,9.1473,0,0,1,2.9053,1.4526,6.86,6.86,0,0,1,1.9785,2.3794,7.5126,7.5126,0,0,1,.2,5.9859,9.9921,9.9921,0,0,1-1.4277,2.3794,15.2173,15.2173,0,0,1-2.128,2.1538,32.8853,32.8853,0,0,1-2.63,1.9785l8.0137,8.415a18.0826,18.0826,0,0,0,1.3281-3.7817,18.98,18.98,0,0,0,.4756-4.333H494.42a24.7511,24.7511,0,0,1-.8515,6.2866,19.3872,19.3872,0,0,1-2.2539,5.1841l7.1132,7.4135Zm-12.9727-3.8569a9.4367,9.4367,0,0,0,3.5811-.7012,10.8357,10.8357,0,0,0,3.1806-2.0039l-9.2168-9.7675a15.5289,15.5289,0,0,0-3.3056,3.0556,5.71,5.71,0,0,0-1.252,3.6065A5.1346,5.1346,0,0,0,471.73,70.69a5.36,5.36,0,0,0,1.5274,1.8281,7.6619,7.6619,0,0,0,2.2294,1.1772A8.3328,8.3328,0,0,0,478.1919,74.1212Zm-4.8095-24.0434a3.2429,3.2429,0,0,0,.15.977,4.8446,4.8446,0,0,0,.5264,1.0767,9.9946,9.9946,0,0,0,1.0518,1.3525q.6766.7515,1.6777,1.8535a21.0023,21.0023,0,0,0,3.6318-2.78,4.0676,4.0676,0,0,0,1.3272-2.93,3.2442,3.2442,0,0,0-1.127-2.58,4.2384,4.2384,0,0,0-2.88-.9771,4.34,4.34,0,0,0-3.1308,1.1773A3.7813,3.7813,0,0,0,473.3824,50.0778Z" style="fill:#424242"/><path d="M512.7036,59.9454a18.6293,18.6293,0,0,1,1.1524-6.3862,17.6467,17.6467,0,0,1,3.3808-5.71,17.0691,17.0691,0,0,1,5.4346-4.0826,16.46,16.46,0,0,1,7.2637-1.5527,15.4164,15.4164,0,0,1,8.3144,2.1538,14.0057,14.0057,0,0,1,5.21,5.61l-4.4082,2.955a10.08,10.08,0,0,0-1.8027-2.7046,8.8378,8.8378,0,0,0-2.3047-1.7534,9.93,9.93,0,0,0-2.6045-.9262,13.0921,13.0921,0,0,0-2.6045-.2759A10.24,10.24,0,0,0,524.8257,48.4a10.8931,10.8931,0,0,0-3.5312,2.98,13.3114,13.3114,0,0,0-2.1543,4.1577,15.2514,15.2514,0,0,0-.7256,4.6084,14.45,14.45,0,0,0,.8515,4.959,13.4039,13.4039,0,0,0,2.3789,4.1572,11.6949,11.6949,0,0,0,3.6319,2.88,9.956,9.956,0,0,0,4.6084,1.0767,11.6342,11.6342,0,0,0,2.68-.3252,9.9806,9.9806,0,0,0,2.6543-1.0523,10.6277,10.6277,0,0,0,2.3545-1.8281,9.1327,9.1327,0,0,0,1.7783-2.6548l4.6582,2.6548a10.8789,10.8789,0,0,1-2.4043,3.5312,15.3265,15.3265,0,0,1-3.5059,2.58,17.9682,17.9682,0,0,1-4.1328,1.6031,17.44,17.44,0,0,1-4.2832.5512,14.7367,14.7367,0,0,1-6.8623-1.603,18.0155,18.0155,0,0,1-5.3594-4.1826,19.2411,19.2411,0,0,1-3.5058-5.8609A18.5814,18.5814,0,0,1,512.7036,59.9454Z" style="fill:#424242"/><path d="M560.29,78.4791a13.6207,13.6207,0,0,1-5.585-1.102,12.827,12.827,0,0,1-6.9375-7.2881,14.5909,14.5909,0,0,1,0-10.3687,12.8107,12.8107,0,0,1,2.7295-4.333,13.3543,13.3543,0,0,1,4.2578-2.9551,14.452,14.452,0,0,1,11.07,0,13.341,13.341,0,0,1,4.2578,2.9551,12.8385,12.8385,0,0,1,2.73,4.333,14.5895,14.5895,0,0,1,0,10.3687,12.8315,12.8315,0,0,1-2.73,4.3325,13.3186,13.3186,0,0,1-4.2578,2.9556A13.5,13.5,0,0,1,560.29,78.4791Zm-7.8145-13.5244a9.9156,9.9156,0,0,0,.6016,3.5064,8.6848,8.6848,0,0,0,1.6533,2.78,7.7184,7.7184,0,0,0,2.48,1.8536,7.3551,7.3551,0,0,0,6.1611,0,7.5839,7.5839,0,0,0,2.48-1.8785,9.01,9.01,0,0,0,1.6524-2.8051,10.4466,10.4466,0,0,0,0-6.9873,8.959,8.959,0,0,0-1.6524-2.83,7.5754,7.5754,0,0,0-2.48-1.8784,7.1035,7.1035,0,0,0-3.081-.6763,6.7819,6.7819,0,0,0-3.03.7012,7.8809,7.8809,0,0,0-2.48,1.9033,9.351,9.351,0,0,0-1.6777,2.83A9.6055,9.6055,0,0,0,552.4751,64.9547Z" style="fill:#424242"/><path d="M602.1636,77.9781h-5.51V63.3019q0-3.7068-1.1767-5.3848a3.9788,3.9788,0,0,0-3.4815-1.6782,6.8115,6.8115,0,0,0-2.4043.4507,8.4265,8.4265,0,0,0-2.2539,1.2773,9.9872,9.9872,0,0,0-1.8789,1.9536,8.97,8.97,0,0,0-1.2773,2.48V77.9781h-5.51V51.7809h5.01V57.04a10.6419,10.6419,0,0,1,4.3574-4.1822A13.1625,13.1625,0,0,1,594.35,51.33a7.7609,7.7609,0,0,1,3.8565.8516,6.3786,6.3786,0,0,1,2.38,2.3291,10.198,10.198,0,0,1,1.2265,3.4062,22.8412,22.8412,0,0,1,.3506,4.082Z" style="fill:#424242"/><path d="M622.9009,76.6256a27.4108,27.4108,0,0,1-2.9053,1.127,12.2779,12.2779,0,0,1-3.957.6264,8.4077,8.4077,0,0,1-2.4541-.3506,5.9824,5.9824,0,0,1-2.0283-1.0522,4.77,4.77,0,0,1-1.378-1.8281,6.6987,6.6987,0,0,1-.5009-2.73V56.0387h-3.4561V51.7809h3.4561V43.1652h5.51v8.6157h5.711v4.2578h-5.711V70.6652a2.7184,2.7184,0,0,0,.877,2.0283,2.97,2.97,0,0,0,1.9287.6264,6.1332,6.1332,0,0,0,2.2041-.4008q1.0518-.4006,1.5527-.6514Z" style="fill:#424242"/><path d="M637.9292,78.4791a13.9375,13.9375,0,0,1-5.5605-1.0771,12.92,12.92,0,0,1-4.2822-2.93,13.1722,13.1722,0,0,1-2.7549-4.3076,13.9518,13.9518,0,0,1-.9776-5.2095,14.15,14.15,0,0,1,.9776-5.2344,13.3949,13.3949,0,0,1,2.7549-4.3579,12.7534,12.7534,0,0,1,4.2822-2.9555,14.0665,14.0665,0,0,1,5.61-1.0767,13.4933,13.4933,0,0,1,5.5352,1.102,13.2483,13.2483,0,0,1,4.2324,2.93,12.5448,12.5448,0,0,1,2.68,4.2578,14.16,14.16,0,0,1,.9268,5.084c0,.4009-.0176.7764-.05,1.127-.0341.3506-.0673.6435-.1.8764H630.2154a8.9445,8.9445,0,0,0,.8261,3.1558,8.2849,8.2849,0,0,0,1.753,2.43,7.6962,7.6962,0,0,0,5.3349,2.1284,8.742,8.742,0,0,0,2.1787-.2754,7.657,7.657,0,0,0,1.9785-.8013,7,7,0,0,0,1.6026-1.2773,5.9667,5.9667,0,0,0,1.1025-1.6528l4.708,1.352a10.9168,10.9168,0,0,1-4.4824,4.834A13.8923,13.8923,0,0,1,637.9292,78.4791Zm7.9639-15.5781a8.8148,8.8148,0,0,0-.8262-3.0557,7.8864,7.8864,0,0,0-1.7285-2.3794,7.7251,7.7251,0,0,0-2.4541-1.5273,8.0168,8.0168,0,0,0-2.9551-.5513,7.8436,7.8436,0,0,0-5.36,2.0786,7.5332,7.5332,0,0,0-1.7032,2.3794,9.1733,9.1733,0,0,0-.8007,3.0557Z" style="fill:#424242"/><path d="M657.814,51.7809l6.4121,8.9663.45.8516.4512-.8516,6.3613-8.9663H677.25l-9.5673,13.1235,9.6669,13.0737h-5.76l-6.4619-8.916-.4512-.8012-.45.8012-6.4619,8.916h-5.7608l9.668-13.0737L652.104,51.7809Z" style="fill:#424242"/><path d="M695.6314,76.6256a27.4108,27.4108,0,0,1-2.9053,1.127,12.2783,12.2783,0,0,1-3.957.6264,8.4072,8.4072,0,0,1-2.4541-.3506,5.9829,5.9829,0,0,1-2.0284-1.0522,4.7707,4.7707,0,0,1-1.3779-1.8281,6.697,6.697,0,0,1-.501-2.73V56.0387h-3.456V51.7809h3.456V43.1652h5.51v8.6157h5.7109v4.2578h-5.7109V70.6652a2.7184,2.7184,0,0,0,.877,2.0283,2.97,2.97,0,0,0,1.9287.6264,6.1336,6.1336,0,0,0,2.2041-.4008q1.0517-.4006,1.5527-.6514Z" style="fill:#424242"/></g><path d="M190.22,74.8647c7.2647,2.793,14.8008.7651,26.1831-9.2935s24.6172-17.7348,30.44-11.6464,1.8525,25.1455-2.647,32.0278-17.3594,9.3159-47.8833,9.3022S159.4932,74.3066,190.22,74.8647Z" style="fill:#ea9b1c;fill-rule:evenodd"/><circle cx="53.0557" cy="103.8647" r="9.2549" style="fill:#4d4d4d"/><circle cx="53.0557" cy="103.8647" r="4.9834" style="fill:#f7daac"/><rect x="50.6108" y="85.7846" width="22.9761" height="5.1134" transform="translate(-45.4925 97.5356) rotate(-59.7794)" style="fill:#a66803"/><polygon points="31.333 73.393 33.778 71.013 63.95 102.805 61.504 105.184 31.333 73.393" style="fill:#a66803;fill-rule:evenodd"/><path d="M85.0449,52.8364a1.3712,1.3712,0,0,1,1.3716,1.3716l-.001.0439c.5152,1.1064,2.2657,4.2476,5.4683,4.0874,3.7407-.187,2.7974-2.896,3.5908-4.31a4.8548,4.8548,0,1,1,6.2534.7979c2.4375,2.9809,4.2549,8.4927,3.9429,16.1338-.3882,9.5146-25.8267.5825-25.8267.5825s6.6026-6.0195,5.6314-10.4863A45.3375,45.3375,0,0,0,83.728,54.65l.0166-.0054a1.3719,1.3719,0,0,1,1.3-1.8081Z" style="fill:#b57312;fill-rule:evenodd"/><path d="M7.9766,55.2934C7.0752,63.6943,20.8535,79.3408,80.1211,86.75S222.1162,98.038,225.6441,92.746c3.09-4.6347-59.5181-28.8281-103.9888-38.8491-.5347,5.459-2.0191,9.4141-5.711,8.5352-6.1752-1.47-28.2319-5.2935-37.3486-7.0581-7.7148-1.4932-7.8481-4.461-8.063-8.3677C37.1406,44.6459,8.9146,46.55,7.9766,55.2934Z" style="fill:#ea9b1c;fill-rule:evenodd"/><path d="M39.4253,78.6435c10.27,3.1406,23.583,5.9668,40.6958,8.106,3.8555.4819,7.8125.9487,11.8384,1.3989,2.0937-15.8369,3.9248-29.59,3.9248-29.59-6.6318-1.21-13.2378-2.4-17.2886-3.1845-7.7148-1.4932-7.8481-4.461-8.063-8.3677-5.228-.37-10.33-.6348-15.22-.7852Z" style="fill:#ea9b1c;fill-rule:evenodd"/><path d="M16.9854,51.8076c8.792,1.563,15.5268,5.0381,15.0429,7.7617s-8.0039,3.6645-16.7959,2.1015S-.2944,56.6332.19,53.91,8.1934,50.2451,16.9854,51.8076Z" style="fill:#ea9b1c;fill-rule:evenodd"/><path d="M7.9375,56.1567l.0571.0122.0562.0122.0117.0024.0435.0093.0542.0117.0268.0059.0269.0059.0522.0112.041.0088.0108.0024.0508.0112.05.01.0034.001.0454.01.0483.01.0176.0039.0293.0064.0464.01.03.0064.0161.0034.0444.01.041.0088.0025.0005.0425.0093.042.0093.0092.0019.0318.0069.04.0083.02.0048.0186.0039.0381.0083.03.0069.0074.0014.0361.0079.0361.0078.0034,0,.0308.0068.0342.0073.0127.003.02.0043.0322.0074.021.0044.01.0019.03.0069.0283.0058.001.0005.0283.0064.0278.0058.0064.0015.02.0044.0259.0058.0131.003.0113.0024.0239.0049.02.0044.0039.001.022.0043.0215.0054.0019.0005.0181.0034.02.0049.0079.0015.0107.0024.0176.0039.0117.0025.0049.0009.0161.0035.0146.0034h0l.0142.0029.0127.0029.0034.001.0088.002.0117.0024.0059.0015.0044.0009.0093.002.0073.0015.0014,0,.0079.0014.0068.002H9.76l.0048.0009.0049.001.002,0,.0019.0005.0035.001h.0019l.0005.0005h.0015l.0014.0019.0044.0049.0059.0059.0019.0024.01.0107.0137.0147.01.01.0073.0074.02.0205.0229.0239.01.01.0161.0166.0293.03.0322.0323.0064.0068.0293.0288.039.0386.0411.0415h.0009l.045.0444.0893.086.0112.0112.0552.0522.0586.0552.062.0586.0654.0606.0689.0634.0723.066.0756.0683.0791.0713.0713.0635.0108.01.0864.0762.1831.1592.0962.0835.0088.0073.0918.0781.104.0879.1074.09.1113.0927.1148.0948.1186.0971.1226.0987.126.101.0259.021.2265.1792.0108.0088.1377.1075.0141.0107.2476.1914.0244.0186.1489.1132.0239.0181.1289.0977.1568.1167.1606.1191.1641.1206.0005.0005.1684.1226.1724.1245.1714.122.2822.1993.2222.1552.2934.2022.26.1767.3618.2427.16.1065.4477.2924.1768.1143c8.7383,5.6147,27.2026,14.355,60.9321,17.9609,51.5654,5.5132,118.0488,11.6753,139.7778,7.7832.59-.1054,1.1651-.2094,1.7305-.313,4.9712,2.627,7.5908,4.6524,6.898,5.6924-3.5279,5.2915-86.2559,1.4117-145.523-5.997C30.9277,80.6,13.0747,68.7758,8.9424,60.13,4.0068,58.5468.5806,56.4169.2012,54.5332,3.772,55.2675,6.3589,55.8173,7.9375,56.1567Z" style="fill:#cf8713;fill-rule:evenodd"/><path d="M7.9375,56.1567l.0571.0122.0562.0122.0117.0024.0435.0093.0542.0117.0268.0059.0269.0059.0522.0112.041.0088.0108.0024.0508.0112.05.01.0034.001.0454.01.0483.01.0176.0039.0293.0064.0464.01.03.0064.0161.0034.0444.01.041.0088.0025.0005.0425.0093.042.0093.0092.0019.0318.0069.04.0083.02.0048.0186.0039.0381.0083.03.0069.0074.0014.0361.0079.0361.0078.0034,0,.0308.0068.0342.0073.0127.003.02.0043.0322.0074.021.0044.01.0019.03.0069.0283.0058.001.0005.0283.0064.0278.0058.0064.0015.02.0044.0259.0058.0131.003.0113.0024.0239.0049.02.0044.0039.001.022.0043.0215.0054.0019.0005.0181.0034.02.0049.0079.0015.0107.0024.0176.0039.0117.0025.0049.0009.0161.0035.0146.0034h0l.0142.0029.0127.0029.0034.001.0088.002.0117.0024.0059.0015.0044.0009.0093.002.0073.0015.0014,0,.0079.0014.0068.002H9.76l.0048.0009.0049.001.002,0,.0019.0005.0035.001h.0019l.0005.0005h.0015l.0014.0019.0044.0049.0059.0059.0019.0024.01.0107.0137.0147.01.01.0073.0074.02.0205.0229.0239.01.01.0161.0166.0293.03.0322.0323.0064.0068.0293.0288.039.0386.0411.0415h.0009l.045.0444.0893.086.0112.0112.0552.0522.0586.0552.062.0586.0654.0606.0689.0634.0723.066.0756.0683.0791.0713.0713.0635.0108.01.0864.0762.1831.1592.0962.0835.0088.0073.0918.0781.104.0879.1074.09.1113.0927.1148.0948.1186.0971.1226.0987.126.101.0259.021.2265.1792.0108.0088.1377.1075.0141.0107.2476.1914.0244.0186.1489.1132.0239.0181.1289.0977.1568.1167.1606.1191.1641.1206.0005.0005.1684.1226.1724.1245.1714.122.2822.1993.2222.1552.2934.2022.26.1767.3618.2427.16.1065.4477.2924.1768.1143q.23.1479.47.2983-.7639-.112-1.5435-.2505A48.6291,48.6291,0,0,1,8.9424,60.13l-.23-.0747-.228-.0752c-.1514-.0508-.3008-.1015-.4492-.1533L7.814,59.749l-.2158-.0772L7.5918,59.67l-.2129-.0782-.2139-.08c-.92-.3462-1.7695-.7115-2.5371-1.0879l-.0044-.0025c-.17-.0835-.3349-.167-.4965-.2519l-.04-.02-.146-.0777-.1631-.0888-.1274-.07-.061-.0341L3.46,57.8046l-.1543-.09-.1226-.0733-.0644-.039-.106-.0645-.0054-.0029-.144-.0908c-.0947-.06-.188-.1211-.2788-.1817l-.1338-.0908-.1216-.0849-.0185-.0132q-.2527-.18-.4781-.3594l-.1133-.0918-.1083-.0908L1.6094,56.53l-.105-.0913-.1016-.0918-.0893-.0835-.0161-.0151q-.1377-.1318-.2593-.2637l-.0093-.01c-.08-.0869-.1543-.1733-.2236-.26L.79,55.6962q-.1-.1273-.1856-.2539L.59,55.4208.5376,55.34.4834,55.25l-.0444-.08-.01-.0191-.041-.08-.0005-.0015-.042-.09L.314,54.9038l-.0108-.0269-.0283-.0757L.27,54.7841q-.0263-.0776-.0459-.1552L.22,54.6157l-.019-.0825C3.772,55.2675,6.3589,55.8173,7.9375,56.1567Z" style="fill:#cf8713;fill-rule:evenodd"/><path d="M12.0264,21.1166a273.3312,273.3312,0,0,1-4.05,34.1773A273.2605,273.2605,0,0,1,0,88.7729,273.3885,273.3885,0,0,1,4.05,54.5957,273.3546,273.3546,0,0,1,12.0264,21.1166Z" style="fill:#fff1db;fill-rule:evenodd"/><path d="M3.104,57.5937C1.0884,56.3666-.0161,55.07.19,53.91S1.88,51.913,4.1948,51.4555a10.7632,10.7632,0,0,1-.0937,3.1494A10.751,10.751,0,0,1,3.104,57.5937Z" style="fill:#ffa91f;fill-rule:evenodd"/><circle cx="61.1328" cy="110.5957" r="10.2647" transform="translate(-58.0548 68.6085) rotate(-41.6617)" style="fill:#4d4d4d"/><path d="M61.1328,116.123a5.5271,5.5271,0,1,0-5.5268-5.5273A5.5378,5.5378,0,0,0,61.1328,116.123Z" style="fill:#f7daac;fill-rule:evenodd"/><path d="M50.5415,27.5165c-2.0625-.1083-2.0586,1.2007,1.544,1.8868S90.3394,37.98,94.8,38.3237s17.669,1.2007,26.4175-1.2012,50.6055-16.1255,54.0366-17.4976,6.0039-1.7148,2.23-3.4306S127.05,2.2993,119.8452,1.0986s-13.209-2.23-17.4975,1.5439-33.2793,21.271-35.5093,23.33S55.0249,27.7519,50.5415,27.5165Z" style="fill:#cf8713;fill-rule:evenodd"/><rect x="51.5966" y="95.1485" width="26.961" height="5.1132" transform="matrix(0.2927, -0.9562, 0.9562, 0.2927, -47.3956, 131.3388)" style="fill:#a66803"/><polygon points="129.385 24.261 133.671 24.733 128 89.986 123.713 89.514 129.385 24.261" style="fill:#ce851b;fill-rule:evenodd"/><rect x="59.2012" y="49.121" width="70.6319" height="4.313" transform="translate(33.1999 139.6125) rotate(-83.7145)" style="fill:#ce851b"/><polygon points="100.528 16.41 125.066 89.074 123.713 89.514 99.175 16.85 100.528 16.41" style="fill:#ce851b"/><polygon points="130.582 25.03 92.793 86.617 91.596 85.849 129.385 24.261 130.582 25.03" style="fill:#ce851b"/><path d="M76.6621,33.45l3.395.3326L77.69,55.1835a16.7161,16.7161,0,0,1-3.314-1.0708Z" style="fill:#ce851b;fill-rule:evenodd"/><path d="M56.3789,29.6059l3.3955.332-1.8115,16.376q-1.7264-.0666-3.42-.1147Z" style="fill:#ce851b;fill-rule:evenodd"/><polygon points="59.774 29.938 64.363 46.616 63.466 46.567 58.963 30.202 59.774 29.938" style="fill:#ce851b"/><polygon points="77.337 34.188 70.059 46.974 69.116 46.908 76.62 33.727 77.337 34.188" style="fill:#ce851b"/><path d="M60.9038,83.9238c8.67-.6192,32.4072-.4131,43.3477.2065s25.5962,4.541,37.5688,8.2569,24.77,8.2563,25.3892,9.7016-5.9859.8257-14.4492.2061-41.6968-6.6055-47.8892-7.2246S57.1875,84.5429,60.9038,83.9238Z" style="fill:#f7daac;fill-rule:evenodd"/><path d="M249.73,65.6743c-.2861,7.5058-2.812,16.1172-5.5327,20.2783-4.5,6.8828-17.3594,9.3154-47.8838,9.3022-12.2876-.0053-20.6455-3.4018-24.2461-7.4214,19.7368,1.0352,36.0752,1.1231,44.9487-.4663,21.7286-3.8916,26.2686-5.8374,32.4307-21.08C249.5366,66.0639,249.6314,65.8623,249.73,65.6743Z" style="fill:#cf8713;fill-rule:evenodd"/><path d="M226.8765,82.2221c19.2109,2.7427,34.5708,6.4658,34.3066,8.315s-16.0517,1.125-35.2627-1.6177S191.35,82.4536,191.6138,80.604,207.6655,79.479,226.8765,82.2221Z" style="fill:#f9a822;fill-rule:evenodd"/><path d="M226.8765,82.2226c19.2114,2.7422,34.5708,6.4653,34.3066,8.3145l-69.5693-9.9327C191.8775,78.7548,207.6655,79.4794,226.8765,82.2226Z" style="fill:#ffa91f;fill-rule:evenodd"/></g></g></svg>