<svg xmlns="http://www.w3.org/2000/svg" viewBox="0 0 900 957.0003"><title>portrait</title><path d="M772,946" transform="translate(-1253.5251 -573.439)" style="fill:#ffa162;opacity:0.68"/><circle cx="450" cy="507.0001" r="450" style="fill:#fff"/><path d="M1974.8794,1332.9391c-14.75-27.8334-86.1221-68.6668-143.4577-95l6.4235-13.5c-11.7462-16.427-27.49-30.6053-49.96-41a50.4311,50.4311,0,0,1-14.2744,12c-7.724-17.0214-10.571-56.6146-11.1394-78.7724,0,0-14.0649,13.6666-58.3155,13.6666s-57.9335-13.6666-57.9335-13.6666c-.5684,22.1578-4.7766,61.751-12.5006,78.7724a50.4311,50.4311,0,0,1-14.2744-12c-22.47,10.3947-38.2142,24.573-49.96,41l6.4235,13.5c-57.3357,26.3332-128.7076,67.1666-143.4577,95-12.6983,20.227,5.234,78,10.7058,114,77.9268,8.8766,166.304,13.01,260.5077,14.5,94.2037-1.49,182.5809-5.6234,260.5077-14.5C1969.6453,1410.9391,1987.5775,1353.1661,1974.8794,1332.9391Z" transform="translate(-1253.5251 -573.439)" style="fill:#ffa162"/><path d="M1766.4787,1166.4823c-1.1915-5.7883-3.4074-34.2983-4.0077-49.8156,0,0-13.8691,18.2829-58.12,18.2829s-58.1292-18.2829-58.1292-18.2829c-.1088,4.2871-2.0609,27.8734-2.3667,31.9264Z" transform="translate(-1253.5251 -573.439)" style="fill:#ff9150"/><path d="M1703.6659,1301.8481c-42.3463,0-67.6833-15.5148-67.6833-15.5148l4.6468,239.5373a25.3274,25.3274,0,0,1,3.7156.7075,451.6792,451.6792,0,0,0,118.3618-.0653,13.049,13.049,0,0,1,4.21-1.0128l3.6021-239.1667S1746.0121,1301.8481,1703.6659,1301.8481Z" transform="translate(-1253.5251 -573.439)" style="fill:#161616"/><path d="M1974.8794,1332.9391c-14.75-27.8334-86.1221-68.6668-143.4577-95l6.4235-13.5c-11.7462-16.427-27.49-30.6053-49.96-41-3.5651,4.5221-14.2744,12-14.2744,12l-10.9036,331.1427c72.0692-9.1426,139.9684-35.8516,201.688-79.429C1969.8666,1411.1528,1987.5775,1353.1661,1974.8794,1332.9391Z" transform="translate(-1253.5251 -573.439)" style="fill:#abcb4c"/><path d="M1432.4524,1332.9391c14.75-27.8334,86.122-68.6668,143.4577-95l-6.4235-13.5c11.7462-16.427,27.49-30.6053,49.96-41,3.5651,4.5221,14.2744,12,14.2744,12l10.6231,331.1427c-80.4862-9.188-159.0729-46.6258-201.3139-79.1619C1437.5588,1411.42,1419.7542,1353.1661,1432.4524,1332.9391Z" transform="translate(-1253.5251 -573.439)" style="fill:#abcb4c"/><path d="M1831.4217,1237.9391l6.4235-13.5c-11.7462-16.427-27.49-30.6053-49.96-41-3.5651,4.5221-42.8815,32.9359-42.8815,32.9359l59.5015,65.11Z" transform="translate(-1253.5251 -573.439)" style="fill:#879c3c"/><path d="M1575.91,1237.9391l-6.4235-13.5c11.7462-16.427,27.49-30.6053,49.96-41,3.5651,4.5221,42.8815,32.9359,42.8815,32.9359l-59.5015,65.11Z" transform="translate(-1253.5251 -573.439)" style="fill:#879c3c"/><path d="M1868.1794,1323.9207q12.4308,62.9085,6.0666,130.5c10.0171-46.209,22.4051-86.3421,46.3918-96.75C1904.9892,1356.4746,1887.17,1343.403,1868.1794,1323.9207Z" transform="translate(-1253.5251 -573.439)" style="fill:#879c3c"/><path d="M1539.1524,1323.9207q-12.4308,62.9085-6.0666,130.5c-10.0172-46.209-22.4051-86.3421-46.3918-96.75C1502.3425,1356.4746,1520.1617,1343.403,1539.1524,1323.9207Z" transform="translate(-1253.5251 -573.439)" style="fill:#879c3c"/><path d="M1837.7483,718.189c5.0833,4.0833,18.25,27.125,21.75,48.25s2.5,59.43-1,90.3052a12.0359,12.0359,0,0,1,6.9362-4.8052c4.516-1,7.6981.25,10.4076,5.25s-.0938,12.5552-1.3438,21.3052-3.75,16.25-4.75,23.25-5,50.5-8,56.5-11.5955,14.8537-15.8455,10.3537c0,0-1.8347,56.3411-2.7379,60.3411-.3418,1.5139-6.5363,18.2693-22.6666,37-26.49,30.76-69.0011,69.1354-76.6667,71-12.3333,3-20.6667-1-38.3333-1s-31.3982,5-41.3334,1c-7.044-2.836-52.88-45.34-79-71-10.7207-10.5319-13-36-13-36s-6.689-53.1111-6.689-60.1111c-5.4191,4-9.0319,1-9.0319,1-20.7736,0-17.1608-44-34.3215-87-1.2888-9.2745-5.4192-28,.9032-32s14.4511,2,18.0639,6,4.0644,2.75,4.0644,2.75c-7.4514-18.25-10.6257-54.7746-10.8907-63.5817s-.8791-14.6857,4.485-38.0572,13.75-45,23-53.75c0,0-2.25-27.75,2.25-45s12.1456-37,27.5-53a139.9716,139.9716,0,0,1,33.75-25.25l18-8.5s-.0974,16.3889.8058,22.3889,4.516,22,4.516,22l7.2256-26s1.8064,16,9.032,19,10.8383-2,10.8383-5a39.018,39.018,0,0,0-.9032-7s62.9855,10.6111,95.2355,25.3611,49.6666,33.4167,56.1666,40.9167,18.6667,24.0487,18.6667,33.1666A30.4577,30.4577,0,0,1,1837.7483,718.189Z" transform="translate(-1253.5251 -573.439)" style="fill:#ffb685"/><path d="M1858.8358,856.709s4.49-69.15.99-90.27-16.66-44.17-21.75-48.25l-11.2005-2.7966c21.6666,47.3333,20,136,20,136-1.2407,51.827-11.4584,109-13.8334,116.75s-11.1251,33.5-27.875,33.5c-6.4025,0-22.8806-4.2968-35.021-8.2034-19.72-6.3456-39.1543-18.1057-69.8127-18.1057-25.5752,0-49.2565,14.83-64.7913,21.3924-13.9033,5.873-21.9212,12-27.3333,12-11.1666,0-20-14-28.6667-30.6667s-12-41.3333-14-70.6666-6.06-54.0037-8-69,2-48.6667,2-48.6667,5.6351-44.0035,17-74c0,0-6.7179-1.5074-14.4661-10.5367-9.25,8.75-17.63,30.38-23,53.75-5.36,23.37-4.75,29.25-4.48,38.06.26,8.8,3.4358,45.3289,10.8857,63.5789,8.98,33.074,15.4777,69.9114,20.3242,109.2511l6.69,60.11s2.28,25.47,13,36c26.12,25.66,71.96,68.16,79,71,9.94,4,23.67-1,41.33-1,17.67,0,26,4,38.34,1,7.66-1.86,50.17-40.24,76.66-71,16.13-18.73,22.33-35.49,22.67-37,.9-4,2.7346-60.3412,2.7346-60.3412C1847.1011,929.461,1850.86,891.92,1858.8358,856.709Z" transform="translate(-1253.5251 -573.439)" style="fill:#594448"/><path d="M1845.4686,698.269a30.4648,30.4648,0,0,1-7.09,19.92c-63.73,30.25-229.73,40.92-276-13,0,0-2.25-27.75,2.25-45s12.15-37,27.5-53a140.092,140.092,0,0,1,33.75-25.25l18-8.5s-.09,16.39.81,22.39,4.52,22,4.52,22l7.22-26s1.81,16,9.03,19c7.23,3,10.84-2,10.84-5a39.1524,39.1524,0,0,0-.9-7s62.98,10.61,95.23,25.36,49.67,33.42,56.17,40.92S1845.4686,689.159,1845.4686,698.269Z" transform="translate(-1253.5251 -573.439)" style="fill:#3b2b2c"/><path d="M1552.8834,849.5641c59.96-14.8659,130.2634,2.5372,140.0846,4.9079,4.8175.9156,16.0828.8993,21.1761-.1344,20.9354-5.8289,78.6183-21.444,139.8639-7.3993,1.24.2446-.8272,19.24-1.07,20.6862-10.306.8268-9.3326,14.5353-13.8072,30.1534-1.6609,9.3715-4.3471,19.2889-9.4783,27.159-7.5561,8.9772-20.3667,15.3328-42.8677,15.2614-43.8273-.2571-54.9018-13.8542-73.8023-65.3152-3.1083-6.2572-15.935-5.1931-18.866.4062-8.7812,22.7788-15.8953,66.6273-72.217,64.75-16.3986-.29-34.6835-3.4218-42.6339-16.5622-5.3346-7.1358-13.977-41.7687-15.98-48.3212-2.2127-4.4621-6.4968-4.9065-7.9222-5.6132C1554.2563,862.336,1552.8834,849.5641,1552.8834,849.5641Z" transform="translate(-1253.5251 -573.439)" style="fill:#1a1a1a"/><path d="M1624.91,932.1573c-38.1591-.5621-40.5684-13.8386-45.8906-39.252-5.8679-29.7321,2.7172-37.166,14.4341-39.1053a128.2551,128.2551,0,0,1,18.2308-1.9721c10.4635-.2656,15.1054-.1086,28.36.318,17.846.6357,38.72,4.8483,38.58,20.8329-.5225,9.08-2.0508,20.542-5.1618,28.6181C1665.3758,919.3156,1662.1622,929.8676,1624.91,932.1573Z" transform="translate(-1253.5251 -573.439)" style="fill:#764b2c"/><path d="M1785.6633,931.6515c39.3687-2.0673,40.05-15.5828,44.1107-41.0957,5.2361-29.85-3.68-37.5107-15.4351-39.2011A128.2679,128.2679,0,0,0,1796.07,849.77c-10.4668-.0437-15.1044.2117-28.3473.9193-17.8285,1.014-38.6087,5.6683-38.13,21.6464.7148,9.0666,2.4858,20.4938,5.7674,28.5021C1743.8217,918.3807,1748.3708,930.1522,1785.6633,931.6515Z" transform="translate(-1253.5251 -573.439)" style="fill:#764b2c"/><path d="M1574.6022,860.4833c.0111,1.0463-2.8114,2.0793-6.7832,2.1214s-7.5918-1.1932-7.6029-2.24,3.1969-2.1994,7.1687-2.2415S1574.5911,859.437,1574.6022,860.4833Z" transform="translate(-1253.5251 -573.439)" style="fill:#fff"/><path d="M1834.1759,858.35c.0111,1.0463,2.8548,2.0192,6.8266,1.9771s7.5648-1.3539,7.5537-2.4-3.2428-2.1311-7.2146-2.089S1834.1648,857.3033,1834.1759,858.35Z" transform="translate(-1253.5251 -573.439)" style="fill:#fff"/><path d="M1631.3017,931.6515a84.3951,84.3951,0,0,1-25.3991-1.3731l32.3-78.1918a105.08,105.08,0,0,1,18.437,1.8929Z" transform="translate(-1253.5251 -573.439)" style="fill:#8a634b"/><path d="M1790.081,931.3583a90.96,90.96,0,0,1-25.6095-2.37l30.1979-79.223a122.6153,122.6153,0,0,1,18.5861,1.4356Z" transform="translate(-1253.5251 -573.439)" style="fill:#8a634b"/><path d="M1596.2741,926.8933a25.5591,25.5591,0,0,1-4.84-3.3012l31.4188-71.88c1.5067.0131,2.9674.0158,4.384.0587Z" transform="translate(-1253.5251 -573.439)" style="fill:#8a634b"/><path d="M1753.9771,925.0454a31.3529,31.3529,0,0,1-4.9051-3.2858l31.5049-71.72c1.4809-.0242,2.9471-.1033,4.3782-.1573Z" transform="translate(-1253.5251 -573.439)" style="fill:#8a634b"/><path d="M1767.8091,1024.4276c-2.75-4.25-26.5-5.25-64.1668-5.25s-61.4167,1-64.1667,5.25-6.5,14-6.5,20,13.25,39.75,18,44.5,16.75,8.25,24.5,9.25,17.75-4,18.5-6.25,1.75-28,1.75-28h15.8335s1,25.75,1.75,28,10.75,7.25,18.5,6.25,19.75-4.5,24.5-9.25,18-38.5,18-44.5S1770.5591,1028.6776,1767.8091,1024.4276Z" transform="translate(-1253.5251 -573.439)" style="fill:#ffb685"/><path d="M1704.1461,1029.83l-55.5415-1.317a.44.44,0,0,0-.1381.86c23.6156,6.9316,55.23,6.0341,55.6748,6.0211a.05.05,0,0,1,.0095,0c.445.013,32.0592.91,55.6747-6.0211a.44.44,0,0,0-.1381-.86Z" transform="translate(-1253.5251 -573.439)" style="fill:#ec7726;opacity:0.8"/><path d="M1703.8605,1055.1862l-6.7062-.6661c-2.0843-.2071-3.3546,1.7326-1.851,2.85a16.0532,16.0532,0,0,0,17.6854,0c1.5036-1.1177.2334-3.0574-1.851-2.85l-6.7061.6661A2.8832,2.8832,0,0,1,1703.8605,1055.1862Z" transform="translate(-1253.5251 -573.439)" style="fill:#ec7726;opacity:0.8"/><path d="M1847.2012,943.6639c6.1321,3.4194,15.6321-18.3306,10.6273-32.0318-7.7859-19.529,2.0882-18.7988,5.0882-14.1321,4-23.6667-8.3536-19.4889-10.4125-6.7918C1850.0565,906.2312,1848.438,924.35,1847.2012,943.6639Z" transform="translate(-1253.5251 -573.439)" style="fill:#e5a17f"/><path d="M1563.4946,952.1841s-19.332-18.69-14.3271-32.3913c7.7859-19.529-2.0882-18.7988-5.0882-14.1321-3.8116-24.14,7.7756-19.1841,10.4125-6.7918C1557.9374,915.7551,1560.897,933.6091,1563.4946,952.1841Z" transform="translate(-1253.5251 -573.439)" style="fill:#e5a17f"/><path d="M1678.913,847.1829a1.0432,1.0432,0,0,0,1.7227-1.0221c-6.581-25.47-20.7881-21.7271-51.1357-23.1608-15.94-.5066-31.4227-3.1789-50.3959-4.7389a.9.9,0,0,0-.8681,1.3313c6.7534,11.3775,33.8066,14.9844,66.4307,16.4076C1655.2021,836.46,1669.6222,838.6785,1678.913,847.1829Z" transform="translate(-1253.5251 -573.439)" style="fill:#594448;opacity:0.6000000000000001"/><path d="M1726.3333,847.1829a1.0431,1.0431,0,0,1-1.7226-1.0221c6.5809-25.47,20.788-21.7271,51.1356-23.1608,15.94-.5066,31.4227-3.1789,50.3959-4.7389a.9.9,0,0,1,.8681,1.3313C1820.2569,830.97,1793.2037,834.5768,1760.58,836,1750.0442,836.46,1735.6242,838.6785,1726.3333,847.1829Z" transform="translate(-1253.5251 -573.439)" style="fill:#594448;opacity:0.6000000000000001"/></svg>